%TF.GenerationSoftware,KiCad,Pcbnew,(6.0.2)*%
%TF.CreationDate,2022-04-05T13:44:54-03:00*%
%TF.ProjectId,EM8900,454d3839-3030-42e6-9b69-6361645f7063,rev?*%
%TF.SameCoordinates,PX5f5e100PY8583b00*%
%TF.FileFunction,Copper,L1,Top*%
%TF.FilePolarity,Positive*%
%FSLAX46Y46*%
G04 Gerber Fmt 4.6, Leading zero omitted, Abs format (unit mm)*
G04 Created by KiCad (PCBNEW (6.0.2)) date 2022-04-05 13:44:54*
%MOMM*%
%LPD*%
G01*
G04 APERTURE LIST*
G04 Aperture macros list*
%AMRoundRect*
0 Rectangle with rounded corners*
0 $1 Rounding radius*
0 $2 $3 $4 $5 $6 $7 $8 $9 X,Y pos of 4 corners*
0 Add a 4 corners polygon primitive as box body*
4,1,4,$2,$3,$4,$5,$6,$7,$8,$9,$2,$3,0*
0 Add four circle primitives for the rounded corners*
1,1,$1+$1,$2,$3*
1,1,$1+$1,$4,$5*
1,1,$1+$1,$6,$7*
1,1,$1+$1,$8,$9*
0 Add four rect primitives between the rounded corners*
20,1,$1+$1,$2,$3,$4,$5,0*
20,1,$1+$1,$4,$5,$6,$7,0*
20,1,$1+$1,$6,$7,$8,$9,0*
20,1,$1+$1,$8,$9,$2,$3,0*%
G04 Aperture macros list end*
%TA.AperFunction,SMDPad,CuDef*%
%ADD10RoundRect,0.250000X-0.250000X-0.475000X0.250000X-0.475000X0.250000X0.475000X-0.250000X0.475000X0*%
%TD*%
%TA.AperFunction,SMDPad,CuDef*%
%ADD11RoundRect,0.250000X0.475000X-0.250000X0.475000X0.250000X-0.475000X0.250000X-0.475000X-0.250000X0*%
%TD*%
%TA.AperFunction,SMDPad,CuDef*%
%ADD12R,0.800000X0.300000*%
%TD*%
%TA.AperFunction,SMDPad,CuDef*%
%ADD13R,1.800000X2.500000*%
%TD*%
%TA.AperFunction,ComponentPad*%
%ADD14RoundRect,0.750000X-0.750000X0.750000X-0.750000X-0.750000X0.750000X-0.750000X0.750000X0.750000X0*%
%TD*%
%TA.AperFunction,ComponentPad*%
%ADD15RoundRect,0.425000X-1.075000X-0.425000X1.075000X-0.425000X1.075000X0.425000X-1.075000X0.425000X0*%
%TD*%
%TA.AperFunction,SMDPad,CuDef*%
%ADD16R,1.400000X2.600000*%
%TD*%
%TA.AperFunction,SMDPad,CuDef*%
%ADD17R,2.600000X1.400000*%
%TD*%
%TA.AperFunction,ComponentPad*%
%ADD18RoundRect,0.750000X0.750000X-0.750000X0.750000X0.750000X-0.750000X0.750000X-0.750000X-0.750000X0*%
%TD*%
%TA.AperFunction,SMDPad,CuDef*%
%ADD19RoundRect,0.250000X0.250000X0.475000X-0.250000X0.475000X-0.250000X-0.475000X0.250000X-0.475000X0*%
%TD*%
%TA.AperFunction,ComponentPad*%
%ADD20RoundRect,0.750000X0.750000X0.750000X-0.750000X0.750000X-0.750000X-0.750000X0.750000X-0.750000X0*%
%TD*%
%TA.AperFunction,ComponentPad*%
%ADD21C,5.000000*%
%TD*%
%TA.AperFunction,Conductor*%
%ADD22C,0.400000*%
%TD*%
%TA.AperFunction,Conductor*%
%ADD23C,0.300000*%
%TD*%
G04 APERTURE END LIST*
D10*
X18938000Y23033000D03*
X20838000Y23033000D03*
X18938000Y25192000D03*
X20838000Y25192000D03*
D11*
X23063000Y19035000D03*
X23063000Y20935000D03*
D12*
X18500000Y21000000D03*
X18500000Y20500000D03*
X18500000Y20000000D03*
X18500000Y19500000D03*
X18500000Y19000000D03*
X21500000Y19000000D03*
X21500000Y19500000D03*
X21500000Y20000000D03*
X21500000Y20500000D03*
X21500000Y21000000D03*
D13*
X20000000Y20000000D03*
D14*
X6426000Y22525000D03*
X6426000Y17525000D03*
D15*
X14808000Y21255000D03*
X14808000Y18715000D03*
X25476000Y21255000D03*
X25476000Y18715000D03*
D16*
X22150000Y28621000D03*
D17*
X21550000Y33701000D03*
D16*
X17150000Y33701000D03*
D17*
X17750000Y28621000D03*
D18*
X33604000Y17445000D03*
X33604000Y22445000D03*
D19*
X20965000Y17064000D03*
X19065000Y17064000D03*
D20*
X22428000Y9825000D03*
X17428000Y9825000D03*
D21*
X3048000Y3048000D03*
X37084000Y37084000D03*
X3048000Y37084000D03*
X37084000Y3048000D03*
D22*
X15062000Y21255000D02*
X14808000Y21255000D01*
X19065000Y17064000D02*
X19065000Y17252000D01*
X17094000Y28621000D02*
X17750000Y28621000D01*
X7696000Y21255000D02*
X6426000Y22525000D01*
X14808000Y26335000D02*
X17094000Y28621000D01*
X19065000Y17252000D02*
X15062000Y21255000D01*
X14808000Y21255000D02*
X7696000Y21255000D01*
X14808000Y21255000D02*
X14808000Y26335000D01*
X32334000Y18715000D02*
X33604000Y17445000D01*
X5076000Y17525000D02*
X6426000Y17525000D01*
X23190000Y19035000D02*
X25029000Y19035000D01*
X7616000Y18715000D02*
X6426000Y17525000D01*
X21500000Y17599000D02*
X21500000Y19000000D01*
X21550000Y34833000D02*
X19634000Y36749000D01*
X3124000Y27351000D02*
X3124000Y19477000D01*
X14808000Y12492000D02*
X17475000Y9825000D01*
X3124000Y19477000D02*
X5076000Y17525000D01*
X23155000Y19000000D02*
X23190000Y19035000D01*
D23*
X21500000Y20500000D02*
X21500000Y19000000D01*
D22*
X12522000Y36749000D02*
X3124000Y27351000D01*
X20965000Y17064000D02*
X20965000Y13315000D01*
X20965000Y17064000D02*
X21500000Y17599000D01*
X20965000Y13315000D02*
X17475000Y9825000D01*
X21550000Y33701000D02*
X21550000Y34833000D01*
X25349000Y18715000D02*
X32334000Y18715000D01*
X25029000Y19035000D02*
X25349000Y18715000D01*
X19634000Y36749000D02*
X12522000Y36749000D01*
X14808000Y18715000D02*
X14808000Y12492000D01*
X14808000Y18715000D02*
X7616000Y18715000D01*
X20838000Y25192000D02*
X20838000Y26777000D01*
X22150000Y28089000D02*
X22150000Y28621000D01*
X20838000Y26777000D02*
X22150000Y28089000D01*
X20838000Y23033000D02*
X20838000Y25192000D01*
X18500000Y22595000D02*
X18500000Y21050001D01*
X18938000Y23033000D02*
X18500000Y22595000D01*
D23*
X17475000Y23729000D02*
X18938000Y25192000D01*
X17800000Y20500000D02*
X17475000Y20825000D01*
X17475000Y20825000D02*
X17475000Y23729000D01*
X18500000Y20500000D02*
X17800000Y20500000D01*
D22*
X22475000Y9825000D02*
X31191000Y9825000D01*
X37287000Y19350000D02*
X34192000Y22445000D01*
D23*
X21500000Y21000000D02*
X23125000Y21000000D01*
D22*
X23190000Y20935000D02*
X25029000Y20935000D01*
X37287000Y15921000D02*
X37287000Y19350000D01*
X34192000Y22445000D02*
X33604000Y22445000D01*
X28524000Y21255000D02*
X29667000Y22398000D01*
X29667000Y22398000D02*
X33557000Y22398000D01*
X33557000Y22398000D02*
X33604000Y22445000D01*
X25029000Y20935000D02*
X25349000Y21255000D01*
X25349000Y21255000D02*
X28524000Y21255000D01*
D23*
X23125000Y21000000D02*
X23190000Y20935000D01*
D22*
X31191000Y9825000D02*
X37287000Y15921000D01*
D23*
X18500000Y20000000D02*
X18500000Y19000000D01*
X18500000Y20000000D02*
X17592880Y20000000D01*
X16840000Y20752880D02*
X16840000Y25065000D01*
X19634000Y27859000D02*
X19634000Y30526000D01*
X17150000Y33010000D02*
X17150000Y33701000D01*
X19634000Y30526000D02*
X17150000Y33010000D01*
X16840000Y25065000D02*
X19634000Y27859000D01*
X17592880Y20000000D02*
X16840000Y20752880D01*
%TA.AperFunction,Conductor*%
G36*
X35000381Y39471998D02*
G01*
X35046874Y39418342D01*
X35056978Y39348068D01*
X35027484Y39283488D01*
X35021822Y39277373D01*
X34823466Y39076929D01*
X34821225Y39074071D01*
X34764732Y39002022D01*
X34609386Y38803902D01*
X34607493Y38800813D01*
X34607491Y38800810D01*
X34561233Y38725324D01*
X34428105Y38508079D01*
X34426580Y38504794D01*
X34426578Y38504790D01*
X34387505Y38420614D01*
X34282027Y38193380D01*
X34173087Y37863977D01*
X34102730Y37524236D01*
X34071888Y37178659D01*
X34071983Y37175029D01*
X34071983Y37175028D01*
X34074367Y37084000D01*
X34080970Y36831829D01*
X34129856Y36488340D01*
X34217897Y36152747D01*
X34343927Y35829497D01*
X34345624Y35826292D01*
X34479113Y35574175D01*
X34506275Y35522874D01*
X34508325Y35519891D01*
X34508327Y35519888D01*
X34700733Y35239936D01*
X34700739Y35239929D01*
X34702790Y35236944D01*
X34705178Y35234207D01*
X34908597Y35001023D01*
X34930866Y34975495D01*
X34933551Y34973052D01*
X35143268Y34782225D01*
X35187481Y34741994D01*
X35469233Y34539534D01*
X35772388Y34370800D01*
X36092928Y34238028D01*
X36096422Y34237033D01*
X36096424Y34237032D01*
X36423103Y34143975D01*
X36423108Y34143974D01*
X36426604Y34142978D01*
X36623304Y34110767D01*
X36765412Y34087496D01*
X36765419Y34087495D01*
X36768993Y34086910D01*
X36942275Y34078738D01*
X37111931Y34070737D01*
X37111932Y34070737D01*
X37115558Y34070566D01*
X37124415Y34071170D01*
X37458073Y34093916D01*
X37458081Y34093917D01*
X37461704Y34094164D01*
X37465279Y34094827D01*
X37465282Y34094827D01*
X37799279Y34156730D01*
X37799283Y34156731D01*
X37802844Y34157391D01*
X38134456Y34259408D01*
X38452145Y34398864D01*
X38543909Y34452486D01*
X38748560Y34572074D01*
X38748562Y34572075D01*
X38751700Y34573909D01*
X38859236Y34654649D01*
X39026244Y34780042D01*
X39026248Y34780045D01*
X39029151Y34782225D01*
X39259715Y35001023D01*
X39279267Y35019577D01*
X39342449Y35051959D01*
X39413108Y35045043D01*
X39468810Y35001023D01*
X39492000Y34928180D01*
X39492000Y5197102D01*
X39471998Y5128981D01*
X39418342Y5082488D01*
X39348068Y5072384D01*
X39283488Y5101878D01*
X39273712Y5111319D01*
X39169842Y5223096D01*
X38906019Y5448422D01*
X38618047Y5641931D01*
X38309741Y5801060D01*
X37985189Y5923698D01*
X37981668Y5924582D01*
X37981663Y5924584D01*
X37820378Y5965096D01*
X37648692Y6008220D01*
X37626476Y6011145D01*
X37308315Y6053032D01*
X37308307Y6053033D01*
X37304711Y6053506D01*
X37160045Y6055779D01*
X36961446Y6058899D01*
X36961442Y6058899D01*
X36957804Y6058956D01*
X36954190Y6058595D01*
X36954184Y6058595D01*
X36710843Y6034306D01*
X36612569Y6024497D01*
X36273583Y5950586D01*
X36270156Y5949413D01*
X36270150Y5949411D01*
X36191296Y5922413D01*
X35945339Y5838203D01*
X35632188Y5688837D01*
X35338279Y5504468D01*
X35335443Y5502196D01*
X35335436Y5502191D01*
X35091384Y5306668D01*
X35067509Y5287541D01*
X34823466Y5040929D01*
X34821225Y5038071D01*
X34764732Y4966022D01*
X34609386Y4767902D01*
X34607493Y4764813D01*
X34607491Y4764810D01*
X34561233Y4689324D01*
X34428105Y4472079D01*
X34426580Y4468794D01*
X34426578Y4468790D01*
X34387505Y4384614D01*
X34282027Y4157380D01*
X34173087Y3827977D01*
X34102730Y3488236D01*
X34071888Y3142659D01*
X34071983Y3139029D01*
X34071983Y3139028D01*
X34074367Y3048000D01*
X34080970Y2795829D01*
X34129856Y2452340D01*
X34217897Y2116747D01*
X34343927Y1793497D01*
X34345624Y1790292D01*
X34479113Y1538175D01*
X34506275Y1486874D01*
X34508325Y1483891D01*
X34508327Y1483888D01*
X34700733Y1203936D01*
X34700739Y1203929D01*
X34702790Y1200944D01*
X34705178Y1198207D01*
X34908597Y965023D01*
X34930866Y939495D01*
X35164184Y727193D01*
X35201105Y666553D01*
X35199382Y595578D01*
X35159560Y536801D01*
X35094282Y508884D01*
X35079383Y508000D01*
X5053534Y508000D01*
X4985413Y528002D01*
X4938920Y581658D01*
X4928816Y651932D01*
X4958310Y716512D01*
X4977881Y734760D01*
X4990244Y744042D01*
X4990248Y744045D01*
X4993151Y746225D01*
X5244819Y985050D01*
X5467370Y1251217D01*
X5657853Y1541201D01*
X5786446Y1796879D01*
X5812117Y1847920D01*
X5812120Y1847928D01*
X5813744Y1851156D01*
X5932977Y2176974D01*
X5933822Y2180496D01*
X5933825Y2180504D01*
X6013124Y2510809D01*
X6013125Y2510813D01*
X6013971Y2514338D01*
X6048035Y2795829D01*
X6055316Y2855996D01*
X6055316Y2856003D01*
X6055652Y2858775D01*
X6061599Y3048000D01*
X6061438Y3050796D01*
X6041836Y3390754D01*
X6041835Y3390759D01*
X6041627Y3394374D01*
X5981976Y3736158D01*
X5883437Y4068820D01*
X5747316Y4387952D01*
X5697569Y4475169D01*
X5577208Y4686184D01*
X5575417Y4689324D01*
X5370018Y4968940D01*
X5133842Y5223096D01*
X4870019Y5448422D01*
X4582047Y5641931D01*
X4273741Y5801060D01*
X3949189Y5923698D01*
X3945668Y5924582D01*
X3945663Y5924584D01*
X3784378Y5965096D01*
X3612692Y6008220D01*
X3590476Y6011145D01*
X3272315Y6053032D01*
X3272307Y6053033D01*
X3268711Y6053506D01*
X3124045Y6055779D01*
X2925446Y6058899D01*
X2925442Y6058899D01*
X2921804Y6058956D01*
X2918190Y6058595D01*
X2918184Y6058595D01*
X2674843Y6034306D01*
X2576569Y6024497D01*
X2237583Y5950586D01*
X2234156Y5949413D01*
X2234150Y5949411D01*
X2155296Y5922413D01*
X1909339Y5838203D01*
X1596188Y5688837D01*
X1302279Y5504468D01*
X1299443Y5502196D01*
X1299436Y5502191D01*
X1055384Y5306668D01*
X1031509Y5287541D01*
X787466Y5040929D01*
X785225Y5038071D01*
X733154Y4971662D01*
X675381Y4930397D01*
X604470Y4926917D01*
X542934Y4962328D01*
X510311Y5025385D01*
X508000Y5049408D01*
X508000Y9015039D01*
X15420001Y9015039D01*
X15420209Y9009929D01*
X15431082Y8876233D01*
X15432852Y8865680D01*
X15485967Y8658815D01*
X15489701Y8648269D01*
X15578510Y8454295D01*
X15584046Y8444588D01*
X15705803Y8269403D01*
X15712976Y8260824D01*
X15863824Y8109976D01*
X15872403Y8102803D01*
X16047588Y7981046D01*
X16057295Y7975510D01*
X16251269Y7886701D01*
X16261815Y7882967D01*
X16468679Y7829853D01*
X16479234Y7828082D01*
X16612930Y7817207D01*
X16618036Y7817000D01*
X17155885Y7817000D01*
X17171124Y7821475D01*
X17172329Y7822865D01*
X17174000Y7830548D01*
X17174000Y7835116D01*
X17682000Y7835116D01*
X17686475Y7819877D01*
X17687865Y7818672D01*
X17695548Y7817001D01*
X18237961Y7817001D01*
X18243071Y7817209D01*
X18376767Y7828082D01*
X18387320Y7829852D01*
X18594185Y7882967D01*
X18604731Y7886701D01*
X18798705Y7975510D01*
X18808412Y7981046D01*
X18983597Y8102803D01*
X18992176Y8109976D01*
X19143024Y8260824D01*
X19150197Y8269403D01*
X19271954Y8444588D01*
X19277490Y8454295D01*
X19366299Y8648269D01*
X19370033Y8658815D01*
X19423147Y8865679D01*
X19424918Y8876234D01*
X19435793Y9009930D01*
X19436000Y9015036D01*
X19436000Y9552885D01*
X19431525Y9568124D01*
X19430135Y9569329D01*
X19422452Y9571000D01*
X17700115Y9571000D01*
X17684876Y9566525D01*
X17683671Y9565135D01*
X17682000Y9557452D01*
X17682000Y7835116D01*
X17174000Y7835116D01*
X17174000Y9552885D01*
X17169525Y9568124D01*
X17168135Y9569329D01*
X17160452Y9571000D01*
X15438116Y9571000D01*
X15422877Y9566525D01*
X15421672Y9565135D01*
X15420001Y9557452D01*
X15420001Y9015039D01*
X508000Y9015039D01*
X508000Y10097115D01*
X15420000Y10097115D01*
X15424475Y10081876D01*
X15425865Y10080671D01*
X15433548Y10079000D01*
X17155885Y10079000D01*
X17171124Y10083475D01*
X17172329Y10084865D01*
X17174000Y10092548D01*
X17174000Y10097115D01*
X17682000Y10097115D01*
X17686475Y10081876D01*
X17687865Y10080671D01*
X17695548Y10079000D01*
X19417884Y10079000D01*
X19433123Y10083475D01*
X19434328Y10084865D01*
X19435999Y10092548D01*
X19435999Y10634961D01*
X19435791Y10640071D01*
X19424918Y10773767D01*
X19423148Y10784320D01*
X19370033Y10991185D01*
X19366299Y11001731D01*
X19277490Y11195705D01*
X19271954Y11205412D01*
X19150197Y11380597D01*
X19143024Y11389176D01*
X18992176Y11540024D01*
X18983597Y11547197D01*
X18808412Y11668954D01*
X18798705Y11674490D01*
X18604731Y11763299D01*
X18594185Y11767033D01*
X18387321Y11820147D01*
X18376766Y11821918D01*
X18243070Y11832793D01*
X18237964Y11833000D01*
X17700115Y11833000D01*
X17684876Y11828525D01*
X17683671Y11827135D01*
X17682000Y11819452D01*
X17682000Y10097115D01*
X17174000Y10097115D01*
X17174000Y11814884D01*
X17169525Y11830123D01*
X17168135Y11831328D01*
X17160452Y11832999D01*
X16618039Y11832999D01*
X16612929Y11832791D01*
X16479233Y11821918D01*
X16468680Y11820148D01*
X16261815Y11767033D01*
X16251269Y11763299D01*
X16057295Y11674490D01*
X16047588Y11668954D01*
X15872403Y11547197D01*
X15863824Y11540024D01*
X15712976Y11389176D01*
X15705803Y11380597D01*
X15584046Y11205412D01*
X15578510Y11195705D01*
X15489701Y11001731D01*
X15485967Y10991185D01*
X15432853Y10784321D01*
X15431082Y10773766D01*
X15420207Y10640070D01*
X15420000Y10634964D01*
X15420000Y10097115D01*
X508000Y10097115D01*
X508000Y16715039D01*
X4418001Y16715039D01*
X4418209Y16709929D01*
X4429082Y16576233D01*
X4430852Y16565680D01*
X4483967Y16358815D01*
X4487701Y16348269D01*
X4576510Y16154295D01*
X4582046Y16144588D01*
X4703803Y15969403D01*
X4710976Y15960824D01*
X4861824Y15809976D01*
X4870403Y15802803D01*
X5045588Y15681046D01*
X5055295Y15675510D01*
X5249269Y15586701D01*
X5259815Y15582967D01*
X5466679Y15529853D01*
X5477234Y15528082D01*
X5610930Y15517207D01*
X5616036Y15517000D01*
X6153885Y15517000D01*
X6169124Y15521475D01*
X6170329Y15522865D01*
X6172000Y15530548D01*
X6172000Y15535116D01*
X6680000Y15535116D01*
X6684475Y15519877D01*
X6685865Y15518672D01*
X6693548Y15517001D01*
X7235961Y15517001D01*
X7241071Y15517209D01*
X7374767Y15528082D01*
X7385320Y15529852D01*
X7592185Y15582967D01*
X7602731Y15586701D01*
X7796705Y15675510D01*
X7806412Y15681046D01*
X7981597Y15802803D01*
X7990176Y15809976D01*
X8141024Y15960824D01*
X8148197Y15969403D01*
X8269954Y16144588D01*
X8275490Y16154295D01*
X8364299Y16348269D01*
X8368033Y16358815D01*
X8421147Y16565679D01*
X8422918Y16576234D01*
X8433793Y16709930D01*
X8434000Y16715036D01*
X8434000Y17252885D01*
X8429525Y17268124D01*
X8428135Y17269329D01*
X8420452Y17271000D01*
X6698115Y17271000D01*
X6682876Y17266525D01*
X6681671Y17265135D01*
X6680000Y17257452D01*
X6680000Y15535116D01*
X6172000Y15535116D01*
X6172000Y17252885D01*
X6167525Y17268124D01*
X6166135Y17269329D01*
X6158452Y17271000D01*
X4436116Y17271000D01*
X4420877Y17266525D01*
X4419672Y17265135D01*
X4418001Y17257452D01*
X4418001Y16715039D01*
X508000Y16715039D01*
X508000Y17797115D01*
X4418000Y17797115D01*
X4422475Y17781876D01*
X4423865Y17780671D01*
X4431548Y17779000D01*
X6153885Y17779000D01*
X6169124Y17783475D01*
X6170329Y17784865D01*
X6172000Y17792548D01*
X6172000Y17797115D01*
X6680000Y17797115D01*
X6684475Y17781876D01*
X6685865Y17780671D01*
X6693548Y17779000D01*
X8415884Y17779000D01*
X8431123Y17783475D01*
X8432328Y17784865D01*
X8433999Y17792548D01*
X8433999Y18227175D01*
X12800001Y18227175D01*
X12800195Y18222244D01*
X12805958Y18148997D01*
X12807905Y18137668D01*
X12855464Y17960175D01*
X12860168Y17947921D01*
X12943214Y17784934D01*
X12950364Y17773923D01*
X13065485Y17631762D01*
X13074762Y17622485D01*
X13216923Y17507364D01*
X13227934Y17500214D01*
X13390921Y17417168D01*
X13403175Y17412464D01*
X13580666Y17364905D01*
X13591999Y17362958D01*
X13665246Y17357193D01*
X13670172Y17357000D01*
X14535885Y17357000D01*
X14551124Y17361475D01*
X14552329Y17362865D01*
X14554000Y17370548D01*
X14554000Y18442885D01*
X14549525Y18458124D01*
X14548135Y18459329D01*
X14540452Y18461000D01*
X12818116Y18461000D01*
X12802877Y18456525D01*
X12801672Y18455135D01*
X12800001Y18447452D01*
X12800001Y18227175D01*
X8433999Y18227175D01*
X8433999Y18334961D01*
X8433791Y18340071D01*
X8422918Y18473767D01*
X8421148Y18484320D01*
X8368033Y18691185D01*
X8364299Y18701731D01*
X8275490Y18895705D01*
X8269954Y18905412D01*
X8148197Y19080597D01*
X8141024Y19089176D01*
X7990176Y19240024D01*
X7981597Y19247197D01*
X7806412Y19368954D01*
X7796705Y19374490D01*
X7602731Y19463299D01*
X7592185Y19467033D01*
X7385321Y19520147D01*
X7374766Y19521918D01*
X7241070Y19532793D01*
X7235964Y19533000D01*
X6698115Y19533000D01*
X6682876Y19528525D01*
X6681671Y19527135D01*
X6680000Y19519452D01*
X6680000Y17797115D01*
X6172000Y17797115D01*
X6172000Y19514884D01*
X6167525Y19530123D01*
X6166135Y19531328D01*
X6158452Y19532999D01*
X5616039Y19532999D01*
X5610929Y19532791D01*
X5477233Y19521918D01*
X5466680Y19520148D01*
X5259815Y19467033D01*
X5249269Y19463299D01*
X5055295Y19374490D01*
X5045588Y19368954D01*
X4870403Y19247197D01*
X4861824Y19240024D01*
X4710976Y19089176D01*
X4703803Y19080597D01*
X4582046Y18905412D01*
X4576510Y18895705D01*
X4487701Y18701731D01*
X4483967Y18691185D01*
X4430853Y18484321D01*
X4429082Y18473766D01*
X4418207Y18340070D01*
X4418000Y18334964D01*
X4418000Y17797115D01*
X508000Y17797115D01*
X508000Y21712458D01*
X4417500Y21712458D01*
X4417707Y21709918D01*
X4417707Y21709908D01*
X4421889Y21658500D01*
X4429022Y21570800D01*
X4484890Y21353206D01*
X4578409Y21148945D01*
X4706620Y20964473D01*
X4865473Y20805620D01*
X4974865Y20729591D01*
X5043931Y20681589D01*
X5049945Y20677409D01*
X5254206Y20583890D01*
X5259638Y20582495D01*
X5259639Y20582495D01*
X5416288Y20542275D01*
X5471800Y20528022D01*
X5525705Y20523638D01*
X5610908Y20516707D01*
X5610918Y20516707D01*
X5613458Y20516500D01*
X7238542Y20516500D01*
X7241082Y20516707D01*
X7241092Y20516707D01*
X7301197Y20521596D01*
X7380200Y20528022D01*
X7385396Y20529356D01*
X7495376Y20557593D01*
X7543154Y20560473D01*
X7581859Y20555378D01*
X7588377Y20554346D01*
X7626770Y20547230D01*
X7651186Y20542705D01*
X7658766Y20543142D01*
X7658767Y20543142D01*
X7713380Y20546291D01*
X7720633Y20546500D01*
X12752546Y20546500D01*
X12820667Y20526498D01*
X12864812Y20477704D01*
X12945789Y20318779D01*
X13069280Y20166280D01*
X13172620Y20082597D01*
X13212970Y20024185D01*
X13215336Y19953228D01*
X13178963Y19892256D01*
X13172619Y19886759D01*
X13074762Y19807515D01*
X13065485Y19798238D01*
X12950364Y19656077D01*
X12943214Y19645066D01*
X12860168Y19482079D01*
X12855464Y19469825D01*
X12807905Y19292334D01*
X12805958Y19281001D01*
X12800193Y19207754D01*
X12800000Y19202827D01*
X12800000Y18987115D01*
X12804475Y18971876D01*
X12805865Y18970671D01*
X12813548Y18969000D01*
X14936000Y18969000D01*
X15004121Y18948998D01*
X15050614Y18895342D01*
X15062000Y18843000D01*
X15062000Y17375116D01*
X15066475Y17359877D01*
X15067865Y17358672D01*
X15075548Y17357001D01*
X15945825Y17357001D01*
X15950756Y17357195D01*
X16024003Y17362958D01*
X16035332Y17364905D01*
X16212825Y17412464D01*
X16225079Y17417168D01*
X16388066Y17500214D01*
X16399077Y17507364D01*
X16541238Y17622485D01*
X16550515Y17631762D01*
X16665636Y17773923D01*
X16672786Y17784934D01*
X16755832Y17947921D01*
X16760536Y17960175D01*
X16808095Y18137666D01*
X16810042Y18148999D01*
X16814571Y18206543D01*
X16839857Y18272885D01*
X16896995Y18315024D01*
X16967845Y18319583D01*
X17029278Y18285752D01*
X18019595Y17295435D01*
X18053621Y17233123D01*
X18056500Y17206340D01*
X18056500Y16538600D01*
X18056837Y16535354D01*
X18056837Y16535350D01*
X18066618Y16441086D01*
X18067474Y16432834D01*
X18123450Y16265054D01*
X18216522Y16114652D01*
X18341697Y15989695D01*
X18347927Y15985855D01*
X18347928Y15985854D01*
X18485288Y15901184D01*
X18492262Y15896885D01*
X18514820Y15889403D01*
X18653611Y15843368D01*
X18653613Y15843368D01*
X18660139Y15841203D01*
X18666975Y15840503D01*
X18666978Y15840502D01*
X18710031Y15836091D01*
X18764600Y15830500D01*
X19365400Y15830500D01*
X19368646Y15830837D01*
X19368650Y15830837D01*
X19464308Y15840762D01*
X19464312Y15840763D01*
X19471166Y15841474D01*
X19477702Y15843655D01*
X19477704Y15843655D01*
X19614826Y15889403D01*
X19638946Y15897450D01*
X19789348Y15990522D01*
X19914305Y16115697D01*
X19917102Y16120235D01*
X19974353Y16160824D01*
X20045276Y16164054D01*
X20106687Y16128428D01*
X20114062Y16119932D01*
X20122098Y16109793D01*
X20236829Y15995261D01*
X20248240Y15986249D01*
X20386243Y15901184D01*
X20399424Y15895037D01*
X20553710Y15843862D01*
X20567086Y15840995D01*
X20661438Y15831328D01*
X20667854Y15831000D01*
X20692885Y15831000D01*
X20708124Y15835475D01*
X20709329Y15836865D01*
X20711000Y15844548D01*
X20711000Y15849116D01*
X21219000Y15849116D01*
X21223475Y15833877D01*
X21224865Y15832672D01*
X21232548Y15831001D01*
X21262095Y15831001D01*
X21268614Y15831338D01*
X21364206Y15841257D01*
X21377600Y15844149D01*
X21531784Y15895588D01*
X21544962Y15901761D01*
X21682807Y15987063D01*
X21694208Y15996099D01*
X21808739Y16110829D01*
X21817751Y16122240D01*
X21902816Y16260243D01*
X21908963Y16273424D01*
X21960138Y16427710D01*
X21963005Y16441086D01*
X21972672Y16535438D01*
X21973000Y16541854D01*
X21973000Y16635039D01*
X31596001Y16635039D01*
X31596209Y16629929D01*
X31607082Y16496233D01*
X31608852Y16485680D01*
X31661967Y16278815D01*
X31665701Y16268269D01*
X31754510Y16074295D01*
X31760046Y16064588D01*
X31881803Y15889403D01*
X31888976Y15880824D01*
X32039824Y15729976D01*
X32048403Y15722803D01*
X32223588Y15601046D01*
X32233295Y15595510D01*
X32427269Y15506701D01*
X32437815Y15502967D01*
X32644679Y15449853D01*
X32655234Y15448082D01*
X32788930Y15437207D01*
X32794036Y15437000D01*
X33331885Y15437000D01*
X33347124Y15441475D01*
X33348329Y15442865D01*
X33350000Y15450548D01*
X33350000Y15455116D01*
X33858000Y15455116D01*
X33862475Y15439877D01*
X33863865Y15438672D01*
X33871548Y15437001D01*
X34413961Y15437001D01*
X34419071Y15437209D01*
X34552767Y15448082D01*
X34563320Y15449852D01*
X34770185Y15502967D01*
X34780731Y15506701D01*
X34974705Y15595510D01*
X34984412Y15601046D01*
X35159597Y15722803D01*
X35168176Y15729976D01*
X35319024Y15880824D01*
X35326197Y15889403D01*
X35447954Y16064588D01*
X35453490Y16074295D01*
X35542299Y16268269D01*
X35546033Y16278815D01*
X35599147Y16485679D01*
X35600918Y16496234D01*
X35611793Y16629930D01*
X35612000Y16635036D01*
X35612000Y17172885D01*
X35607525Y17188124D01*
X35606135Y17189329D01*
X35598452Y17191000D01*
X33876115Y17191000D01*
X33860876Y17186525D01*
X33859671Y17185135D01*
X33858000Y17177452D01*
X33858000Y15455116D01*
X33350000Y15455116D01*
X33350000Y17172885D01*
X33345525Y17188124D01*
X33344135Y17189329D01*
X33336452Y17191000D01*
X31614116Y17191000D01*
X31598877Y17186525D01*
X31597672Y17185135D01*
X31596001Y17177452D01*
X31596001Y16635039D01*
X21973000Y16635039D01*
X21973000Y16791885D01*
X21968525Y16807124D01*
X21967135Y16808329D01*
X21959452Y16810000D01*
X21237115Y16810000D01*
X21221876Y16805525D01*
X21220671Y16804135D01*
X21219000Y16796452D01*
X21219000Y15849116D01*
X20711000Y15849116D01*
X20711000Y17192000D01*
X20731002Y17260121D01*
X20784658Y17306614D01*
X20837000Y17318000D01*
X21954884Y17318000D01*
X21970123Y17322475D01*
X21971328Y17323865D01*
X21972999Y17331548D01*
X21972999Y17586095D01*
X21972662Y17592614D01*
X21962743Y17688206D01*
X21959851Y17701600D01*
X21908412Y17855784D01*
X21902239Y17868962D01*
X21816937Y18006807D01*
X21807901Y18018208D01*
X21699092Y18126828D01*
X21665013Y18189111D01*
X21670016Y18259931D01*
X21712513Y18316804D01*
X21779012Y18341672D01*
X21788110Y18342001D01*
X21906700Y18342001D01*
X21974821Y18321999D01*
X21995718Y18305174D01*
X22109829Y18191261D01*
X22121240Y18182249D01*
X22259243Y18097184D01*
X22272424Y18091037D01*
X22426710Y18039862D01*
X22440086Y18036995D01*
X22534438Y18027328D01*
X22540854Y18027000D01*
X22790885Y18027000D01*
X22806124Y18031475D01*
X22807329Y18032865D01*
X22809000Y18040548D01*
X22809000Y18762885D01*
X22804525Y18778124D01*
X22803135Y18779329D01*
X22795452Y18781000D01*
X21899263Y18781000D01*
X21831142Y18801002D01*
X21808208Y18827470D01*
X21784135Y18848329D01*
X21776452Y18850000D01*
X21668115Y18850000D01*
X21652877Y18845526D01*
X21652844Y18845488D01*
X21593118Y18807104D01*
X21557619Y18802000D01*
X21534500Y18802000D01*
X21466379Y18822002D01*
X21419886Y18875658D01*
X21408500Y18928000D01*
X21408500Y19114240D01*
X21428502Y19182361D01*
X21482158Y19228854D01*
X21552432Y19238958D01*
X21617012Y19209464D01*
X21652003Y19155018D01*
X21655865Y19151671D01*
X21663548Y19150000D01*
X21771885Y19150000D01*
X21787124Y19154475D01*
X21788329Y19155865D01*
X21792879Y19176783D01*
X21793977Y19176544D01*
X21810002Y19231121D01*
X21863658Y19277614D01*
X21916000Y19289000D01*
X23191000Y19289000D01*
X23259121Y19268998D01*
X23305614Y19215342D01*
X23317000Y19163000D01*
X23317000Y18045116D01*
X23321475Y18029877D01*
X23322865Y18028672D01*
X23330548Y18027001D01*
X23411215Y18027001D01*
X23479336Y18006999D01*
X23525829Y17953343D01*
X23527812Y17948620D01*
X23611214Y17784934D01*
X23618364Y17773923D01*
X23733485Y17631762D01*
X23742762Y17622485D01*
X23884923Y17507364D01*
X23895934Y17500214D01*
X24058921Y17417168D01*
X24071175Y17412464D01*
X24248666Y17364905D01*
X24259999Y17362958D01*
X24333246Y17357193D01*
X24338172Y17357000D01*
X25203885Y17357000D01*
X25219124Y17361475D01*
X25220329Y17362865D01*
X25222000Y17370548D01*
X25222000Y17375116D01*
X25730000Y17375116D01*
X25734475Y17359877D01*
X25735865Y17358672D01*
X25743548Y17357001D01*
X26613825Y17357001D01*
X26618756Y17357195D01*
X26692003Y17362958D01*
X26703332Y17364905D01*
X26880825Y17412464D01*
X26893079Y17417168D01*
X27056066Y17500214D01*
X27067077Y17507364D01*
X27209238Y17622485D01*
X27218515Y17631762D01*
X27287633Y17717115D01*
X31596000Y17717115D01*
X31600475Y17701876D01*
X31601865Y17700671D01*
X31609548Y17699000D01*
X33331885Y17699000D01*
X33347124Y17703475D01*
X33348329Y17704865D01*
X33350000Y17712548D01*
X33350000Y17717115D01*
X33858000Y17717115D01*
X33862475Y17701876D01*
X33863865Y17700671D01*
X33871548Y17699000D01*
X35593884Y17699000D01*
X35609123Y17703475D01*
X35610328Y17704865D01*
X35611999Y17712548D01*
X35611999Y18254961D01*
X35611791Y18260071D01*
X35600918Y18393767D01*
X35599148Y18404320D01*
X35546033Y18611185D01*
X35542299Y18621731D01*
X35453490Y18815705D01*
X35447954Y18825412D01*
X35326197Y19000597D01*
X35319024Y19009176D01*
X35168176Y19160024D01*
X35159597Y19167197D01*
X34984412Y19288954D01*
X34974705Y19294490D01*
X34780731Y19383299D01*
X34770185Y19387033D01*
X34563321Y19440147D01*
X34552766Y19441918D01*
X34419070Y19452793D01*
X34413964Y19453000D01*
X33876115Y19453000D01*
X33860876Y19448525D01*
X33859671Y19447135D01*
X33858000Y19439452D01*
X33858000Y17717115D01*
X33350000Y17717115D01*
X33350000Y19434884D01*
X33345525Y19450123D01*
X33344135Y19451328D01*
X33336452Y19452999D01*
X32794039Y19452999D01*
X32788929Y19452791D01*
X32655233Y19441918D01*
X32644680Y19440148D01*
X32437815Y19387033D01*
X32427269Y19383299D01*
X32233295Y19294490D01*
X32223588Y19288954D01*
X32048403Y19167197D01*
X32039824Y19160024D01*
X31888976Y19009176D01*
X31881803Y19000597D01*
X31760046Y18825412D01*
X31754510Y18815705D01*
X31665701Y18621731D01*
X31661967Y18611185D01*
X31608853Y18404321D01*
X31607082Y18393766D01*
X31596207Y18260070D01*
X31596000Y18254964D01*
X31596000Y17717115D01*
X27287633Y17717115D01*
X27333636Y17773923D01*
X27340786Y17784934D01*
X27423832Y17947921D01*
X27428536Y17960175D01*
X27476095Y18137666D01*
X27478042Y18148999D01*
X27483807Y18222246D01*
X27484000Y18227172D01*
X27484000Y18442885D01*
X27479525Y18458124D01*
X27478135Y18459329D01*
X27470452Y18461000D01*
X25748115Y18461000D01*
X25732876Y18456525D01*
X25731671Y18455135D01*
X25730000Y18447452D01*
X25730000Y17375116D01*
X25222000Y17375116D01*
X25222000Y18843000D01*
X25242002Y18911121D01*
X25295658Y18957614D01*
X25348000Y18969000D01*
X27465884Y18969000D01*
X27481123Y18973475D01*
X27482328Y18974865D01*
X27483999Y18982548D01*
X27483999Y19202825D01*
X27483805Y19207756D01*
X27478042Y19281003D01*
X27476095Y19292332D01*
X27428536Y19469825D01*
X27423832Y19482079D01*
X27340786Y19645066D01*
X27333636Y19656077D01*
X27218515Y19798238D01*
X27209238Y19807515D01*
X27111381Y19886759D01*
X27071029Y19945174D01*
X27068665Y20016131D01*
X27105038Y20077102D01*
X27111359Y20082580D01*
X27214720Y20166280D01*
X27338211Y20318779D01*
X27419188Y20477704D01*
X27467935Y20529318D01*
X27531454Y20546500D01*
X28495088Y20546500D01*
X28503658Y20546208D01*
X28553776Y20542791D01*
X28553780Y20542791D01*
X28561352Y20542275D01*
X28568829Y20543580D01*
X28568830Y20543580D01*
X28595308Y20548201D01*
X28624303Y20553262D01*
X28630821Y20554223D01*
X28694242Y20561898D01*
X28701343Y20564581D01*
X28703952Y20565222D01*
X28720262Y20569685D01*
X28722798Y20570450D01*
X28730284Y20571757D01*
X28788800Y20597444D01*
X28794904Y20599935D01*
X28796691Y20600610D01*
X28854656Y20622513D01*
X28860919Y20626817D01*
X28863285Y20628054D01*
X28878097Y20636299D01*
X28880351Y20637632D01*
X28887305Y20640685D01*
X28938002Y20679587D01*
X28943332Y20683459D01*
X28989720Y20715339D01*
X28989725Y20715344D01*
X28995981Y20719643D01*
X29001307Y20725620D01*
X29037427Y20766161D01*
X29042408Y20771438D01*
X29923567Y21652596D01*
X29985879Y21686621D01*
X30012662Y21689500D01*
X31474693Y21689500D01*
X31542814Y21669498D01*
X31589307Y21615842D01*
X31600278Y21573715D01*
X31607022Y21490800D01*
X31662890Y21273206D01*
X31756409Y21068945D01*
X31884620Y20884473D01*
X32043473Y20725620D01*
X32109718Y20679579D01*
X32195690Y20619827D01*
X32227945Y20597409D01*
X32432206Y20503890D01*
X32437638Y20502495D01*
X32437639Y20502495D01*
X32472202Y20493621D01*
X32649800Y20448022D01*
X32703705Y20443638D01*
X32788908Y20436707D01*
X32788918Y20436707D01*
X32791458Y20436500D01*
X34416542Y20436500D01*
X34419082Y20436707D01*
X34419092Y20436707D01*
X34504295Y20443638D01*
X34558200Y20448022D01*
X34735799Y20493621D01*
X34770361Y20502495D01*
X34770362Y20502495D01*
X34775794Y20503890D01*
X34868861Y20546500D01*
X34939919Y20579033D01*
X35010183Y20589204D01*
X35074792Y20559772D01*
X35081466Y20553564D01*
X36541595Y19093435D01*
X36575621Y19031123D01*
X36578500Y19004340D01*
X36578500Y16266660D01*
X36558498Y16198539D01*
X36541595Y16177565D01*
X30934435Y10570405D01*
X30872123Y10536379D01*
X30845340Y10533500D01*
X24561130Y10533500D01*
X24493009Y10553502D01*
X24446516Y10607158D01*
X24435545Y10649285D01*
X24425413Y10773849D01*
X24424978Y10779200D01*
X24369110Y10996794D01*
X24275591Y11201055D01*
X24147380Y11385527D01*
X23988527Y11544380D01*
X23804055Y11672591D01*
X23599794Y11766110D01*
X23409830Y11814884D01*
X23387396Y11820644D01*
X23387395Y11820644D01*
X23382200Y11821978D01*
X23318797Y11827135D01*
X23243092Y11833293D01*
X23243082Y11833293D01*
X23240542Y11833500D01*
X21615458Y11833500D01*
X21612918Y11833293D01*
X21612908Y11833293D01*
X21537203Y11827135D01*
X21473800Y11821978D01*
X21468605Y11820644D01*
X21468604Y11820644D01*
X21446170Y11814884D01*
X21256206Y11766110D01*
X21051945Y11672591D01*
X20867473Y11544380D01*
X20708620Y11385527D01*
X20580409Y11201055D01*
X20486890Y10996794D01*
X20431022Y10779200D01*
X20419500Y10637542D01*
X20419500Y9012458D01*
X20431022Y8870800D01*
X20486890Y8653206D01*
X20580409Y8448945D01*
X20708620Y8264473D01*
X20867473Y8105620D01*
X21051945Y7977409D01*
X21256206Y7883890D01*
X21261638Y7882495D01*
X21261639Y7882495D01*
X21466673Y7829852D01*
X21473800Y7828022D01*
X21527705Y7823638D01*
X21612908Y7816707D01*
X21612918Y7816707D01*
X21615458Y7816500D01*
X23240542Y7816500D01*
X23243082Y7816707D01*
X23243092Y7816707D01*
X23328295Y7823638D01*
X23382200Y7828022D01*
X23389328Y7829852D01*
X23594361Y7882495D01*
X23594362Y7882495D01*
X23599794Y7883890D01*
X23804055Y7977409D01*
X23988527Y8105620D01*
X24147380Y8264473D01*
X24275591Y8448945D01*
X24369110Y8653206D01*
X24424978Y8870800D01*
X24435545Y9000715D01*
X24461004Y9066990D01*
X24518252Y9108980D01*
X24561130Y9116500D01*
X31162088Y9116500D01*
X31170658Y9116208D01*
X31220776Y9112791D01*
X31220780Y9112791D01*
X31228352Y9112275D01*
X31235829Y9113580D01*
X31235830Y9113580D01*
X31262308Y9118201D01*
X31291303Y9123262D01*
X31297821Y9124223D01*
X31361242Y9131898D01*
X31368343Y9134581D01*
X31370952Y9135222D01*
X31387262Y9139685D01*
X31389798Y9140450D01*
X31397284Y9141757D01*
X31455800Y9167444D01*
X31461904Y9169935D01*
X31514548Y9189827D01*
X31514549Y9189828D01*
X31521656Y9192513D01*
X31527919Y9196817D01*
X31530285Y9198054D01*
X31545097Y9206299D01*
X31547351Y9207632D01*
X31554305Y9210685D01*
X31605002Y9249587D01*
X31610332Y9253459D01*
X31656720Y9285339D01*
X31656725Y9285344D01*
X31662981Y9289643D01*
X31704436Y9336171D01*
X31709416Y9341446D01*
X37767520Y15399550D01*
X37773785Y15405404D01*
X37774238Y15405799D01*
X37817385Y15443439D01*
X37854129Y15495720D01*
X37858061Y15501014D01*
X37892791Y15545307D01*
X37897476Y15551282D01*
X37900599Y15558198D01*
X37901983Y15560484D01*
X37910357Y15575165D01*
X37911622Y15577525D01*
X37915990Y15583739D01*
X37920580Y15595510D01*
X37939202Y15643275D01*
X37941759Y15649358D01*
X37953568Y15675510D01*
X37968045Y15707573D01*
X37969429Y15715040D01*
X37970230Y15717595D01*
X37974859Y15733848D01*
X37975522Y15736428D01*
X37978282Y15743509D01*
X37986622Y15806861D01*
X37987653Y15813368D01*
X37990829Y15830500D01*
X37999296Y15876186D01*
X37998236Y15894581D01*
X37995709Y15938392D01*
X37995500Y15945646D01*
X37995500Y19321088D01*
X37995792Y19329658D01*
X37999209Y19379776D01*
X37999209Y19379780D01*
X37999725Y19387352D01*
X37988738Y19450303D01*
X37987776Y19456825D01*
X37981014Y19512702D01*
X37980102Y19520242D01*
X37977419Y19527343D01*
X37976778Y19529952D01*
X37972315Y19546262D01*
X37971550Y19548798D01*
X37970243Y19556284D01*
X37944556Y19614800D01*
X37942065Y19620904D01*
X37922173Y19673548D01*
X37922172Y19673549D01*
X37919487Y19680656D01*
X37915183Y19686919D01*
X37913946Y19689285D01*
X37905701Y19704097D01*
X37904368Y19706351D01*
X37901315Y19713305D01*
X37862413Y19764002D01*
X37858541Y19769332D01*
X37826661Y19815720D01*
X37826656Y19815725D01*
X37822357Y19821981D01*
X37775829Y19863436D01*
X37770554Y19868416D01*
X35649405Y21989565D01*
X35615379Y22051877D01*
X35612500Y22078660D01*
X35612500Y23257542D01*
X35600978Y23399200D01*
X35545110Y23616794D01*
X35451591Y23821055D01*
X35323380Y24005527D01*
X35164527Y24164380D01*
X34980055Y24292591D01*
X34775794Y24386110D01*
X34716987Y24401209D01*
X34563396Y24440644D01*
X34563395Y24440644D01*
X34558200Y24441978D01*
X34504295Y24446362D01*
X34419092Y24453293D01*
X34419082Y24453293D01*
X34416542Y24453500D01*
X32791458Y24453500D01*
X32788918Y24453293D01*
X32788908Y24453293D01*
X32703705Y24446362D01*
X32649800Y24441978D01*
X32644605Y24440644D01*
X32644604Y24440644D01*
X32491013Y24401209D01*
X32432206Y24386110D01*
X32227945Y24292591D01*
X32043473Y24164380D01*
X31884620Y24005527D01*
X31756409Y23821055D01*
X31662890Y23616794D01*
X31607022Y23399200D01*
X31595500Y23257542D01*
X31595500Y23232500D01*
X31575498Y23164379D01*
X31521842Y23117886D01*
X31469500Y23106500D01*
X29695912Y23106500D01*
X29687342Y23106792D01*
X29637224Y23110209D01*
X29637220Y23110209D01*
X29629648Y23110725D01*
X29622171Y23109420D01*
X29622170Y23109420D01*
X29595692Y23104799D01*
X29566697Y23099738D01*
X29560179Y23098777D01*
X29496758Y23091102D01*
X29489657Y23088419D01*
X29487048Y23087778D01*
X29470738Y23083315D01*
X29468202Y23082550D01*
X29460716Y23081243D01*
X29453759Y23078189D01*
X29402205Y23055558D01*
X29396101Y23053067D01*
X29336344Y23030487D01*
X29330081Y23026183D01*
X29327715Y23024946D01*
X29312903Y23016701D01*
X29310649Y23015368D01*
X29303695Y23012315D01*
X29252998Y22973413D01*
X29247668Y22969541D01*
X29201280Y22937661D01*
X29201275Y22937656D01*
X29195019Y22933357D01*
X29189968Y22927687D01*
X29189966Y22927686D01*
X29153565Y22886830D01*
X29148584Y22881554D01*
X28267435Y22000405D01*
X28205123Y21966379D01*
X28178340Y21963500D01*
X27531454Y21963500D01*
X27463333Y21983502D01*
X27419187Y22032297D01*
X27416711Y22037158D01*
X27338211Y22191221D01*
X27214720Y22343720D01*
X27062221Y22467211D01*
X26887379Y22556298D01*
X26849499Y22566448D01*
X26703413Y22605592D01*
X26703409Y22605593D01*
X26697836Y22607086D01*
X26692080Y22607539D01*
X26618794Y22613307D01*
X26618785Y22613307D01*
X26616337Y22613500D01*
X25476462Y22613500D01*
X24335664Y22613499D01*
X24285780Y22609574D01*
X24259918Y22607539D01*
X24259915Y22607539D01*
X24254164Y22607086D01*
X24064621Y22556298D01*
X23889779Y22467211D01*
X23737280Y22343720D01*
X23613789Y22191221D01*
X23524702Y22016379D01*
X23523056Y22017217D01*
X23485412Y21967916D01*
X23418658Y21943741D01*
X23410868Y21943500D01*
X22537600Y21943500D01*
X22534354Y21943163D01*
X22534350Y21943163D01*
X22438692Y21933238D01*
X22438688Y21933237D01*
X22431834Y21932526D01*
X22425298Y21930345D01*
X22425296Y21930345D01*
X22309296Y21891644D01*
X22264054Y21876550D01*
X22113652Y21783478D01*
X22108479Y21778296D01*
X22025809Y21695482D01*
X21963526Y21661403D01*
X21936636Y21658500D01*
X21518962Y21658500D01*
X21450841Y21678502D01*
X21404348Y21732158D01*
X21394244Y21802432D01*
X21423738Y21867012D01*
X21452659Y21891644D01*
X21556120Y21955668D01*
X21562348Y21959522D01*
X21687305Y22084697D01*
X21780115Y22235262D01*
X21835797Y22403139D01*
X21846500Y22507600D01*
X21846500Y23558400D01*
X21841005Y23611361D01*
X21836238Y23657308D01*
X21836237Y23657312D01*
X21835526Y23664166D01*
X21824641Y23696794D01*
X21781868Y23824998D01*
X21779550Y23831946D01*
X21686478Y23982348D01*
X21681296Y23987521D01*
X21681292Y23987526D01*
X21645391Y24023365D01*
X21611312Y24085647D01*
X21616315Y24156467D01*
X21645236Y24201555D01*
X21682134Y24238517D01*
X21687305Y24243697D01*
X21766757Y24372591D01*
X21776275Y24388032D01*
X21776276Y24388034D01*
X21780115Y24394262D01*
X21835797Y24562139D01*
X21846500Y24666600D01*
X21846500Y25717400D01*
X21835526Y25823166D01*
X21779550Y25990946D01*
X21686478Y26141348D01*
X21583482Y26244165D01*
X21549403Y26306448D01*
X21546500Y26333338D01*
X21546500Y26431340D01*
X21566502Y26499461D01*
X21583405Y26520435D01*
X21838565Y26775595D01*
X21900877Y26809621D01*
X21927660Y26812500D01*
X22898134Y26812500D01*
X22960316Y26819255D01*
X23096705Y26870385D01*
X23213261Y26957739D01*
X23300615Y27074295D01*
X23351745Y27210684D01*
X23358500Y27272866D01*
X23358500Y29969134D01*
X23351745Y30031316D01*
X23300615Y30167705D01*
X23213261Y30284261D01*
X23096705Y30371615D01*
X22960316Y30422745D01*
X22898134Y30429500D01*
X21401866Y30429500D01*
X21339684Y30422745D01*
X21203295Y30371615D01*
X21086739Y30284261D01*
X20999385Y30167705D01*
X20948255Y30031316D01*
X20941500Y29969134D01*
X20941500Y27934660D01*
X20921498Y27866539D01*
X20904595Y27845565D01*
X20357480Y27298450D01*
X20351217Y27292599D01*
X20345809Y27287881D01*
X20303285Y27268288D01*
X20298869Y27244394D01*
X20289527Y27228826D01*
X20270873Y27202283D01*
X20266939Y27196986D01*
X20227524Y27146718D01*
X20224401Y27139802D01*
X20223017Y27137516D01*
X20214643Y27122835D01*
X20213378Y27120475D01*
X20209010Y27114261D01*
X20206250Y27107182D01*
X20206249Y27107180D01*
X20185798Y27054725D01*
X20183247Y27048656D01*
X20156955Y26990427D01*
X20155571Y26982960D01*
X20154770Y26980405D01*
X20150141Y26964152D01*
X20149478Y26961572D01*
X20146718Y26954491D01*
X20145727Y26946960D01*
X20145726Y26946958D01*
X20138379Y26891148D01*
X20137348Y26884641D01*
X20125704Y26821814D01*
X20126141Y26814234D01*
X20126141Y26814233D01*
X20129291Y26759608D01*
X20129500Y26752354D01*
X20129500Y26333480D01*
X20109498Y26265359D01*
X20092675Y26244464D01*
X19988695Y26140303D01*
X19986094Y26136084D01*
X19928970Y26095583D01*
X19858047Y26092351D01*
X19796635Y26127976D01*
X19790078Y26135530D01*
X19786478Y26141348D01*
X19661303Y26266305D01*
X19646500Y26275430D01*
X19516968Y26355275D01*
X19516966Y26355276D01*
X19510738Y26359115D01*
X19422087Y26388519D01*
X19370129Y26405753D01*
X19311769Y26446184D01*
X19284532Y26511748D01*
X19297065Y26581629D01*
X19320701Y26614441D01*
X20041605Y27335345D01*
X20050385Y27343335D01*
X20050387Y27343337D01*
X20057080Y27347584D01*
X20094590Y27387528D01*
X20147475Y27418601D01*
X20156751Y27450591D01*
X20161040Y27456886D01*
X20165549Y27463092D01*
X20170972Y27468867D01*
X20174788Y27475809D01*
X20174792Y27475814D01*
X20181303Y27487658D01*
X20192157Y27504182D01*
X20200445Y27514868D01*
X20205304Y27521132D01*
X20208452Y27528406D01*
X20223654Y27563535D01*
X20228876Y27574195D01*
X20247305Y27607716D01*
X20247306Y27607718D01*
X20251124Y27614663D01*
X20256459Y27635441D01*
X20262858Y27654131D01*
X20271380Y27673824D01*
X20278606Y27719448D01*
X20281013Y27731071D01*
X20290528Y27768132D01*
X20292500Y27775812D01*
X20292500Y27797259D01*
X20294051Y27816969D01*
X20296166Y27830323D01*
X20297406Y27838152D01*
X20293059Y27884141D01*
X20292500Y27895996D01*
X20292500Y30443944D01*
X20293059Y30455800D01*
X20293059Y30455803D01*
X20294788Y30463537D01*
X20292562Y30534369D01*
X20292500Y30538327D01*
X20292500Y30567432D01*
X20291944Y30571832D01*
X20291012Y30583670D01*
X20289811Y30621906D01*
X20289562Y30629831D01*
X20283580Y30650421D01*
X20279570Y30669784D01*
X20277875Y30683204D01*
X20277875Y30683205D01*
X20276882Y30691064D01*
X20273966Y30698429D01*
X20273965Y30698433D01*
X20259876Y30734018D01*
X20256031Y30745247D01*
X20245356Y30781990D01*
X20243145Y30789601D01*
X20232230Y30808057D01*
X20223531Y30825813D01*
X20223182Y30826693D01*
X20215635Y30845756D01*
X20188480Y30883132D01*
X20181965Y30893051D01*
X20162492Y30925977D01*
X20162489Y30925981D01*
X20158452Y30932807D01*
X20143291Y30947968D01*
X20130449Y30963003D01*
X20117841Y30980357D01*
X20082241Y31009808D01*
X20073462Y31017797D01*
X18395405Y32695855D01*
X18361379Y32758167D01*
X18358500Y32784950D01*
X18358500Y32956331D01*
X19742001Y32956331D01*
X19742371Y32949510D01*
X19747895Y32898648D01*
X19751521Y32883396D01*
X19796676Y32762946D01*
X19805214Y32747351D01*
X19881715Y32645276D01*
X19894276Y32632715D01*
X19996351Y32556214D01*
X20011946Y32547676D01*
X20132394Y32502522D01*
X20147649Y32498895D01*
X20198514Y32493369D01*
X20205328Y32493000D01*
X21277885Y32493000D01*
X21293124Y32497475D01*
X21294329Y32498865D01*
X21296000Y32506548D01*
X21296000Y32511116D01*
X21804000Y32511116D01*
X21808475Y32495877D01*
X21809865Y32494672D01*
X21817548Y32493001D01*
X22894669Y32493001D01*
X22901490Y32493371D01*
X22952352Y32498895D01*
X22967604Y32502521D01*
X23088054Y32547676D01*
X23103649Y32556214D01*
X23205724Y32632715D01*
X23218285Y32645276D01*
X23294786Y32747351D01*
X23303324Y32762946D01*
X23348478Y32883394D01*
X23352105Y32898649D01*
X23357631Y32949514D01*
X23358000Y32956328D01*
X23358000Y33428885D01*
X23353525Y33444124D01*
X23352135Y33445329D01*
X23344452Y33447000D01*
X21822115Y33447000D01*
X21806876Y33442525D01*
X21805671Y33441135D01*
X21804000Y33433452D01*
X21804000Y32511116D01*
X21296000Y32511116D01*
X21296000Y33428885D01*
X21291525Y33444124D01*
X21290135Y33445329D01*
X21282452Y33447000D01*
X19760116Y33447000D01*
X19744877Y33442525D01*
X19743672Y33441135D01*
X19742001Y33433452D01*
X19742001Y32956331D01*
X18358500Y32956331D01*
X18358500Y33973115D01*
X19742000Y33973115D01*
X19746475Y33957876D01*
X19747865Y33956671D01*
X19755548Y33955000D01*
X21277885Y33955000D01*
X21293124Y33959475D01*
X21294329Y33960865D01*
X21296000Y33968548D01*
X21296000Y33973115D01*
X21804000Y33973115D01*
X21808475Y33957876D01*
X21809865Y33956671D01*
X21817548Y33955000D01*
X23339884Y33955000D01*
X23355123Y33959475D01*
X23356328Y33960865D01*
X23357999Y33968548D01*
X23357999Y34445669D01*
X23357629Y34452490D01*
X23352105Y34503352D01*
X23348479Y34518604D01*
X23303324Y34639054D01*
X23294786Y34654649D01*
X23218285Y34756724D01*
X23205724Y34769285D01*
X23103649Y34845786D01*
X23088054Y34854324D01*
X22967606Y34899478D01*
X22952351Y34903105D01*
X22901486Y34908631D01*
X22894672Y34909000D01*
X21822115Y34909000D01*
X21806876Y34904525D01*
X21805671Y34903135D01*
X21804000Y34895452D01*
X21804000Y33973115D01*
X21296000Y33973115D01*
X21296000Y34890884D01*
X21291525Y34906123D01*
X21290135Y34907328D01*
X21282452Y34908999D01*
X20205331Y34908999D01*
X20198510Y34908629D01*
X20147648Y34903105D01*
X20132396Y34899479D01*
X20011946Y34854324D01*
X19996351Y34845786D01*
X19894276Y34769285D01*
X19881715Y34756724D01*
X19805214Y34654649D01*
X19796676Y34639054D01*
X19751522Y34518606D01*
X19747895Y34503351D01*
X19742369Y34452486D01*
X19742000Y34445672D01*
X19742000Y33973115D01*
X18358500Y33973115D01*
X18358500Y35049134D01*
X18351745Y35111316D01*
X18300615Y35247705D01*
X18213261Y35364261D01*
X18096705Y35451615D01*
X17960316Y35502745D01*
X17898134Y35509500D01*
X16401866Y35509500D01*
X16339684Y35502745D01*
X16203295Y35451615D01*
X16086739Y35364261D01*
X15999385Y35247705D01*
X15948255Y35111316D01*
X15941500Y35049134D01*
X15941500Y32352866D01*
X15948255Y32290684D01*
X15999385Y32154295D01*
X16086739Y32037739D01*
X16203295Y31950385D01*
X16339684Y31899255D01*
X16401866Y31892500D01*
X17284050Y31892500D01*
X17352171Y31872498D01*
X17373145Y31855595D01*
X18938595Y30290146D01*
X18972620Y30227834D01*
X18975500Y30201051D01*
X18975500Y29955500D01*
X18955498Y29887379D01*
X18901842Y29840886D01*
X18849500Y29829500D01*
X16401866Y29829500D01*
X16339684Y29822745D01*
X16203295Y29771615D01*
X16086739Y29684261D01*
X15999385Y29567705D01*
X15948255Y29431316D01*
X15941500Y29369134D01*
X15941500Y28522660D01*
X15921498Y28454539D01*
X15904595Y28433565D01*
X14327480Y26856450D01*
X14321215Y26850596D01*
X14277615Y26812561D01*
X14273248Y26806347D01*
X14240872Y26760281D01*
X14236939Y26754986D01*
X14197524Y26704718D01*
X14194401Y26697802D01*
X14193017Y26695516D01*
X14184643Y26680835D01*
X14183378Y26678475D01*
X14179010Y26672261D01*
X14176250Y26665182D01*
X14176249Y26665180D01*
X14155798Y26612725D01*
X14153247Y26606656D01*
X14126955Y26548427D01*
X14125571Y26540960D01*
X14124770Y26538405D01*
X14120141Y26522152D01*
X14119478Y26519572D01*
X14116718Y26512491D01*
X14115727Y26504960D01*
X14115726Y26504958D01*
X14108379Y26449148D01*
X14107348Y26442641D01*
X14095704Y26379814D01*
X14096141Y26372234D01*
X14096141Y26372233D01*
X14099291Y26317608D01*
X14099500Y26310354D01*
X14099500Y22739499D01*
X14079498Y22671378D01*
X14025842Y22624885D01*
X13973500Y22613499D01*
X13667664Y22613499D01*
X13617780Y22609574D01*
X13591918Y22607539D01*
X13591915Y22607539D01*
X13586164Y22607086D01*
X13396621Y22556298D01*
X13221779Y22467211D01*
X13069280Y22343720D01*
X12945789Y22191221D01*
X12867290Y22037158D01*
X12864813Y22032297D01*
X12816065Y21980682D01*
X12752546Y21963500D01*
X8560500Y21963500D01*
X8492379Y21983502D01*
X8445886Y22037158D01*
X8434500Y22089500D01*
X8434500Y23337542D01*
X8422978Y23479200D01*
X8367110Y23696794D01*
X8273591Y23901055D01*
X8248899Y23936583D01*
X8198221Y24009498D01*
X8145380Y24085527D01*
X7986527Y24244380D01*
X7802055Y24372591D01*
X7597794Y24466110D01*
X7380200Y24521978D01*
X7326295Y24526362D01*
X7241092Y24533293D01*
X7241082Y24533293D01*
X7238542Y24533500D01*
X5613458Y24533500D01*
X5610918Y24533293D01*
X5610908Y24533293D01*
X5525705Y24526362D01*
X5471800Y24521978D01*
X5254206Y24466110D01*
X5049945Y24372591D01*
X4865473Y24244380D01*
X4706620Y24085527D01*
X4653779Y24009498D01*
X4603102Y23936583D01*
X4578409Y23901055D01*
X4484890Y23696794D01*
X4429022Y23479200D01*
X4417500Y23337542D01*
X4417500Y21712458D01*
X508000Y21712458D01*
X508000Y35082861D01*
X528002Y35150982D01*
X581658Y35197475D01*
X651932Y35207579D01*
X716512Y35178085D01*
X728947Y35165692D01*
X769928Y35118715D01*
X872597Y35001023D01*
X894866Y34975495D01*
X897551Y34973052D01*
X1107268Y34782225D01*
X1151481Y34741994D01*
X1433233Y34539534D01*
X1736388Y34370800D01*
X2056928Y34238028D01*
X2060422Y34237033D01*
X2060424Y34237032D01*
X2387103Y34143975D01*
X2387108Y34143974D01*
X2390604Y34142978D01*
X2587304Y34110767D01*
X2729412Y34087496D01*
X2729419Y34087495D01*
X2732993Y34086910D01*
X2906275Y34078738D01*
X3075931Y34070737D01*
X3075932Y34070737D01*
X3079558Y34070566D01*
X3088415Y34071170D01*
X3422073Y34093916D01*
X3422081Y34093917D01*
X3425704Y34094164D01*
X3429279Y34094827D01*
X3429282Y34094827D01*
X3763279Y34156730D01*
X3763283Y34156731D01*
X3766844Y34157391D01*
X4098456Y34259408D01*
X4416145Y34398864D01*
X4507909Y34452486D01*
X4712560Y34572074D01*
X4712562Y34572075D01*
X4715700Y34573909D01*
X4823236Y34654649D01*
X4990244Y34780042D01*
X4990248Y34780045D01*
X4993151Y34782225D01*
X5244819Y35021050D01*
X5467370Y35287217D01*
X5657853Y35577201D01*
X5786446Y35832879D01*
X5812117Y35883920D01*
X5812120Y35883928D01*
X5813744Y35887156D01*
X5932977Y36212974D01*
X5933822Y36216496D01*
X5933825Y36216504D01*
X6013124Y36546809D01*
X6013125Y36546813D01*
X6013971Y36550338D01*
X6048035Y36831829D01*
X6055316Y36891996D01*
X6055316Y36892003D01*
X6055652Y36894775D01*
X6061599Y37084000D01*
X6061438Y37086796D01*
X6041836Y37426754D01*
X6041835Y37426759D01*
X6041627Y37430374D01*
X5981976Y37772158D01*
X5883437Y38104820D01*
X5747316Y38423952D01*
X5697569Y38511169D01*
X5577208Y38722184D01*
X5575417Y38725324D01*
X5370018Y39004940D01*
X5133842Y39259096D01*
X5131089Y39261448D01*
X5131083Y39261453D01*
X5120853Y39270190D01*
X5082044Y39329640D01*
X5081538Y39400635D01*
X5119495Y39460634D01*
X5183863Y39490586D01*
X5202684Y39492000D01*
X34932260Y39492000D01*
X35000381Y39471998D01*
G37*
%TD.AperFunction*%
M02*
