%FSLAX45Y45*%
G04 Gerber Fmt 4.5, Leading zero omitted, Abs format (unit mm)*
G04 Created by KiCad (PCBNEW (6.0.2)) date 2022-04-05 13:45:07*
%MOMM*%
%LPD*%
G01*
G04 APERTURE LIST*
%TA.AperFunction,Profile*%
%ADD10C,0.050000*%
%TD*%
%ADD11C,0.200000*%
G04 APERTURE END LIST*
D10*
X14000000Y-10000000D02*
X14000000Y-14000000D01*
X10000000Y-10000000D02*
X10000000Y-14000000D01*
X10000000Y-10000000D02*
X14000000Y-10000000D01*
X10000000Y-14000000D02*
X14000000Y-14000000D01*
D11*
X10255119Y-14312976D02*
X10255119Y-14112976D01*
X10302738Y-14112976D01*
X10331310Y-14122500D01*
X10350357Y-14141548D01*
X10359881Y-14160595D01*
X10369405Y-14198690D01*
X10369405Y-14227262D01*
X10359881Y-14265357D01*
X10350357Y-14284405D01*
X10331310Y-14303452D01*
X10302738Y-14312976D01*
X10255119Y-14312976D01*
X10455119Y-14312976D02*
X10455119Y-14179643D01*
X10455119Y-14217738D02*
X10464643Y-14198690D01*
X10474167Y-14189167D01*
X10493214Y-14179643D01*
X10512262Y-14179643D01*
X10578929Y-14312976D02*
X10578929Y-14179643D01*
X10578929Y-14112976D02*
X10569405Y-14122500D01*
X10578929Y-14132024D01*
X10588452Y-14122500D01*
X10578929Y-14112976D01*
X10578929Y-14132024D01*
X10702738Y-14312976D02*
X10683690Y-14303452D01*
X10674167Y-14284405D01*
X10674167Y-14112976D01*
X10807500Y-14312976D02*
X10788452Y-14303452D01*
X10778929Y-14284405D01*
X10778929Y-14112976D01*
X11036071Y-14312976D02*
X11036071Y-14112976D01*
X11102738Y-14255833D01*
X11169405Y-14112976D01*
X11169405Y-14312976D01*
X11350357Y-14312976D02*
X11350357Y-14208214D01*
X11340833Y-14189167D01*
X11321786Y-14179643D01*
X11283690Y-14179643D01*
X11264643Y-14189167D01*
X11350357Y-14303452D02*
X11331309Y-14312976D01*
X11283690Y-14312976D01*
X11264643Y-14303452D01*
X11255119Y-14284405D01*
X11255119Y-14265357D01*
X11264643Y-14246309D01*
X11283690Y-14236786D01*
X11331309Y-14236786D01*
X11350357Y-14227262D01*
X11445595Y-14179643D02*
X11445595Y-14379643D01*
X11445595Y-14189167D02*
X11464643Y-14179643D01*
X11502738Y-14179643D01*
X11521786Y-14189167D01*
X11531309Y-14198690D01*
X11540833Y-14217738D01*
X11540833Y-14274881D01*
X11531309Y-14293928D01*
X11521786Y-14303452D01*
X11502738Y-14312976D01*
X11464643Y-14312976D01*
X11445595Y-14303452D01*
X11626548Y-14293928D02*
X11636071Y-14303452D01*
X11626548Y-14312976D01*
X11617024Y-14303452D01*
X11626548Y-14293928D01*
X11626548Y-14312976D01*
X11626548Y-14189167D02*
X11636071Y-14198690D01*
X11626548Y-14208214D01*
X11617024Y-14198690D01*
X11626548Y-14189167D01*
X11626548Y-14208214D01*
M02*
