%TF.GenerationSoftware,KiCad,Pcbnew,(6.0.2)*%
%TF.CreationDate,2022-04-05T13:44:54-03:00*%
%TF.ProjectId,EM8900,454d3839-3030-42e6-9b69-6361645f7063,rev?*%
%TF.SameCoordinates,PX5f5e100PY8583b00*%
%TF.FileFunction,Legend,Bot*%
%TF.FilePolarity,Positive*%
%FSLAX46Y46*%
G04 Gerber Fmt 4.6, Leading zero omitted, Abs format (unit mm)*
G04 Created by KiCad (PCBNEW (6.0.2)) date 2022-04-05 13:44:54*
%MOMM*%
%LPD*%
G01*
G04 APERTURE LIST*
G04 Aperture macros list*
%AMRoundRect*
0 Rectangle with rounded corners*
0 $1 Rounding radius*
0 $2 $3 $4 $5 $6 $7 $8 $9 X,Y pos of 4 corners*
0 Add a 4 corners polygon primitive as box body*
4,1,4,$2,$3,$4,$5,$6,$7,$8,$9,$2,$3,0*
0 Add four circle primitives for the rounded corners*
1,1,$1+$1,$2,$3*
1,1,$1+$1,$4,$5*
1,1,$1+$1,$6,$7*
1,1,$1+$1,$8,$9*
0 Add four rect primitives between the rounded corners*
20,1,$1+$1,$2,$3,$4,$5,0*
20,1,$1+$1,$4,$5,$6,$7,0*
20,1,$1+$1,$6,$7,$8,$9,0*
20,1,$1+$1,$8,$9,$2,$3,0*%
G04 Aperture macros list end*
%ADD10C,0.200000*%
%ADD11RoundRect,0.750000X-0.750000X0.750000X-0.750000X-0.750000X0.750000X-0.750000X0.750000X0.750000X0*%
%ADD12RoundRect,0.425000X-1.075000X-0.425000X1.075000X-0.425000X1.075000X0.425000X-1.075000X0.425000X0*%
%ADD13RoundRect,0.750000X0.750000X-0.750000X0.750000X0.750000X-0.750000X0.750000X-0.750000X-0.750000X0*%
%ADD14RoundRect,0.750000X0.750000X0.750000X-0.750000X0.750000X-0.750000X-0.750000X0.750000X-0.750000X0*%
%ADD15C,5.000000*%
G04 APERTURE END LIST*
D10*
X31664285Y32797715D02*
X31264285Y32797715D01*
X31092857Y32169143D02*
X31664285Y32169143D01*
X31664285Y33369143D01*
X31092857Y33369143D01*
X30578571Y32969143D02*
X30578571Y32169143D01*
X30578571Y32854858D02*
X30521428Y32912000D01*
X30407142Y32969143D01*
X30235714Y32969143D01*
X30121428Y32912000D01*
X30064285Y32797715D01*
X30064285Y32169143D01*
X29035714Y32226286D02*
X29150000Y32169143D01*
X29378571Y32169143D01*
X29492857Y32226286D01*
X29550000Y32340572D01*
X29550000Y32797715D01*
X29492857Y32912000D01*
X29378571Y32969143D01*
X29150000Y32969143D01*
X29035714Y32912000D01*
X28978571Y32797715D01*
X28978571Y32683429D01*
X29550000Y32569143D01*
X28464285Y32169143D02*
X28464285Y32969143D01*
X28464285Y32740572D02*
X28407142Y32854858D01*
X28350000Y32912000D01*
X28235714Y32969143D01*
X28121428Y32969143D01*
X27207142Y32969143D02*
X27207142Y31997715D01*
X27264285Y31883429D01*
X27321428Y31826286D01*
X27435714Y31769143D01*
X27607142Y31769143D01*
X27721428Y31826286D01*
X27207142Y32226286D02*
X27321428Y32169143D01*
X27550000Y32169143D01*
X27664285Y32226286D01*
X27721428Y32283429D01*
X27778571Y32397715D01*
X27778571Y32740572D01*
X27721428Y32854858D01*
X27664285Y32912000D01*
X27550000Y32969143D01*
X27321428Y32969143D01*
X27207142Y32912000D01*
X26750000Y32969143D02*
X26464285Y32169143D01*
X26178571Y32969143D02*
X26464285Y32169143D01*
X26578571Y31883429D01*
X26635714Y31826286D01*
X26750000Y31769143D01*
X24807142Y32169143D02*
X24807142Y33369143D01*
X24807142Y32797715D02*
X24121428Y32797715D01*
X24121428Y32169143D02*
X24121428Y33369143D01*
X23035714Y32169143D02*
X23035714Y32797715D01*
X23092857Y32912000D01*
X23207142Y32969143D01*
X23435714Y32969143D01*
X23550000Y32912000D01*
X23035714Y32226286D02*
X23150000Y32169143D01*
X23435714Y32169143D01*
X23550000Y32226286D01*
X23607142Y32340572D01*
X23607142Y32454858D01*
X23550000Y32569143D01*
X23435714Y32626286D01*
X23150000Y32626286D01*
X23035714Y32683429D01*
X22464285Y32169143D02*
X22464285Y32969143D01*
X22464285Y32740572D02*
X22407142Y32854858D01*
X22350000Y32912000D01*
X22235714Y32969143D01*
X22121428Y32969143D01*
X21835714Y32969143D02*
X21550000Y32169143D01*
X21264285Y32969143D01*
X20350000Y32226286D02*
X20464285Y32169143D01*
X20692857Y32169143D01*
X20807142Y32226286D01*
X20864285Y32340572D01*
X20864285Y32797715D01*
X20807142Y32912000D01*
X20692857Y32969143D01*
X20464285Y32969143D01*
X20350000Y32912000D01*
X20292857Y32797715D01*
X20292857Y32683429D01*
X20864285Y32569143D01*
X19835714Y32226286D02*
X19721428Y32169143D01*
X19492857Y32169143D01*
X19378571Y32226286D01*
X19321428Y32340572D01*
X19321428Y32397715D01*
X19378571Y32512000D01*
X19492857Y32569143D01*
X19664285Y32569143D01*
X19778571Y32626286D01*
X19835714Y32740572D01*
X19835714Y32797715D01*
X19778571Y32912000D01*
X19664285Y32969143D01*
X19492857Y32969143D01*
X19378571Y32912000D01*
X18978571Y32969143D02*
X18521428Y32969143D01*
X18807142Y33369143D02*
X18807142Y32340572D01*
X18750000Y32226286D01*
X18635714Y32169143D01*
X18521428Y32169143D01*
X18121428Y32169143D02*
X18121428Y32969143D01*
X18121428Y33369143D02*
X18178571Y33312000D01*
X18121428Y33254858D01*
X18064285Y33312000D01*
X18121428Y33369143D01*
X18121428Y33254858D01*
X17550000Y32969143D02*
X17550000Y32169143D01*
X17550000Y32854858D02*
X17492857Y32912000D01*
X17378571Y32969143D01*
X17207142Y32969143D01*
X17092857Y32912000D01*
X17035714Y32797715D01*
X17035714Y32169143D01*
X15950000Y32969143D02*
X15950000Y31997715D01*
X16007142Y31883429D01*
X16064285Y31826286D01*
X16178571Y31769143D01*
X16350000Y31769143D01*
X16464285Y31826286D01*
X15950000Y32226286D02*
X16064285Y32169143D01*
X16292857Y32169143D01*
X16407142Y32226286D01*
X16464285Y32283429D01*
X16521428Y32397715D01*
X16521428Y32740572D01*
X16464285Y32854858D01*
X16407142Y32912000D01*
X16292857Y32969143D01*
X16064285Y32969143D01*
X15950000Y32912000D01*
X31664285Y30865715D02*
X31264285Y30865715D01*
X31092857Y30237143D02*
X31664285Y30237143D01*
X31664285Y31437143D01*
X31092857Y31437143D01*
X30578571Y30237143D02*
X30578571Y31437143D01*
X30178571Y30580000D01*
X29778571Y31437143D01*
X29778571Y30237143D01*
X29035714Y30922858D02*
X29150000Y30980000D01*
X29207142Y31037143D01*
X29264285Y31151429D01*
X29264285Y31208572D01*
X29207142Y31322858D01*
X29150000Y31380000D01*
X29035714Y31437143D01*
X28807142Y31437143D01*
X28692857Y31380000D01*
X28635714Y31322858D01*
X28578571Y31208572D01*
X28578571Y31151429D01*
X28635714Y31037143D01*
X28692857Y30980000D01*
X28807142Y30922858D01*
X29035714Y30922858D01*
X29150000Y30865715D01*
X29207142Y30808572D01*
X29264285Y30694286D01*
X29264285Y30465715D01*
X29207142Y30351429D01*
X29150000Y30294286D01*
X29035714Y30237143D01*
X28807142Y30237143D01*
X28692857Y30294286D01*
X28635714Y30351429D01*
X28578571Y30465715D01*
X28578571Y30694286D01*
X28635714Y30808572D01*
X28692857Y30865715D01*
X28807142Y30922858D01*
X28007142Y30237143D02*
X27778571Y30237143D01*
X27664285Y30294286D01*
X27607142Y30351429D01*
X27492857Y30522858D01*
X27435714Y30751429D01*
X27435714Y31208572D01*
X27492857Y31322858D01*
X27550000Y31380000D01*
X27664285Y31437143D01*
X27892857Y31437143D01*
X28007142Y31380000D01*
X28064285Y31322858D01*
X28121428Y31208572D01*
X28121428Y30922858D01*
X28064285Y30808572D01*
X28007142Y30751429D01*
X27892857Y30694286D01*
X27664285Y30694286D01*
X27550000Y30751429D01*
X27492857Y30808572D01*
X27435714Y30922858D01*
X26692857Y31437143D02*
X26578571Y31437143D01*
X26464285Y31380000D01*
X26407142Y31322858D01*
X26350000Y31208572D01*
X26292857Y30980000D01*
X26292857Y30694286D01*
X26350000Y30465715D01*
X26407142Y30351429D01*
X26464285Y30294286D01*
X26578571Y30237143D01*
X26692857Y30237143D01*
X26807142Y30294286D01*
X26864285Y30351429D01*
X26921428Y30465715D01*
X26978571Y30694286D01*
X26978571Y30980000D01*
X26921428Y31208572D01*
X26864285Y31322858D01*
X26807142Y31380000D01*
X26692857Y31437143D01*
X25550000Y31437143D02*
X25435714Y31437143D01*
X25321428Y31380000D01*
X25264285Y31322858D01*
X25207142Y31208572D01*
X25150000Y30980000D01*
X25150000Y30694286D01*
X25207142Y30465715D01*
X25264285Y30351429D01*
X25321428Y30294286D01*
X25435714Y30237143D01*
X25550000Y30237143D01*
X25664285Y30294286D01*
X25721428Y30351429D01*
X25778571Y30465715D01*
X25835714Y30694286D01*
X25835714Y30980000D01*
X25778571Y31208572D01*
X25721428Y31322858D01*
X25664285Y31380000D01*
X25550000Y31437143D01*
X31835714Y29505143D02*
X31150000Y29505143D01*
X31492857Y28305143D02*
X31492857Y29505143D01*
X30750000Y28933715D02*
X30350000Y28933715D01*
X30178571Y28305143D02*
X30750000Y28305143D01*
X30750000Y29505143D01*
X30178571Y29505143D01*
X29035714Y29448000D02*
X29150000Y29505143D01*
X29321428Y29505143D01*
X29492857Y29448000D01*
X29607142Y29333715D01*
X29664285Y29219429D01*
X29721428Y28990858D01*
X29721428Y28819429D01*
X29664285Y28590858D01*
X29607142Y28476572D01*
X29492857Y28362286D01*
X29321428Y28305143D01*
X29207142Y28305143D01*
X29035714Y28362286D01*
X28978571Y28419429D01*
X28978571Y28819429D01*
X29207142Y28819429D01*
%LPC*%
D11*
X6426000Y22525000D03*
X6426000Y17525000D03*
D12*
X14808000Y21255000D03*
X14808000Y18715000D03*
X25476000Y21255000D03*
X25476000Y18715000D03*
D13*
X33604000Y17445000D03*
X33604000Y22445000D03*
D14*
X22428000Y9825000D03*
X17428000Y9825000D03*
D15*
X3048000Y3048000D03*
X37084000Y37084000D03*
X3048000Y37084000D03*
X37084000Y3048000D03*
M02*
