%TF.GenerationSoftware,KiCad,Pcbnew,(6.0.2)*%
%TF.CreationDate,2022-04-05T13:44:54-03:00*%
%TF.ProjectId,EM8900,454d3839-3030-42e6-9b69-6361645f7063,rev?*%
%TF.SameCoordinates,PX5f5e100PY8583b00*%
%TF.FileFunction,Copper,L2,Bot*%
%TF.FilePolarity,Positive*%
%FSLAX46Y46*%
G04 Gerber Fmt 4.6, Leading zero omitted, Abs format (unit mm)*
G04 Created by KiCad (PCBNEW (6.0.2)) date 2022-04-05 13:44:54*
%MOMM*%
%LPD*%
G01*
G04 APERTURE LIST*
G04 Aperture macros list*
%AMRoundRect*
4,1,4,2,3,4,5,6,7,8,9,2,3,0*
1,1,$1,$2,$3*
1,1,$1,$2,$3*
1,1,$1,$2,$3*
1,1,$1,$2,$3*
20,1,$1,$2,$3,$4,$5,0*
20,1,$1,$2,$3,$4,$5,0*
20,1,$1,$2,$3,$4,$5,0*
20,1,$1,$2,$3,$4,$5,0*%
G04 Aperture macros list end*
%TA.AperFunction,ComponentPad*%
%AMCOMP1*
4,1,3,
-0.75,0.75,
-0.75,-0.75,
0.75,-0.75,
0.75,0.75,
0*
4,1,19,
-0.75,1.5,
-0.51823725421878941,1.4632923872213652,
-0.30916106078064515,1.3567627457812106,
-0.14323725421878941,1.1908389392193548,
-0.036707612778634879,0.98176274578121059,
0,0.75,
-0.036707612778634768,0.51823725421878952,
-0.14323725421878941,0.3091610607806452,
-0.30916106078064509,0.14323725421878952,
-0.51823725421878941,0.036707612778634879,
-0.74999999999999989,0,
-0.98176274578121081,0.036707612778634879,
-1.1908389392193548,0.1432372542187893,
-1.3567627457812104,0.30916106078064509,
-1.4632923872213652,0.5182372542187893,
-1.5,0.74999999999999989,
-1.4632923872213652,0.98176274578121037,
-1.3567627457812108,1.1908389392193546,
-1.190838939219355,1.3567627457812104,
-0.9817627457812107,1.4632923872213652,
0*
4,1,19,
-0.75,0,
-0.51823725421878941,-0.036707612778634879,
-0.30916106078064515,-0.14323725421878941,
-0.14323725421878941,-0.30916106078064515,
-0.036707612778634879,-0.51823725421878941,
0,-0.75,
-0.036707612778634768,-0.98176274578121048,
-0.14323725421878941,-1.1908389392193548,
-0.30916106078064509,-1.3567627457812104,
-0.51823725421878941,-1.4632923872213652,
-0.74999999999999989,-1.5,
-0.98176274578121081,-1.4632923872213652,
-1.1908389392193548,-1.3567627457812108,
-1.3567627457812104,-1.190838939219355,
-1.4632923872213652,-0.9817627457812107,
-1.5,-0.75000000000000011,
-1.4632923872213652,-0.51823725421878963,
-1.3567627457812108,-0.30916106078064531,
-1.190838939219355,-0.14323725421878952,
-0.9817627457812107,-0.036707612778634879,
0*
4,1,19,
0.75,0,
0.98176274578121059,-0.036707612778634879,
1.1908389392193548,-0.14323725421878941,
1.3567627457812106,-0.30916106078064515,
1.4632923872213652,-0.51823725421878941,
1.5,-0.75,
1.4632923872213652,-0.98176274578121048,
1.3567627457812106,-1.1908389392193548,
1.190838939219355,-1.3567627457812104,
0.98176274578121059,-1.4632923872213652,
0.75000000000000011,-1.5,
0.51823725421878919,-1.4632923872213652,
0.3091610607806452,-1.3567627457812108,
0.14323725421878952,-1.190838939219355,
0.036707612778634879,-0.9817627457812107,
0,-0.75000000000000011,
0.036707612778634768,-0.51823725421878963,
0.1432372542187893,-0.30916106078064531,
0.309161060780645,-0.14323725421878952,
0.5182372542187893,-0.036707612778634879,
0*
4,1,19,
0.75,1.5,
0.98176274578121059,1.4632923872213652,
1.1908389392193548,1.3567627457812106,
1.3567627457812106,1.1908389392193548,
1.4632923872213652,0.98176274578121059,
1.5,0.75,
1.4632923872213652,0.51823725421878952,
1.3567627457812106,0.3091610607806452,
1.190838939219355,0.14323725421878952,
0.98176274578121059,0.036707612778634879,
0.75000000000000011,0,
0.51823725421878919,0.036707612778634879,
0.3091610607806452,0.1432372542187893,
0.14323725421878952,0.30916106078064509,
0.036707612778634879,0.5182372542187893,
0,0.74999999999999989,
0.036707612778634768,0.98176274578121037,
0.1432372542187893,1.1908389392193546,
0.309161060780645,1.3567627457812104,
0.5182372542187893,1.4632923872213652,
0*
4,1,3,
-1.5,0.75,
0,0.75,
0,-0.75,
-1.5,-0.75,
0*
4,1,3,
-0.75,-1.5,
-0.75,0,
0.75,0,
0.75,-1.5,
0*
4,1,3,
1.5,-0.75,
0,-0.75,
0,0.75,
1.5,0.75,
0*
4,1,3,
0.75,1.5,
0.75,0,
-0.75,0,
-0.75,1.5,
0*%
%ADD10COMP1,0.75X-0.75X0.75X-0.75X-0.75X0.75X-0.75X0.75X0.75X0*%
%TD*%
%TA.AperFunction,ComponentPad*%
%AMCOMP2*
4,1,3,
-1.075,-0.425,
1.075,-0.425,
1.075,0.425,
-1.075,0.425,
0*
4,1,19,
-1.075,0,
-0.94366777739064733,-0.020800980574559758,
-0.82519126777569884,-0.081167777390647344,
-0.73116777739064731,-0.17519126777569891,
-0.67080098057455972,-0.29366777739064731,
-0.64999999999999991,-0.425,
-0.67080098057455961,-0.55633222260935256,
-0.73116777739064731,-0.674808732224301,
-0.82519126777569884,-0.76883222260935258,
-0.94366777739064722,-0.82919901942544016,
-1.075,-0.85,
-1.2063322226093527,-0.82919901942544016,
-1.324808732224301,-0.76883222260935269,
-1.4188322226093526,-0.674808732224301,
-1.4791990194254403,-0.55633222260935267,
-1.5,-0.42500000000000004,
-1.4791990194254403,-0.29366777739064742,
-1.4188322226093526,-0.17519126777569902,
-1.3248087322243012,-0.0811677773906474,
-1.2063322226093527,-0.020800980574559758,
0*
4,1,19,
1.075,0,
1.2063322226093527,-0.020800980574559758,
1.324808732224301,-0.081167777390647344,
1.4188322226093526,-0.17519126777569891,
1.4791990194254403,-0.29366777739064731,
1.5,-0.425,
1.4791990194254403,-0.55633222260935256,
1.4188322226093526,-0.674808732224301,
1.3248087322243012,-0.76883222260935258,
1.2063322226093527,-0.82919901942544016,
1.075,-0.85,
0.94366777739064722,-0.82919901942544016,
0.825191267775699,-0.76883222260935269,
0.73116777739064731,-0.674808732224301,
0.67080098057455972,-0.55633222260935267,
0.64999999999999991,-0.42500000000000004,
0.67080098057455961,-0.29366777739064742,
0.73116777739064731,-0.17519126777569902,
0.82519126777569873,-0.0811677773906474,
0.94366777739064722,-0.020800980574559758,
0*
4,1,19,
1.075,0.85,
1.2063322226093527,0.82919901942544016,
1.324808732224301,0.76883222260935269,
1.4188322226093526,0.674808732224301,
1.4791990194254403,0.55633222260935267,
1.5,0.425,
1.4791990194254403,0.29366777739064737,
1.4188322226093526,0.17519126777569896,
1.3248087322243012,0.0811677773906474,
1.2063322226093527,0.020800980574559758,
1.075,0,
0.94366777739064722,0.020800980574559758,
0.825191267775699,0.081167777390647289,
0.73116777739064731,0.17519126777569888,
0.67080098057455972,0.29366777739064731,
0.64999999999999991,0.42499999999999993,
0.67080098057455961,0.55633222260935256,
0.73116777739064731,0.67480873222430093,
0.82519126777569873,0.76883222260935258,
0.94366777739064722,0.82919901942544016,
0*
4,1,19,
-1.075,0.85,
-0.94366777739064733,0.82919901942544016,
-0.82519126777569884,0.76883222260935269,
-0.73116777739064731,0.674808732224301,
-0.67080098057455972,0.55633222260935267,
-0.64999999999999991,0.425,
-0.67080098057455961,0.29366777739064737,
-0.73116777739064731,0.17519126777569896,
-0.82519126777569884,0.0811677773906474,
-0.94366777739064722,0.020800980574559758,
-1.075,0,
-1.2063322226093527,0.020800980574559758,
-1.324808732224301,0.081167777390647289,
-1.4188322226093526,0.17519126777569888,
-1.4791990194254403,0.29366777739064731,
-1.5,0.42499999999999993,
-1.4791990194254403,0.55633222260935256,
-1.4188322226093526,0.67480873222430093,
-1.3248087322243012,0.76883222260935258,
-1.2063322226093527,0.82919901942544016,
0*
4,1,3,
-1.075,-0.85,
-1.075,0,
1.075,0,
1.075,-0.85,
0*
4,1,3,
1.5,-0.425,
0.64999999999999991,-0.425,
0.64999999999999991,0.425,
1.5,0.425,
0*
4,1,3,
1.075,0.85,
1.075,0,
-1.075,0,
-1.075,0.85,
0*
4,1,3,
-1.5,0.425,
-0.64999999999999991,0.425,
-0.64999999999999991,-0.425,
-1.5,-0.425,
0*%
%ADD11COMP2,0.425X-1.075X-0.425X1.075X-0.425X1.075X0.425X-1.075X0.425X0*%
%TD*%
%TA.AperFunction,ComponentPad*%
%AMCOMP3*
4,1,3,
0.75,-0.75,
0.75,0.75,
-0.75,0.75,
-0.75,-0.75,
0*
4,1,19,
0.75,0,
0.98176274578121059,-0.036707612778634879,
1.1908389392193548,-0.14323725421878941,
1.3567627457812106,-0.30916106078064515,
1.4632923872213652,-0.51823725421878941,
1.5,-0.75,
1.4632923872213652,-0.98176274578121048,
1.3567627457812106,-1.1908389392193548,
1.190838939219355,-1.3567627457812104,
0.98176274578121059,-1.4632923872213652,
0.75000000000000011,-1.5,
0.51823725421878919,-1.4632923872213652,
0.3091610607806452,-1.3567627457812108,
0.14323725421878952,-1.190838939219355,
0.036707612778634879,-0.9817627457812107,
0,-0.75000000000000011,
0.036707612778634768,-0.51823725421878963,
0.1432372542187893,-0.30916106078064531,
0.309161060780645,-0.14323725421878952,
0.5182372542187893,-0.036707612778634879,
0*
4,1,19,
0.75,1.5,
0.98176274578121059,1.4632923872213652,
1.1908389392193548,1.3567627457812106,
1.3567627457812106,1.1908389392193548,
1.4632923872213652,0.98176274578121059,
1.5,0.75,
1.4632923872213652,0.51823725421878952,
1.3567627457812106,0.3091610607806452,
1.190838939219355,0.14323725421878952,
0.98176274578121059,0.036707612778634879,
0.75000000000000011,0,
0.51823725421878919,0.036707612778634879,
0.3091610607806452,0.1432372542187893,
0.14323725421878952,0.30916106078064509,
0.036707612778634879,0.5182372542187893,
0,0.74999999999999989,
0.036707612778634768,0.98176274578121037,
0.1432372542187893,1.1908389392193546,
0.309161060780645,1.3567627457812104,
0.5182372542187893,1.4632923872213652,
0*
4,1,19,
-0.75,1.5,
-0.51823725421878941,1.4632923872213652,
-0.30916106078064515,1.3567627457812106,
-0.14323725421878941,1.1908389392193548,
-0.036707612778634879,0.98176274578121059,
0,0.75,
-0.036707612778634768,0.51823725421878952,
-0.14323725421878941,0.3091610607806452,
-0.30916106078064509,0.14323725421878952,
-0.51823725421878941,0.036707612778634879,
-0.74999999999999989,0,
-0.98176274578121081,0.036707612778634879,
-1.1908389392193548,0.1432372542187893,
-1.3567627457812104,0.30916106078064509,
-1.4632923872213652,0.5182372542187893,
-1.5,0.74999999999999989,
-1.4632923872213652,0.98176274578121037,
-1.3567627457812108,1.1908389392193546,
-1.190838939219355,1.3567627457812104,
-0.9817627457812107,1.4632923872213652,
0*
4,1,19,
-0.75,0,
-0.51823725421878941,-0.036707612778634879,
-0.30916106078064515,-0.14323725421878941,
-0.14323725421878941,-0.30916106078064515,
-0.036707612778634879,-0.51823725421878941,
0,-0.75,
-0.036707612778634768,-0.98176274578121048,
-0.14323725421878941,-1.1908389392193548,
-0.30916106078064509,-1.3567627457812104,
-0.51823725421878941,-1.4632923872213652,
-0.74999999999999989,-1.5,
-0.98176274578121081,-1.4632923872213652,
-1.1908389392193548,-1.3567627457812108,
-1.3567627457812104,-1.190838939219355,
-1.4632923872213652,-0.9817627457812107,
-1.5,-0.75000000000000011,
-1.4632923872213652,-0.51823725421878963,
-1.3567627457812108,-0.30916106078064531,
-1.190838939219355,-0.14323725421878952,
-0.9817627457812107,-0.036707612778634879,
0*
4,1,3,
1.5,-0.75,
0,-0.75,
0,0.75,
1.5,0.75,
0*
4,1,3,
0.75,1.5,
0.75,0,
-0.75,0,
-0.75,1.5,
0*
4,1,3,
-1.5,0.75,
0,0.75,
0,-0.75,
-1.5,-0.75,
0*
4,1,3,
-0.75,-1.5,
-0.75,0,
0.75,0,
0.75,-1.5,
0*%
%ADD12COMP3,0.75X0.75X-0.75X0.75X0.75X-0.75X0.75X-0.75X-0.75X0*%
%TD*%
%TA.AperFunction,ComponentPad*%
%AMCOMP4*
4,1,3,
0.75,0.75,
-0.75,0.75,
-0.75,-0.75,
0.75,-0.75,
0*
4,1,19,
0.75,1.5,
0.98176274578121059,1.4632923872213652,
1.1908389392193548,1.3567627457812106,
1.3567627457812106,1.1908389392193548,
1.4632923872213652,0.98176274578121059,
1.5,0.75,
1.4632923872213652,0.51823725421878952,
1.3567627457812106,0.3091610607806452,
1.190838939219355,0.14323725421878952,
0.98176274578121059,0.036707612778634879,
0.75000000000000011,0,
0.51823725421878919,0.036707612778634879,
0.3091610607806452,0.1432372542187893,
0.14323725421878952,0.30916106078064509,
0.036707612778634879,0.5182372542187893,
0,0.74999999999999989,
0.036707612778634768,0.98176274578121037,
0.1432372542187893,1.1908389392193546,
0.309161060780645,1.3567627457812104,
0.5182372542187893,1.4632923872213652,
0*
4,1,19,
-0.75,1.5,
-0.51823725421878941,1.4632923872213652,
-0.30916106078064515,1.3567627457812106,
-0.14323725421878941,1.1908389392193548,
-0.036707612778634879,0.98176274578121059,
0,0.75,
-0.036707612778634768,0.51823725421878952,
-0.14323725421878941,0.3091610607806452,
-0.30916106078064509,0.14323725421878952,
-0.51823725421878941,0.036707612778634879,
-0.74999999999999989,0,
-0.98176274578121081,0.036707612778634879,
-1.1908389392193548,0.1432372542187893,
-1.3567627457812104,0.30916106078064509,
-1.4632923872213652,0.5182372542187893,
-1.5,0.74999999999999989,
-1.4632923872213652,0.98176274578121037,
-1.3567627457812108,1.1908389392193546,
-1.190838939219355,1.3567627457812104,
-0.9817627457812107,1.4632923872213652,
0*
4,1,19,
-0.75,0,
-0.51823725421878941,-0.036707612778634879,
-0.30916106078064515,-0.14323725421878941,
-0.14323725421878941,-0.30916106078064515,
-0.036707612778634879,-0.51823725421878941,
0,-0.75,
-0.036707612778634768,-0.98176274578121048,
-0.14323725421878941,-1.1908389392193548,
-0.30916106078064509,-1.3567627457812104,
-0.51823725421878941,-1.4632923872213652,
-0.74999999999999989,-1.5,
-0.98176274578121081,-1.4632923872213652,
-1.1908389392193548,-1.3567627457812108,
-1.3567627457812104,-1.190838939219355,
-1.4632923872213652,-0.9817627457812107,
-1.5,-0.75000000000000011,
-1.4632923872213652,-0.51823725421878963,
-1.3567627457812108,-0.30916106078064531,
-1.190838939219355,-0.14323725421878952,
-0.9817627457812107,-0.036707612778634879,
0*
4,1,19,
0.75,0,
0.98176274578121059,-0.036707612778634879,
1.1908389392193548,-0.14323725421878941,
1.3567627457812106,-0.30916106078064515,
1.4632923872213652,-0.51823725421878941,
1.5,-0.75,
1.4632923872213652,-0.98176274578121048,
1.3567627457812106,-1.1908389392193548,
1.190838939219355,-1.3567627457812104,
0.98176274578121059,-1.4632923872213652,
0.75000000000000011,-1.5,
0.51823725421878919,-1.4632923872213652,
0.3091610607806452,-1.3567627457812108,
0.14323725421878952,-1.190838939219355,
0.036707612778634879,-0.9817627457812107,
0,-0.75000000000000011,
0.036707612778634768,-0.51823725421878963,
0.1432372542187893,-0.30916106078064531,
0.309161060780645,-0.14323725421878952,
0.5182372542187893,-0.036707612778634879,
0*
4,1,3,
0.75,1.5,
0.75,0,
-0.75,0,
-0.75,1.5,
0*
4,1,3,
-1.5,0.75,
0,0.75,
0,-0.75,
-1.5,-0.75,
0*
4,1,3,
-0.75,-1.5,
-0.75,0,
0.75,0,
0.75,-1.5,
0*
4,1,3,
1.5,-0.75,
0,-0.75,
0,0.75,
1.5,0.75,
0*%
%ADD13COMP4,0.75X0.75X0.75X-0.75X0.75X-0.75X-0.75X0.75X-0.75X0*%
%TD*%
%TA.AperFunction,ComponentPad*%
%ADD14C,5*%
%TD*%
G04 APERTURE END LIST*
D10*
X0000000000Y0000000000D02*
X0006426000Y0022525000D03*
X0006426000Y0017525000D03*
D11*
X0014808000Y0021255000D03*
X0014808000Y0018715000D03*
X0025476000Y0021255000D03*
X0025476000Y0018715000D03*
D12*
X0033604000Y0017445000D03*
X0033604000Y0022445000D03*
D13*
X0022428000Y0009825000D03*
X0017428000Y0009825000D03*
D14*
X0003048000Y0003048000D03*
X0037084000Y0037084000D03*
X0003048000Y0037084000D03*
X0037084000Y0003048000D03*
%TA.AperFunction,Conductor*%
G36*
X0035000381Y0039471998D02*
G01*
X0035046874Y0039418342D01*
X0035056978Y0039348068D01*
X0035027484Y0039283488D01*
X0035021822Y0039277373D01*
X0034823466Y0039076929D01*
X0034821225Y0039074071D01*
X0034764732Y0039002022D01*
X0034609386Y0038803902D01*
X0034607493Y0038800813D01*
X0034607491Y0038800810D01*
X0034561233Y0038725324D01*
X0034428105Y0038508079D01*
X0034426580Y0038504794D01*
X0034426578Y0038504790D01*
X0034387505Y0038420614D01*
X0034282027Y0038193380D01*
X0034173087Y0037863977D01*
X0034102730Y0037524236D01*
X0034071888Y0037178659D01*
X0034071983Y0037175029D01*
X0034071983Y0037175028D01*
X0034074367Y0037084000D01*
X0034080970Y0036831829D01*
X0034129856Y0036488340D01*
X0034217897Y0036152747D01*
X0034343927Y0035829497D01*
X0034345624Y0035826292D01*
X0034479113Y0035574175D01*
X0034506275Y0035522874D01*
X0034508325Y0035519891D01*
X0034508327Y0035519888D01*
X0034700733Y0035239936D01*
X0034700739Y0035239929D01*
X0034702790Y0035236944D01*
X0034705178Y0035234207D01*
X0034908597Y0035001023D01*
X0034930866Y0034975495D01*
X0034933551Y0034973052D01*
X0035143268Y0034782225D01*
X0035187481Y0034741994D01*
X0035469233Y0034539534D01*
X0035772388Y0034370800D01*
X0036092928Y0034238028D01*
X0036096422Y0034237033D01*
X0036096424Y0034237032D01*
X0036423103Y0034143975D01*
X0036423108Y0034143974D01*
X0036426604Y0034142978D01*
X0036623304Y0034110767D01*
X0036765412Y0034087496D01*
X0036765419Y0034087495D01*
X0036768993Y0034086910D01*
X0036942275Y0034078738D01*
X0037111931Y0034070737D01*
X0037111932Y0034070737D01*
X0037115558Y0034070566D01*
X0037124415Y0034071170D01*
X0037458073Y0034093916D01*
X0037458081Y0034093917D01*
X0037461704Y0034094164D01*
X0037465279Y0034094827D01*
X0037465282Y0034094827D01*
X0037799279Y0034156730D01*
X0037799283Y0034156731D01*
X0037802844Y0034157391D01*
X0038134456Y0034259408D01*
X0038452145Y0034398864D01*
X0038696511Y0034541659D01*
X0038748560Y0034572074D01*
X0038748562Y0034572075D01*
X0038751700Y0034573909D01*
X0038754609Y0034576093D01*
X0039026244Y0034780042D01*
X0039026248Y0034780045D01*
X0039029151Y0034782225D01*
X0039259715Y0035001023D01*
X0039279267Y0035019577D01*
X0039342449Y0035051959D01*
X0039413108Y0035045043D01*
X0039468810Y0035001023D01*
X0039492000Y0034928180D01*
X0039492000Y0005197102D01*
X0039471998Y0005128981D01*
X0039418342Y0005082488D01*
X0039348068Y0005072384D01*
X0039283488Y0005101878D01*
X0039273712Y0005111319D01*
X0039169842Y0005223096D01*
X0038906019Y0005448422D01*
X0038618047Y0005641931D01*
X0038309741Y0005801060D01*
X0037985189Y0005923698D01*
X0037981668Y0005924582D01*
X0037981663Y0005924584D01*
X0037820378Y0005965096D01*
X0037648692Y0006008220D01*
X0037626476Y0006011145D01*
X0037308315Y0006053032D01*
X0037308307Y0006053033D01*
X0037304711Y0006053506D01*
X0037160045Y0006055779D01*
X0036961446Y0006058899D01*
X0036961442Y0006058899D01*
X0036957804Y0006058956D01*
X0036954190Y0006058595D01*
X0036954184Y0006058595D01*
X0036710843Y0006034306D01*
X0036612569Y0006024497D01*
X0036273583Y0005950586D01*
X0036270156Y0005949413D01*
X0036270150Y0005949411D01*
X0036191296Y0005922413D01*
X0035945339Y0005838203D01*
X0035632188Y0005688837D01*
X0035338279Y0005504468D01*
X0035335443Y0005502196D01*
X0035335436Y0005502191D01*
X0035091384Y0005306668D01*
X0035067509Y0005287541D01*
X0034823466Y0005040929D01*
X0034821225Y0005038071D01*
X0034764732Y0004966022D01*
X0034609386Y0004767902D01*
X0034607493Y0004764813D01*
X0034607491Y0004764810D01*
X0034561233Y0004689324D01*
X0034428105Y0004472079D01*
X0034426580Y0004468794D01*
X0034426578Y0004468790D01*
X0034387505Y0004384614D01*
X0034282027Y0004157380D01*
X0034173087Y0003827977D01*
X0034102730Y0003488236D01*
X0034071888Y0003142659D01*
X0034071983Y0003139029D01*
X0034071983Y0003139028D01*
X0034074367Y0003048000D01*
X0034080970Y0002795829D01*
X0034129856Y0002452340D01*
X0034217897Y0002116747D01*
X0034343927Y0001793497D01*
X0034345624Y0001790292D01*
X0034479113Y0001538175D01*
X0034506275Y0001486874D01*
X0034508325Y0001483891D01*
X0034508327Y0001483888D01*
X0034700733Y0001203936D01*
X0034700739Y0001203929D01*
X0034702790Y0001200944D01*
X0034705178Y0001198207D01*
X0034908597Y0000965023D01*
X0034930866Y0000939495D01*
X0035164184Y0000727193D01*
X0035201105Y0000666553D01*
X0035199382Y0000595578D01*
X0035159560Y0000536801D01*
X0035094282Y0000508884D01*
X0035079383Y0000508000D01*
X0005053534Y0000508000D01*
X0004985413Y0000528002D01*
X0004938920Y0000581658D01*
X0004928816Y0000651932D01*
X0004958310Y0000716512D01*
X0004977881Y0000734760D01*
X0004990244Y0000744042D01*
X0004990248Y0000744045D01*
X0004993151Y0000746225D01*
X0005244819Y0000985050D01*
X0005467370Y0001251217D01*
X0005657853Y0001541201D01*
X0005786446Y0001796879D01*
X0005812117Y0001847920D01*
X0005812120Y0001847928D01*
X0005813744Y0001851156D01*
X0005932977Y0002176974D01*
X0005933822Y0002180496D01*
X0005933825Y0002180504D01*
X0006013124Y0002510809D01*
X0006013125Y0002510813D01*
X0006013971Y0002514338D01*
X0006048035Y0002795829D01*
X0006055316Y0002855996D01*
X0006055316Y0002856003D01*
X0006055652Y0002858775D01*
X0006061599Y0003048000D01*
X0006061438Y0003050796D01*
X0006041836Y0003390754D01*
X0006041835Y0003390759D01*
X0006041627Y0003394374D01*
X0005981976Y0003736158D01*
X0005883437Y0004068819D01*
X0005747316Y0004387952D01*
X0005697569Y0004475169D01*
X0005577208Y0004686184D01*
X0005575417Y0004689324D01*
X0005370018Y0004968940D01*
X0005133842Y0005223096D01*
X0004870019Y0005448422D01*
X0004582047Y0005641931D01*
X0004273741Y0005801060D01*
X0003949189Y0005923698D01*
X0003945668Y0005924582D01*
X0003945663Y0005924584D01*
X0003784378Y0005965096D01*
X0003612692Y0006008220D01*
X0003590476Y0006011145D01*
X0003272315Y0006053032D01*
X0003272307Y0006053033D01*
X0003268711Y0006053506D01*
X0003124045Y0006055779D01*
X0002925446Y0006058899D01*
X0002925442Y0006058899D01*
X0002921804Y0006058956D01*
X0002918190Y0006058595D01*
X0002918184Y0006058595D01*
X0002674843Y0006034306D01*
X0002576569Y0006024497D01*
X0002237583Y0005950586D01*
X0002234156Y0005949413D01*
X0002234150Y0005949411D01*
X0002155296Y0005922413D01*
X0001909339Y0005838203D01*
X0001596188Y0005688837D01*
X0001302279Y0005504468D01*
X0001299443Y0005502196D01*
X0001299436Y0005502191D01*
X0001055384Y0005306668D01*
X0001031509Y0005287541D01*
X0000787466Y0005040929D01*
X0000785225Y0005038071D01*
X0000733154Y0004971662D01*
X0000675381Y0004930397D01*
X0000604470Y0004926917D01*
X0000542934Y0004962328D01*
X0000510310Y0005025385D01*
X0000508000Y0005049408D01*
X0000508000Y0009015039D01*
X0015420001Y0009015039D01*
X0015420209Y0009009929D01*
X0015431082Y0008876233D01*
X0015432852Y0008865680D01*
X0015485967Y0008658815D01*
X0015489701Y0008648269D01*
X0015578510Y0008454295D01*
X0015584046Y0008444588D01*
X0015705803Y0008269403D01*
X0015712976Y0008260823D01*
X0015863824Y0008109976D01*
X0015872403Y0008102803D01*
X0016047588Y0007981046D01*
X0016057295Y0007975510D01*
X0016251269Y0007886701D01*
X0016261814Y0007882967D01*
X0016468679Y0007829853D01*
X0016479234Y0007828082D01*
X0016612929Y0007817207D01*
X0016618036Y0007817000D01*
X0017155885Y0007817000D01*
X0017171124Y0007821475D01*
X0017172329Y0007822865D01*
X0017174000Y0007830548D01*
X0017174000Y0007835116D01*
X0017682000Y0007835116D01*
X0017686475Y0007819877D01*
X0017687865Y0007818672D01*
X0017695548Y0007817001D01*
X0018237961Y0007817001D01*
X0018243071Y0007817209D01*
X0018376767Y0007828082D01*
X0018387320Y0007829852D01*
X0018594185Y0007882967D01*
X0018604731Y0007886701D01*
X0018798705Y0007975510D01*
X0018808412Y0007981046D01*
X0018983597Y0008102803D01*
X0018992176Y0008109976D01*
X0019143024Y0008260823D01*
X0019150197Y0008269403D01*
X0019271954Y0008444588D01*
X0019277490Y0008454295D01*
X0019366299Y0008648269D01*
X0019370033Y0008658815D01*
X0019423147Y0008865679D01*
X0019424918Y0008876234D01*
X0019435793Y0009009930D01*
X0019435895Y0009012458D01*
X0020419500Y0009012458D01*
X0020431022Y0008870800D01*
X0020486890Y0008653206D01*
X0020580409Y0008448945D01*
X0020708620Y0008264473D01*
X0020867473Y0008105620D01*
X0021051945Y0007977409D01*
X0021256206Y0007883890D01*
X0021261638Y0007882495D01*
X0021261639Y0007882495D01*
X0021466673Y0007829852D01*
X0021473800Y0007828022D01*
X0021527705Y0007823638D01*
X0021612908Y0007816707D01*
X0021612918Y0007816707D01*
X0021615458Y0007816500D01*
X0023240542Y0007816500D01*
X0023243082Y0007816707D01*
X0023243092Y0007816707D01*
X0023328295Y0007823638D01*
X0023382200Y0007828022D01*
X0023389328Y0007829852D01*
X0023594361Y0007882495D01*
X0023594362Y0007882495D01*
X0023599794Y0007883890D01*
X0023804055Y0007977409D01*
X0023988527Y0008105620D01*
X0024147380Y0008264473D01*
X0024275591Y0008448945D01*
X0024369110Y0008653206D01*
X0024424978Y0008870800D01*
X0024436500Y0009012458D01*
X0024436500Y0010637542D01*
X0024424978Y0010779200D01*
X0024369110Y0010996794D01*
X0024275591Y0011201055D01*
X0024147380Y0011385527D01*
X0023988527Y0011544380D01*
X0023804055Y0011672591D01*
X0023599794Y0011766110D01*
X0023409830Y0011814884D01*
X0023387396Y0011820644D01*
X0023387395Y0011820644D01*
X0023382200Y0011821978D01*
X0023318797Y0011827135D01*
X0023243092Y0011833293D01*
X0023243082Y0011833293D01*
X0023240542Y0011833500D01*
X0021615458Y0011833500D01*
X0021612918Y0011833293D01*
X0021612908Y0011833293D01*
X0021537203Y0011827135D01*
X0021473800Y0011821978D01*
X0021468605Y0011820644D01*
X0021468604Y0011820644D01*
X0021446170Y0011814884D01*
X0021256206Y0011766110D01*
X0021051945Y0011672591D01*
X0020867473Y0011544380D01*
X0020708620Y0011385527D01*
X0020580409Y0011201055D01*
X0020486890Y0010996794D01*
X0020431022Y0010779200D01*
X0020419500Y0010637542D01*
X0020419500Y0009012458D01*
X0019435895Y0009012458D01*
X0019436000Y0009015036D01*
X0019436000Y0009552885D01*
X0019431525Y0009568124D01*
X0019430135Y0009569329D01*
X0019422452Y0009571000D01*
X0017700115Y0009571000D01*
X0017684876Y0009566525D01*
X0017683671Y0009565135D01*
X0017682000Y0009557452D01*
X0017682000Y0007835116D01*
X0017174000Y0007835116D01*
X0017174000Y0009552885D01*
X0017169525Y0009568124D01*
X0017168135Y0009569329D01*
X0017160452Y0009571000D01*
X0015438116Y0009571000D01*
X0015422877Y0009566525D01*
X0015421672Y0009565135D01*
X0015420001Y0009557452D01*
X0015420001Y0009015039D01*
X0000508000Y0009015039D01*
X0000508000Y0010097115D01*
X0015420000Y0010097115D01*
X0015424475Y0010081876D01*
X0015425865Y0010080671D01*
X0015433548Y0010079000D01*
X0017155885Y0010079000D01*
X0017171124Y0010083475D01*
X0017172329Y0010084865D01*
X0017174000Y0010092548D01*
X0017174000Y0010097115D01*
X0017682000Y0010097115D01*
X0017686475Y0010081876D01*
X0017687865Y0010080671D01*
X0017695548Y0010079000D01*
X0019417884Y0010079000D01*
X0019433123Y0010083475D01*
X0019434328Y0010084865D01*
X0019435999Y0010092548D01*
X0019435999Y0010634961D01*
X0019435791Y0010640071D01*
X0019424918Y0010773767D01*
X0019423148Y0010784320D01*
X0019370033Y0010991185D01*
X0019366299Y0011001731D01*
X0019277490Y0011195705D01*
X0019271954Y0011205412D01*
X0019150197Y0011380597D01*
X0019143024Y0011389176D01*
X0018992176Y0011540024D01*
X0018983597Y0011547197D01*
X0018808412Y0011668954D01*
X0018798705Y0011674490D01*
X0018604731Y0011763299D01*
X0018594185Y0011767033D01*
X0018387321Y0011820147D01*
X0018376766Y0011821918D01*
X0018243070Y0011832793D01*
X0018237964Y0011833000D01*
X0017700115Y0011833000D01*
X0017684876Y0011828525D01*
X0017683671Y0011827135D01*
X0017682000Y0011819452D01*
X0017682000Y0010097115D01*
X0017174000Y0010097115D01*
X0017174000Y0011814884D01*
X0017169525Y0011830123D01*
X0017168135Y0011831328D01*
X0017160452Y0011832999D01*
X0016618039Y0011832999D01*
X0016612929Y0011832791D01*
X0016479233Y0011821918D01*
X0016468680Y0011820148D01*
X0016261814Y0011767033D01*
X0016251269Y0011763299D01*
X0016057295Y0011674490D01*
X0016047588Y0011668954D01*
X0015872403Y0011547197D01*
X0015863824Y0011540024D01*
X0015712976Y0011389176D01*
X0015705803Y0011380597D01*
X0015584046Y0011205412D01*
X0015578510Y0011195705D01*
X0015489701Y0011001731D01*
X0015485967Y0010991185D01*
X0015432853Y0010784321D01*
X0015431082Y0010773766D01*
X0015420207Y0010640070D01*
X0015420000Y0010634964D01*
X0015420000Y0010097115D01*
X0000508000Y0010097115D01*
X0000508000Y0016715039D01*
X0004418001Y0016715039D01*
X0004418209Y0016709928D01*
X0004429082Y0016576232D01*
X0004430852Y0016565680D01*
X0004483967Y0016358815D01*
X0004487701Y0016348268D01*
X0004576510Y0016154295D01*
X0004582046Y0016144587D01*
X0004703803Y0015969403D01*
X0004710976Y0015960824D01*
X0004861824Y0015809976D01*
X0004870403Y0015802803D01*
X0005045588Y0015681046D01*
X0005055295Y0015675510D01*
X0005249269Y0015586701D01*
X0005259815Y0015582967D01*
X0005466679Y0015529853D01*
X0005477234Y0015528082D01*
X0005610930Y0015517207D01*
X0005616036Y0015517000D01*
X0006153885Y0015517000D01*
X0006169124Y0015521475D01*
X0006170329Y0015522865D01*
X0006172000Y0015530548D01*
X0006172000Y0015535116D01*
X0006680000Y0015535116D01*
X0006684475Y0015519877D01*
X0006685865Y0015518672D01*
X0006693548Y0015517001D01*
X0007235961Y0015517001D01*
X0007241071Y0015517209D01*
X0007374767Y0015528082D01*
X0007385320Y0015529852D01*
X0007592185Y0015582967D01*
X0007602731Y0015586701D01*
X0007796705Y0015675510D01*
X0007806412Y0015681046D01*
X0007981597Y0015802803D01*
X0007990176Y0015809976D01*
X0008141024Y0015960824D01*
X0008148197Y0015969403D01*
X0008269954Y0016144587D01*
X0008275490Y0016154295D01*
X0008364299Y0016348268D01*
X0008368033Y0016358815D01*
X0008421147Y0016565679D01*
X0008422918Y0016576234D01*
X0008427701Y0016635038D01*
X0031596001Y0016635038D01*
X0031596209Y0016629929D01*
X0031607082Y0016496233D01*
X0031608852Y0016485679D01*
X0031661967Y0016278815D01*
X0031665701Y0016268269D01*
X0031754510Y0016074295D01*
X0031760046Y0016064588D01*
X0031881803Y0015889403D01*
X0031888976Y0015880824D01*
X0032039824Y0015729976D01*
X0032048403Y0015722803D01*
X0032223588Y0015601046D01*
X0032233295Y0015595510D01*
X0032427269Y0015506701D01*
X0032437815Y0015502967D01*
X0032644678Y0015449853D01*
X0032655234Y0015448082D01*
X0032788930Y0015437207D01*
X0032794036Y0015437000D01*
X0033331885Y0015437000D01*
X0033347124Y0015441475D01*
X0033348329Y0015442865D01*
X0033350000Y0015450548D01*
X0033350000Y0015455116D01*
X0033858000Y0015455116D01*
X0033862475Y0015439877D01*
X0033863865Y0015438672D01*
X0033871548Y0015437001D01*
X0034413961Y0015437001D01*
X0034419071Y0015437209D01*
X0034552767Y0015448082D01*
X0034563320Y0015449852D01*
X0034770185Y0015502967D01*
X0034780731Y0015506701D01*
X0034974705Y0015595510D01*
X0034984412Y0015601046D01*
X0035159597Y0015722803D01*
X0035168176Y0015729976D01*
X0035319024Y0015880824D01*
X0035326197Y0015889403D01*
X0035447954Y0016064588D01*
X0035453490Y0016074295D01*
X0035542299Y0016268269D01*
X0035546033Y0016278815D01*
X0035599147Y0016485679D01*
X0035600918Y0016496234D01*
X0035611793Y0016629930D01*
X0035612000Y0016635036D01*
X0035612000Y0017172885D01*
X0035607525Y0017188124D01*
X0035606135Y0017189329D01*
X0035598452Y0017191000D01*
X0033876115Y0017191000D01*
X0033860876Y0017186525D01*
X0033859671Y0017185135D01*
X0033858000Y0017177452D01*
X0033858000Y0015455116D01*
X0033350000Y0015455116D01*
X0033350000Y0017172885D01*
X0033345525Y0017188124D01*
X0033344135Y0017189329D01*
X0033336452Y0017191000D01*
X0031614116Y0017191000D01*
X0031598877Y0017186525D01*
X0031597672Y0017185135D01*
X0031596001Y0017177452D01*
X0031596001Y0016635038D01*
X0008427701Y0016635038D01*
X0008433793Y0016709930D01*
X0008434000Y0016715036D01*
X0008434000Y0017252885D01*
X0008429525Y0017268124D01*
X0008428135Y0017269329D01*
X0008420452Y0017271000D01*
X0006698115Y0017271000D01*
X0006682876Y0017266525D01*
X0006681671Y0017265135D01*
X0006680000Y0017257452D01*
X0006680000Y0015535116D01*
X0006172000Y0015535116D01*
X0006172000Y0017252885D01*
X0006167525Y0017268124D01*
X0006166135Y0017269329D01*
X0006158452Y0017271000D01*
X0004436116Y0017271000D01*
X0004420877Y0017266525D01*
X0004419672Y0017265135D01*
X0004418001Y0017257452D01*
X0004418001Y0016715039D01*
X0000508000Y0016715039D01*
X0000508000Y0017797115D01*
X0004418000Y0017797115D01*
X0004422475Y0017781876D01*
X0004423865Y0017780671D01*
X0004431548Y0017779000D01*
X0006153885Y0017779000D01*
X0006169124Y0017783475D01*
X0006170329Y0017784865D01*
X0006172000Y0017792548D01*
X0006172000Y0017797115D01*
X0006680000Y0017797115D01*
X0006684475Y0017781876D01*
X0006685865Y0017780671D01*
X0006693548Y0017779000D01*
X0008415884Y0017779000D01*
X0008431123Y0017783475D01*
X0008432328Y0017784865D01*
X0008433999Y0017792548D01*
X0008433999Y0018227175D01*
X0012800001Y0018227175D01*
X0012800195Y0018222244D01*
X0012805958Y0018148997D01*
X0012807905Y0018137668D01*
X0012855464Y0017960175D01*
X0012860168Y0017947921D01*
X0012943214Y0017784934D01*
X0012950364Y0017773923D01*
X0013065485Y0017631762D01*
X0013074762Y0017622485D01*
X0013216923Y0017507364D01*
X0013227934Y0017500214D01*
X0013390921Y0017417168D01*
X0013403175Y0017412464D01*
X0013580666Y0017364905D01*
X0013591999Y0017362958D01*
X0013665246Y0017357193D01*
X0013670172Y0017357000D01*
X0014535885Y0017357000D01*
X0014551124Y0017361475D01*
X0014552329Y0017362865D01*
X0014554000Y0017370548D01*
X0014554000Y0017375116D01*
X0015062000Y0017375116D01*
X0015066475Y0017359877D01*
X0015067865Y0017358672D01*
X0015075548Y0017357001D01*
X0015945825Y0017357001D01*
X0015950756Y0017357195D01*
X0016024003Y0017362958D01*
X0016035332Y0017364905D01*
X0016212824Y0017412464D01*
X0016225079Y0017417168D01*
X0016388065Y0017500214D01*
X0016399076Y0017507364D01*
X0016541238Y0017622485D01*
X0016550515Y0017631762D01*
X0016665636Y0017773923D01*
X0016672785Y0017784934D01*
X0016755832Y0017947921D01*
X0016760535Y0017960175D01*
X0016808095Y0018137666D01*
X0016810042Y0018148999D01*
X0016815807Y0018222246D01*
X0016816000Y0018227172D01*
X0016816000Y0018227175D01*
X0023468001Y0018227175D01*
X0023468195Y0018222244D01*
X0023473958Y0018148997D01*
X0023475905Y0018137668D01*
X0023523464Y0017960175D01*
X0023528168Y0017947921D01*
X0023611214Y0017784934D01*
X0023618364Y0017773923D01*
X0023733485Y0017631762D01*
X0023742762Y0017622485D01*
X0023884923Y0017507364D01*
X0023895934Y0017500214D01*
X0024058921Y0017417168D01*
X0024071175Y0017412464D01*
X0024248666Y0017364905D01*
X0024259999Y0017362958D01*
X0024333246Y0017357193D01*
X0024338172Y0017357000D01*
X0025203885Y0017357000D01*
X0025219124Y0017361475D01*
X0025220329Y0017362865D01*
X0025222000Y0017370548D01*
X0025222000Y0017375116D01*
X0025730000Y0017375116D01*
X0025734475Y0017359877D01*
X0025735865Y0017358672D01*
X0025743548Y0017357001D01*
X0026613825Y0017357001D01*
X0026618756Y0017357195D01*
X0026692003Y0017362958D01*
X0026703332Y0017364905D01*
X0026880825Y0017412464D01*
X0026893079Y0017417168D01*
X0027056066Y0017500214D01*
X0027067077Y0017507364D01*
X0027209238Y0017622485D01*
X0027218515Y0017631762D01*
X0027287633Y0017717115D01*
X0031596000Y0017717115D01*
X0031600475Y0017701876D01*
X0031601865Y0017700671D01*
X0031609548Y0017699000D01*
X0033331885Y0017699000D01*
X0033347124Y0017703475D01*
X0033348329Y0017704865D01*
X0033350000Y0017712548D01*
X0033350000Y0017717115D01*
X0033858000Y0017717115D01*
X0033862475Y0017701876D01*
X0033863865Y0017700671D01*
X0033871548Y0017699000D01*
X0035593884Y0017699000D01*
X0035609123Y0017703475D01*
X0035610328Y0017704865D01*
X0035611999Y0017712548D01*
X0035611999Y0018254961D01*
X0035611791Y0018260071D01*
X0035600918Y0018393767D01*
X0035599148Y0018404320D01*
X0035546033Y0018611185D01*
X0035542299Y0018621731D01*
X0035453490Y0018815705D01*
X0035447954Y0018825412D01*
X0035326197Y0019000597D01*
X0035319024Y0019009176D01*
X0035168176Y0019160024D01*
X0035159597Y0019167197D01*
X0034984412Y0019288954D01*
X0034974705Y0019294490D01*
X0034780731Y0019383299D01*
X0034770185Y0019387033D01*
X0034563321Y0019440147D01*
X0034552766Y0019441918D01*
X0034419070Y0019452793D01*
X0034413964Y0019453000D01*
X0033876115Y0019453000D01*
X0033860876Y0019448525D01*
X0033859671Y0019447135D01*
X0033858000Y0019439452D01*
X0033858000Y0017717115D01*
X0033350000Y0017717115D01*
X0033350000Y0019434884D01*
X0033345525Y0019450123D01*
X0033344135Y0019451328D01*
X0033336452Y0019452999D01*
X0032794038Y0019452999D01*
X0032788929Y0019452791D01*
X0032655233Y0019441918D01*
X0032644680Y0019440148D01*
X0032437815Y0019387033D01*
X0032427269Y0019383299D01*
X0032233295Y0019294490D01*
X0032223588Y0019288954D01*
X0032048403Y0019167197D01*
X0032039824Y0019160024D01*
X0031888976Y0019009176D01*
X0031881803Y0019000597D01*
X0031760046Y0018825412D01*
X0031754510Y0018815705D01*
X0031665701Y0018621731D01*
X0031661967Y0018611185D01*
X0031608853Y0018404321D01*
X0031607082Y0018393766D01*
X0031596207Y0018260070D01*
X0031596000Y0018254964D01*
X0031596000Y0017717115D01*
X0027287633Y0017717115D01*
X0027333636Y0017773923D01*
X0027340786Y0017784934D01*
X0027423832Y0017947921D01*
X0027428536Y0017960175D01*
X0027476095Y0018137666D01*
X0027478042Y0018148999D01*
X0027483807Y0018222246D01*
X0027484000Y0018227172D01*
X0027484000Y0018442885D01*
X0027479525Y0018458124D01*
X0027478135Y0018459329D01*
X0027470452Y0018461000D01*
X0025748115Y0018461000D01*
X0025732876Y0018456525D01*
X0025731671Y0018455135D01*
X0025730000Y0018447452D01*
X0025730000Y0017375116D01*
X0025222000Y0017375116D01*
X0025222000Y0018442885D01*
X0025217525Y0018458124D01*
X0025216135Y0018459329D01*
X0025208452Y0018461000D01*
X0023486116Y0018461000D01*
X0023470877Y0018456525D01*
X0023469672Y0018455135D01*
X0023468001Y0018447452D01*
X0023468001Y0018227175D01*
X0016816000Y0018227175D01*
X0016816000Y0018442885D01*
X0016811525Y0018458124D01*
X0016810135Y0018459329D01*
X0016802452Y0018461000D01*
X0015080115Y0018461000D01*
X0015064876Y0018456525D01*
X0015063671Y0018455135D01*
X0015062000Y0018447452D01*
X0015062000Y0017375116D01*
X0014554000Y0017375116D01*
X0014554000Y0018442885D01*
X0014549525Y0018458124D01*
X0014548135Y0018459329D01*
X0014540452Y0018461000D01*
X0012818116Y0018461000D01*
X0012802877Y0018456525D01*
X0012801672Y0018455135D01*
X0012800001Y0018447452D01*
X0012800001Y0018227175D01*
X0008433999Y0018227175D01*
X0008433999Y0018334961D01*
X0008433791Y0018340071D01*
X0008422918Y0018473767D01*
X0008421148Y0018484320D01*
X0008368033Y0018691185D01*
X0008364299Y0018701731D01*
X0008275490Y0018895705D01*
X0008269954Y0018905412D01*
X0008148197Y0019080597D01*
X0008141024Y0019089176D01*
X0007990176Y0019240024D01*
X0007981597Y0019247197D01*
X0007806412Y0019368954D01*
X0007796705Y0019374490D01*
X0007602731Y0019463299D01*
X0007592185Y0019467033D01*
X0007385321Y0019520147D01*
X0007374766Y0019521918D01*
X0007241070Y0019532793D01*
X0007235964Y0019533000D01*
X0006698115Y0019533000D01*
X0006682876Y0019528525D01*
X0006681671Y0019527135D01*
X0006680000Y0019519452D01*
X0006680000Y0017797115D01*
X0006172000Y0017797115D01*
X0006172000Y0019514884D01*
X0006167525Y0019530123D01*
X0006166135Y0019531328D01*
X0006158452Y0019532999D01*
X0005616039Y0019532999D01*
X0005610929Y0019532791D01*
X0005477233Y0019521918D01*
X0005466680Y0019520148D01*
X0005259815Y0019467033D01*
X0005249269Y0019463299D01*
X0005055295Y0019374490D01*
X0005045588Y0019368954D01*
X0004870403Y0019247197D01*
X0004861824Y0019240024D01*
X0004710976Y0019089176D01*
X0004703803Y0019080597D01*
X0004582046Y0018905412D01*
X0004576510Y0018895705D01*
X0004487701Y0018701731D01*
X0004483967Y0018691185D01*
X0004430853Y0018484321D01*
X0004429082Y0018473766D01*
X0004418207Y0018340070D01*
X0004418000Y0018334964D01*
X0004418000Y0017797115D01*
X0000508000Y0017797115D01*
X0000508000Y0021712458D01*
X0004417500Y0021712458D01*
X0004429022Y0021570800D01*
X0004484890Y0021353206D01*
X0004578409Y0021148945D01*
X0004706620Y0020964473D01*
X0004865473Y0020805620D01*
X0004924403Y0020764663D01*
X0005041665Y0020683164D01*
X0005049945Y0020677409D01*
X0005254206Y0020583890D01*
X0005471800Y0020528022D01*
X0005525705Y0020523638D01*
X0005610908Y0020516707D01*
X0005610918Y0020516707D01*
X0005613458Y0020516500D01*
X0007238542Y0020516500D01*
X0007241082Y0020516707D01*
X0007241092Y0020516707D01*
X0007326295Y0020523638D01*
X0007380200Y0020528022D01*
X0007597794Y0020583890D01*
X0007802055Y0020677409D01*
X0007810336Y0020683164D01*
X0007927597Y0020764663D01*
X0007986527Y0020805620D01*
X0008145379Y0020964473D01*
X0008273591Y0021148945D01*
X0008367110Y0021353206D01*
X0008422978Y0021570800D01*
X0008434500Y0021712458D01*
X0008434500Y0021745337D01*
X0012799500Y0021745337D01*
X0012799501Y0020764664D01*
X0012805914Y0020683164D01*
X0012856702Y0020493621D01*
X0012945789Y0020318779D01*
X0013069280Y0020166280D01*
X0013172620Y0020082597D01*
X0013212970Y0020024185D01*
X0013215336Y0019953228D01*
X0013178963Y0019892256D01*
X0013172619Y0019886759D01*
X0013074762Y0019807515D01*
X0013065485Y0019798238D01*
X0012950364Y0019656077D01*
X0012943214Y0019645066D01*
X0012860168Y0019482079D01*
X0012855464Y0019469825D01*
X0012807905Y0019292334D01*
X0012805958Y0019281001D01*
X0012800193Y0019207754D01*
X0012800000Y0019202827D01*
X0012800000Y0018987115D01*
X0012804475Y0018971876D01*
X0012805865Y0018970671D01*
X0012813548Y0018969000D01*
X0016797884Y0018969000D01*
X0016813123Y0018973475D01*
X0016814328Y0018974865D01*
X0016815999Y0018982548D01*
X0016815999Y0019202825D01*
X0016815805Y0019207756D01*
X0016810042Y0019281003D01*
X0016808095Y0019292332D01*
X0016760535Y0019469825D01*
X0016755832Y0019482079D01*
X0016672785Y0019645066D01*
X0016665636Y0019656077D01*
X0016550515Y0019798238D01*
X0016541238Y0019807515D01*
X0016443380Y0019886759D01*
X0016403029Y0019945174D01*
X0016400665Y0020016131D01*
X0016437038Y0020077102D01*
X0016443359Y0020082580D01*
X0016546720Y0020166280D01*
X0016670210Y0020318779D01*
X0016759298Y0020493621D01*
X0016762675Y0020506225D01*
X0016808592Y0020677587D01*
X0016808593Y0020677591D01*
X0016810086Y0020683164D01*
X0016813740Y0020729591D01*
X0016816307Y0020762206D01*
X0016816307Y0020762215D01*
X0016816500Y0020764663D01*
X0016816499Y0021745336D01*
X0016816499Y0021745337D01*
X0023467500Y0021745337D01*
X0023467501Y0020764664D01*
X0023473914Y0020683164D01*
X0023524702Y0020493621D01*
X0023613789Y0020318779D01*
X0023737280Y0020166280D01*
X0023840620Y0020082597D01*
X0023880970Y0020024185D01*
X0023883336Y0019953228D01*
X0023846963Y0019892256D01*
X0023840619Y0019886759D01*
X0023742762Y0019807515D01*
X0023733485Y0019798238D01*
X0023618364Y0019656077D01*
X0023611214Y0019645066D01*
X0023528168Y0019482079D01*
X0023523464Y0019469825D01*
X0023475905Y0019292334D01*
X0023473958Y0019281001D01*
X0023468193Y0019207754D01*
X0023468000Y0019202827D01*
X0023468000Y0018987115D01*
X0023472475Y0018971876D01*
X0023473865Y0018970671D01*
X0023481548Y0018969000D01*
X0027465884Y0018969000D01*
X0027481123Y0018973475D01*
X0027482328Y0018974865D01*
X0027483999Y0018982548D01*
X0027483999Y0019202825D01*
X0027483805Y0019207756D01*
X0027478042Y0019281003D01*
X0027476095Y0019292332D01*
X0027428536Y0019469825D01*
X0027423832Y0019482079D01*
X0027340786Y0019645066D01*
X0027333636Y0019656077D01*
X0027218515Y0019798238D01*
X0027209238Y0019807515D01*
X0027111381Y0019886759D01*
X0027071029Y0019945174D01*
X0027068665Y0020016131D01*
X0027105038Y0020077102D01*
X0027111359Y0020082580D01*
X0027214720Y0020166280D01*
X0027338211Y0020318779D01*
X0027427298Y0020493621D01*
X0027430675Y0020506225D01*
X0027476592Y0020677587D01*
X0027476593Y0020677591D01*
X0027478086Y0020683164D01*
X0027481740Y0020729591D01*
X0027484307Y0020762206D01*
X0027484307Y0020762215D01*
X0027484500Y0020764663D01*
X0027484499Y0021632458D01*
X0031595500Y0021632458D01*
X0031607022Y0021490800D01*
X0031662890Y0021273206D01*
X0031756409Y0021068945D01*
X0031884620Y0020884473D01*
X0032043473Y0020725620D01*
X0032227945Y0020597409D01*
X0032432206Y0020503890D01*
X0032437638Y0020502495D01*
X0032437638Y0020502495D01*
X0032472202Y0020493621D01*
X0032649800Y0020448022D01*
X0032703705Y0020443638D01*
X0032788908Y0020436707D01*
X0032788918Y0020436707D01*
X0032791458Y0020436500D01*
X0034416542Y0020436500D01*
X0034419082Y0020436707D01*
X0034419092Y0020436707D01*
X0034504295Y0020443638D01*
X0034558200Y0020448022D01*
X0034735799Y0020493621D01*
X0034770361Y0020502495D01*
X0034770362Y0020502495D01*
X0034775794Y0020503890D01*
X0034980055Y0020597409D01*
X0035164527Y0020725620D01*
X0035323380Y0020884473D01*
X0035451591Y0021068945D01*
X0035545110Y0021273206D01*
X0035600978Y0021490800D01*
X0035612500Y0021632458D01*
X0035612500Y0023257542D01*
X0035600978Y0023399200D01*
X0035545110Y0023616794D01*
X0035451591Y0023821055D01*
X0035323380Y0024005527D01*
X0035164527Y0024164380D01*
X0034980055Y0024292591D01*
X0034775794Y0024386110D01*
X0034558200Y0024441978D01*
X0034504295Y0024446362D01*
X0034419092Y0024453293D01*
X0034419082Y0024453293D01*
X0034416542Y0024453500D01*
X0032791458Y0024453500D01*
X0032788918Y0024453293D01*
X0032788908Y0024453293D01*
X0032703705Y0024446362D01*
X0032649800Y0024441978D01*
X0032432206Y0024386110D01*
X0032227945Y0024292591D01*
X0032043473Y0024164380D01*
X0031884620Y0024005527D01*
X0031756409Y0023821055D01*
X0031662890Y0023616794D01*
X0031607022Y0023399200D01*
X0031595500Y0023257542D01*
X0031595500Y0021632458D01*
X0027484499Y0021632458D01*
X0027484499Y0021745336D01*
X0027478086Y0021826836D01*
X0027427298Y0022016379D01*
X0027338211Y0022191221D01*
X0027214720Y0022343720D01*
X0027062221Y0022467211D01*
X0026887379Y0022556298D01*
X0026881005Y0022558006D01*
X0026703413Y0022605592D01*
X0026703409Y0022605593D01*
X0026697836Y0022607086D01*
X0026692080Y0022607539D01*
X0026618794Y0022613307D01*
X0026618785Y0022613307D01*
X0026616337Y0022613500D01*
X0025476462Y0022613500D01*
X0024335664Y0022613499D01*
X0024285780Y0022609574D01*
X0024259918Y0022607539D01*
X0024259915Y0022607539D01*
X0024254164Y0022607086D01*
X0024064621Y0022556298D01*
X0023889779Y0022467211D01*
X0023737280Y0022343720D01*
X0023613789Y0022191221D01*
X0023524702Y0022016379D01*
X0023473914Y0021826836D01*
X0023473461Y0021821082D01*
X0023473461Y0021821080D01*
X0023467694Y0021747796D01*
X0023467500Y0021745337D01*
X0016816499Y0021745337D01*
X0016810086Y0021826836D01*
X0016759298Y0022016379D01*
X0016670210Y0022191221D01*
X0016546720Y0022343720D01*
X0016394221Y0022467211D01*
X0016219379Y0022556298D01*
X0016213004Y0022558006D01*
X0016035412Y0022605592D01*
X0016035409Y0022605593D01*
X0016029836Y0022607086D01*
X0016024080Y0022607539D01*
X0015950794Y0022613307D01*
X0015950785Y0022613307D01*
X0015948337Y0022613500D01*
X0014808462Y0022613500D01*
X0013667664Y0022613499D01*
X0013617780Y0022609574D01*
X0013591918Y0022607539D01*
X0013591915Y0022607539D01*
X0013586164Y0022607086D01*
X0013396621Y0022556298D01*
X0013221779Y0022467211D01*
X0013069280Y0022343720D01*
X0012945789Y0022191221D01*
X0012856702Y0022016379D01*
X0012805914Y0021826836D01*
X0012805461Y0021821082D01*
X0012805461Y0021821080D01*
X0012799694Y0021747796D01*
X0012799500Y0021745337D01*
X0008434500Y0021745337D01*
X0008434500Y0023337542D01*
X0008422978Y0023479200D01*
X0008367110Y0023696794D01*
X0008273591Y0023901055D01*
X0008145379Y0024085527D01*
X0007986527Y0024244380D01*
X0007802055Y0024372591D01*
X0007597794Y0024466110D01*
X0007380200Y0024521978D01*
X0007326295Y0024526362D01*
X0007241092Y0024533293D01*
X0007241082Y0024533293D01*
X0007238542Y0024533500D01*
X0005613458Y0024533500D01*
X0005610918Y0024533293D01*
X0005610908Y0024533293D01*
X0005525705Y0024526362D01*
X0005471800Y0024521978D01*
X0005254206Y0024466110D01*
X0005049945Y0024372591D01*
X0004865473Y0024244380D01*
X0004706620Y0024085527D01*
X0004578409Y0023901055D01*
X0004484890Y0023696794D01*
X0004429022Y0023479200D01*
X0004417500Y0023337542D01*
X0004417500Y0021712458D01*
X0000508000Y0021712458D01*
X0000508000Y0035082861D01*
X0000528002Y0035150982D01*
X0000581658Y0035197475D01*
X0000651932Y0035207579D01*
X0000716512Y0035178085D01*
X0000728947Y0035165692D01*
X0000801205Y0035082861D01*
X0000872597Y0035001023D01*
X0000894866Y0034975495D01*
X0000897551Y0034973052D01*
X0001107268Y0034782225D01*
X0001151481Y0034741994D01*
X0001433233Y0034539534D01*
X0001736388Y0034370800D01*
X0002056928Y0034238028D01*
X0002060422Y0034237033D01*
X0002060423Y0034237032D01*
X0002387103Y0034143975D01*
X0002387108Y0034143974D01*
X0002390604Y0034142978D01*
X0002587304Y0034110767D01*
X0002729412Y0034087496D01*
X0002729419Y0034087495D01*
X0002732993Y0034086910D01*
X0002906275Y0034078738D01*
X0003075931Y0034070737D01*
X0003075932Y0034070737D01*
X0003079558Y0034070566D01*
X0003088415Y0034071170D01*
X0003422073Y0034093916D01*
X0003422081Y0034093917D01*
X0003425704Y0034094164D01*
X0003429279Y0034094827D01*
X0003429282Y0034094827D01*
X0003763279Y0034156730D01*
X0003763283Y0034156731D01*
X0003766844Y0034157391D01*
X0004098455Y0034259408D01*
X0004416145Y0034398864D01*
X0004660511Y0034541659D01*
X0004712560Y0034572074D01*
X0004712562Y0034572075D01*
X0004715700Y0034573909D01*
X0004718609Y0034576093D01*
X0004990244Y0034780042D01*
X0004990248Y0034780045D01*
X0004993151Y0034782225D01*
X0005244819Y0035021050D01*
X0005467370Y0035287217D01*
X0005657853Y0035577201D01*
X0005786446Y0035832879D01*
X0005812117Y0035883920D01*
X0005812120Y0035883928D01*
X0005813744Y0035887156D01*
X0005932977Y0036212974D01*
X0005933822Y0036216496D01*
X0005933825Y0036216504D01*
X0006013124Y0036546809D01*
X0006013125Y0036546813D01*
X0006013971Y0036550338D01*
X0006048035Y0036831829D01*
X0006055316Y0036891996D01*
X0006055316Y0036892003D01*
X0006055652Y0036894775D01*
X0006061599Y0037084000D01*
X0006061438Y0037086796D01*
X0006041836Y0037426754D01*
X0006041835Y0037426759D01*
X0006041627Y0037430374D01*
X0005981976Y0037772158D01*
X0005883437Y0038104820D01*
X0005747316Y0038423952D01*
X0005697569Y0038511169D01*
X0005577208Y0038722184D01*
X0005575417Y0038725324D01*
X0005370018Y0039004940D01*
X0005133842Y0039259096D01*
X0005131089Y0039261448D01*
X0005131083Y0039261453D01*
X0005120853Y0039270190D01*
X0005082044Y0039329640D01*
X0005081538Y0039400635D01*
X0005119495Y0039460634D01*
X0005183863Y0039490586D01*
X0005202684Y0039492000D01*
X0034932260Y0039492000D01*
X0035000381Y0039471998D01*
G37*
%TD.AperFunction*%
M02*