%TF.GenerationSoftware,KiCad,Pcbnew,(6.0.2)*%
%TF.CreationDate,2022-04-05T13:44:54-03:00*%
%TF.ProjectId,EM8900,454d3839-3030-42e6-9b69-6361645f7063,rev?*%
%TF.SameCoordinates,PX5f5e100PY8583b00*%
%TF.FileFunction,Legend,Bot*%
%TF.FilePolarity,Positive*%
%FSLAX46Y46*%
G04 Gerber Fmt 4.6, Leading zero omitted, Abs format (unit mm)*
G04 Created by KiCad (PCBNEW (6.0.2)) date 2022-04-05 13:44:54*
%MOMM*%
%LPD*%
G01*
G04 APERTURE LIST*
G04 Aperture macros list*
%AMRoundRect*
4,1,4,2,3,4,5,6,7,8,9,2,3,0*
1,1,$1,$2,$3*
1,1,$1,$2,$3*
1,1,$1,$2,$3*
1,1,$1,$2,$3*
20,1,$1,$2,$3,$4,$5,0*
20,1,$1,$2,$3,$4,$5,0*
20,1,$1,$2,$3,$4,$5,0*
20,1,$1,$2,$3,$4,$5,0*%
G04 Aperture macros list end*
%ADD10C,0.2*%
%AMCOMP9*
4,1,3,
-0.75,0.75,
-0.75,-0.75,
0.75,-0.75,
0.75,0.75,
0*
4,1,19,
-0.75,1.5,
-0.51823725421878941,1.4632923872213652,
-0.30916106078064515,1.3567627457812106,
-0.14323725421878941,1.1908389392193548,
-0.036707612778634879,0.98176274578121059,
0,0.75,
-0.036707612778634768,0.51823725421878952,
-0.14323725421878941,0.3091610607806452,
-0.30916106078064509,0.14323725421878952,
-0.51823725421878941,0.036707612778634879,
-0.74999999999999989,0,
-0.98176274578121081,0.036707612778634879,
-1.1908389392193548,0.1432372542187893,
-1.3567627457812104,0.30916106078064509,
-1.4632923872213652,0.5182372542187893,
-1.5,0.74999999999999989,
-1.4632923872213652,0.98176274578121037,
-1.3567627457812108,1.1908389392193546,
-1.190838939219355,1.3567627457812104,
-0.9817627457812107,1.4632923872213652,
0*
4,1,19,
-0.75,0,
-0.51823725421878941,-0.036707612778634879,
-0.30916106078064515,-0.14323725421878941,
-0.14323725421878941,-0.30916106078064515,
-0.036707612778634879,-0.51823725421878941,
0,-0.75,
-0.036707612778634768,-0.98176274578121048,
-0.14323725421878941,-1.1908389392193548,
-0.30916106078064509,-1.3567627457812104,
-0.51823725421878941,-1.4632923872213652,
-0.74999999999999989,-1.5,
-0.98176274578121081,-1.4632923872213652,
-1.1908389392193548,-1.3567627457812108,
-1.3567627457812104,-1.190838939219355,
-1.4632923872213652,-0.9817627457812107,
-1.5,-0.75000000000000011,
-1.4632923872213652,-0.51823725421878963,
-1.3567627457812108,-0.30916106078064531,
-1.190838939219355,-0.14323725421878952,
-0.9817627457812107,-0.036707612778634879,
0*
4,1,19,
0.75,0,
0.98176274578121059,-0.036707612778634879,
1.1908389392193548,-0.14323725421878941,
1.3567627457812106,-0.30916106078064515,
1.4632923872213652,-0.51823725421878941,
1.5,-0.75,
1.4632923872213652,-0.98176274578121048,
1.3567627457812106,-1.1908389392193548,
1.190838939219355,-1.3567627457812104,
0.98176274578121059,-1.4632923872213652,
0.75000000000000011,-1.5,
0.51823725421878919,-1.4632923872213652,
0.3091610607806452,-1.3567627457812108,
0.14323725421878952,-1.190838939219355,
0.036707612778634879,-0.9817627457812107,
0,-0.75000000000000011,
0.036707612778634768,-0.51823725421878963,
0.1432372542187893,-0.30916106078064531,
0.309161060780645,-0.14323725421878952,
0.5182372542187893,-0.036707612778634879,
0*
4,1,19,
0.75,1.5,
0.98176274578121059,1.4632923872213652,
1.1908389392193548,1.3567627457812106,
1.3567627457812106,1.1908389392193548,
1.4632923872213652,0.98176274578121059,
1.5,0.75,
1.4632923872213652,0.51823725421878952,
1.3567627457812106,0.3091610607806452,
1.190838939219355,0.14323725421878952,
0.98176274578121059,0.036707612778634879,
0.75000000000000011,0,
0.51823725421878919,0.036707612778634879,
0.3091610607806452,0.1432372542187893,
0.14323725421878952,0.30916106078064509,
0.036707612778634879,0.5182372542187893,
0,0.74999999999999989,
0.036707612778634768,0.98176274578121037,
0.1432372542187893,1.1908389392193546,
0.309161060780645,1.3567627457812104,
0.5182372542187893,1.4632923872213652,
0*
4,1,3,
-1.5,0.75,
0,0.75,
0,-0.75,
-1.5,-0.75,
0*
4,1,3,
-0.75,-1.5,
-0.75,0,
0.75,0,
0.75,-1.5,
0*
4,1,3,
1.5,-0.75,
0,-0.75,
0,0.75,
1.5,0.75,
0*
4,1,3,
0.75,1.5,
0.75,0,
-0.75,0,
-0.75,1.5,
0*%
%ADD11COMP9,0.75X-0.75X0.75X-0.75X-0.75X0.75X-0.75X0.75X0.75X0*%
%AMCOMP10*
4,1,3,
-1.075,-0.425,
1.075,-0.425,
1.075,0.425,
-1.075,0.425,
0*
4,1,19,
-1.075,0,
-0.94366777739064733,-0.020800980574559758,
-0.82519126777569884,-0.081167777390647344,
-0.73116777739064731,-0.17519126777569891,
-0.67080098057455972,-0.29366777739064731,
-0.64999999999999991,-0.425,
-0.67080098057455961,-0.55633222260935256,
-0.73116777739064731,-0.674808732224301,
-0.82519126777569884,-0.76883222260935258,
-0.94366777739064722,-0.82919901942544016,
-1.075,-0.85,
-1.2063322226093527,-0.82919901942544016,
-1.324808732224301,-0.76883222260935269,
-1.4188322226093526,-0.674808732224301,
-1.4791990194254403,-0.55633222260935267,
-1.5,-0.42500000000000004,
-1.4791990194254403,-0.29366777739064742,
-1.4188322226093526,-0.17519126777569902,
-1.3248087322243012,-0.0811677773906474,
-1.2063322226093527,-0.020800980574559758,
0*
4,1,19,
1.075,0,
1.2063322226093527,-0.020800980574559758,
1.324808732224301,-0.081167777390647344,
1.4188322226093526,-0.17519126777569891,
1.4791990194254403,-0.29366777739064731,
1.5,-0.425,
1.4791990194254403,-0.55633222260935256,
1.4188322226093526,-0.674808732224301,
1.3248087322243012,-0.76883222260935258,
1.2063322226093527,-0.82919901942544016,
1.075,-0.85,
0.94366777739064722,-0.82919901942544016,
0.825191267775699,-0.76883222260935269,
0.73116777739064731,-0.674808732224301,
0.67080098057455972,-0.55633222260935267,
0.64999999999999991,-0.42500000000000004,
0.67080098057455961,-0.29366777739064742,
0.73116777739064731,-0.17519126777569902,
0.82519126777569873,-0.0811677773906474,
0.94366777739064722,-0.020800980574559758,
0*
4,1,19,
1.075,0.85,
1.2063322226093527,0.82919901942544016,
1.324808732224301,0.76883222260935269,
1.4188322226093526,0.674808732224301,
1.4791990194254403,0.55633222260935267,
1.5,0.425,
1.4791990194254403,0.29366777739064737,
1.4188322226093526,0.17519126777569896,
1.3248087322243012,0.0811677773906474,
1.2063322226093527,0.020800980574559758,
1.075,0,
0.94366777739064722,0.020800980574559758,
0.825191267775699,0.081167777390647289,
0.73116777739064731,0.17519126777569888,
0.67080098057455972,0.29366777739064731,
0.64999999999999991,0.42499999999999993,
0.67080098057455961,0.55633222260935256,
0.73116777739064731,0.67480873222430093,
0.82519126777569873,0.76883222260935258,
0.94366777739064722,0.82919901942544016,
0*
4,1,19,
-1.075,0.85,
-0.94366777739064733,0.82919901942544016,
-0.82519126777569884,0.76883222260935269,
-0.73116777739064731,0.674808732224301,
-0.67080098057455972,0.55633222260935267,
-0.64999999999999991,0.425,
-0.67080098057455961,0.29366777739064737,
-0.73116777739064731,0.17519126777569896,
-0.82519126777569884,0.0811677773906474,
-0.94366777739064722,0.020800980574559758,
-1.075,0,
-1.2063322226093527,0.020800980574559758,
-1.324808732224301,0.081167777390647289,
-1.4188322226093526,0.17519126777569888,
-1.4791990194254403,0.29366777739064731,
-1.5,0.42499999999999993,
-1.4791990194254403,0.55633222260935256,
-1.4188322226093526,0.67480873222430093,
-1.3248087322243012,0.76883222260935258,
-1.2063322226093527,0.82919901942544016,
0*
4,1,3,
-1.075,-0.85,
-1.075,0,
1.075,0,
1.075,-0.85,
0*
4,1,3,
1.5,-0.425,
0.64999999999999991,-0.425,
0.64999999999999991,0.425,
1.5,0.425,
0*
4,1,3,
1.075,0.85,
1.075,0,
-1.075,0,
-1.075,0.85,
0*
4,1,3,
-1.5,0.425,
-0.64999999999999991,0.425,
-0.64999999999999991,-0.425,
-1.5,-0.425,
0*%
%ADD12COMP10,0.425X-1.075X-0.425X1.075X-0.425X1.075X0.425X-1.075X0.425X0*%
%AMCOMP11*
4,1,3,
0.75,-0.75,
0.75,0.75,
-0.75,0.75,
-0.75,-0.75,
0*
4,1,19,
0.75,0,
0.98176274578121059,-0.036707612778634879,
1.1908389392193548,-0.14323725421878941,
1.3567627457812106,-0.30916106078064515,
1.4632923872213652,-0.51823725421878941,
1.5,-0.75,
1.4632923872213652,-0.98176274578121048,
1.3567627457812106,-1.1908389392193548,
1.190838939219355,-1.3567627457812104,
0.98176274578121059,-1.4632923872213652,
0.75000000000000011,-1.5,
0.51823725421878919,-1.4632923872213652,
0.3091610607806452,-1.3567627457812108,
0.14323725421878952,-1.190838939219355,
0.036707612778634879,-0.9817627457812107,
0,-0.75000000000000011,
0.036707612778634768,-0.51823725421878963,
0.1432372542187893,-0.30916106078064531,
0.309161060780645,-0.14323725421878952,
0.5182372542187893,-0.036707612778634879,
0*
4,1,19,
0.75,1.5,
0.98176274578121059,1.4632923872213652,
1.1908389392193548,1.3567627457812106,
1.3567627457812106,1.1908389392193548,
1.4632923872213652,0.98176274578121059,
1.5,0.75,
1.4632923872213652,0.51823725421878952,
1.3567627457812106,0.3091610607806452,
1.190838939219355,0.14323725421878952,
0.98176274578121059,0.036707612778634879,
0.75000000000000011,0,
0.51823725421878919,0.036707612778634879,
0.3091610607806452,0.1432372542187893,
0.14323725421878952,0.30916106078064509,
0.036707612778634879,0.5182372542187893,
0,0.74999999999999989,
0.036707612778634768,0.98176274578121037,
0.1432372542187893,1.1908389392193546,
0.309161060780645,1.3567627457812104,
0.5182372542187893,1.4632923872213652,
0*
4,1,19,
-0.75,1.5,
-0.51823725421878941,1.4632923872213652,
-0.30916106078064515,1.3567627457812106,
-0.14323725421878941,1.1908389392193548,
-0.036707612778634879,0.98176274578121059,
0,0.75,
-0.036707612778634768,0.51823725421878952,
-0.14323725421878941,0.3091610607806452,
-0.30916106078064509,0.14323725421878952,
-0.51823725421878941,0.036707612778634879,
-0.74999999999999989,0,
-0.98176274578121081,0.036707612778634879,
-1.1908389392193548,0.1432372542187893,
-1.3567627457812104,0.30916106078064509,
-1.4632923872213652,0.5182372542187893,
-1.5,0.74999999999999989,
-1.4632923872213652,0.98176274578121037,
-1.3567627457812108,1.1908389392193546,
-1.190838939219355,1.3567627457812104,
-0.9817627457812107,1.4632923872213652,
0*
4,1,19,
-0.75,0,
-0.51823725421878941,-0.036707612778634879,
-0.30916106078064515,-0.14323725421878941,
-0.14323725421878941,-0.30916106078064515,
-0.036707612778634879,-0.51823725421878941,
0,-0.75,
-0.036707612778634768,-0.98176274578121048,
-0.14323725421878941,-1.1908389392193548,
-0.30916106078064509,-1.3567627457812104,
-0.51823725421878941,-1.4632923872213652,
-0.74999999999999989,-1.5,
-0.98176274578121081,-1.4632923872213652,
-1.1908389392193548,-1.3567627457812108,
-1.3567627457812104,-1.190838939219355,
-1.4632923872213652,-0.9817627457812107,
-1.5,-0.75000000000000011,
-1.4632923872213652,-0.51823725421878963,
-1.3567627457812108,-0.30916106078064531,
-1.190838939219355,-0.14323725421878952,
-0.9817627457812107,-0.036707612778634879,
0*
4,1,3,
1.5,-0.75,
0,-0.75,
0,0.75,
1.5,0.75,
0*
4,1,3,
0.75,1.5,
0.75,0,
-0.75,0,
-0.75,1.5,
0*
4,1,3,
-1.5,0.75,
0,0.75,
0,-0.75,
-1.5,-0.75,
0*
4,1,3,
-0.75,-1.5,
-0.75,0,
0.75,0,
0.75,-1.5,
0*%
%ADD13COMP11,0.75X0.75X-0.75X0.75X0.75X-0.75X0.75X-0.75X-0.75X0*%
%AMCOMP12*
4,1,3,
0.75,0.75,
-0.75,0.75,
-0.75,-0.75,
0.75,-0.75,
0*
4,1,19,
0.75,1.5,
0.98176274578121059,1.4632923872213652,
1.1908389392193548,1.3567627457812106,
1.3567627457812106,1.1908389392193548,
1.4632923872213652,0.98176274578121059,
1.5,0.75,
1.4632923872213652,0.51823725421878952,
1.3567627457812106,0.3091610607806452,
1.190838939219355,0.14323725421878952,
0.98176274578121059,0.036707612778634879,
0.75000000000000011,0,
0.51823725421878919,0.036707612778634879,
0.3091610607806452,0.1432372542187893,
0.14323725421878952,0.30916106078064509,
0.036707612778634879,0.5182372542187893,
0,0.74999999999999989,
0.036707612778634768,0.98176274578121037,
0.1432372542187893,1.1908389392193546,
0.309161060780645,1.3567627457812104,
0.5182372542187893,1.4632923872213652,
0*
4,1,19,
-0.75,1.5,
-0.51823725421878941,1.4632923872213652,
-0.30916106078064515,1.3567627457812106,
-0.14323725421878941,1.1908389392193548,
-0.036707612778634879,0.98176274578121059,
0,0.75,
-0.036707612778634768,0.51823725421878952,
-0.14323725421878941,0.3091610607806452,
-0.30916106078064509,0.14323725421878952,
-0.51823725421878941,0.036707612778634879,
-0.74999999999999989,0,
-0.98176274578121081,0.036707612778634879,
-1.1908389392193548,0.1432372542187893,
-1.3567627457812104,0.30916106078064509,
-1.4632923872213652,0.5182372542187893,
-1.5,0.74999999999999989,
-1.4632923872213652,0.98176274578121037,
-1.3567627457812108,1.1908389392193546,
-1.190838939219355,1.3567627457812104,
-0.9817627457812107,1.4632923872213652,
0*
4,1,19,
-0.75,0,
-0.51823725421878941,-0.036707612778634879,
-0.30916106078064515,-0.14323725421878941,
-0.14323725421878941,-0.30916106078064515,
-0.036707612778634879,-0.51823725421878941,
0,-0.75,
-0.036707612778634768,-0.98176274578121048,
-0.14323725421878941,-1.1908389392193548,
-0.30916106078064509,-1.3567627457812104,
-0.51823725421878941,-1.4632923872213652,
-0.74999999999999989,-1.5,
-0.98176274578121081,-1.4632923872213652,
-1.1908389392193548,-1.3567627457812108,
-1.3567627457812104,-1.190838939219355,
-1.4632923872213652,-0.9817627457812107,
-1.5,-0.75000000000000011,
-1.4632923872213652,-0.51823725421878963,
-1.3567627457812108,-0.30916106078064531,
-1.190838939219355,-0.14323725421878952,
-0.9817627457812107,-0.036707612778634879,
0*
4,1,19,
0.75,0,
0.98176274578121059,-0.036707612778634879,
1.1908389392193548,-0.14323725421878941,
1.3567627457812106,-0.30916106078064515,
1.4632923872213652,-0.51823725421878941,
1.5,-0.75,
1.4632923872213652,-0.98176274578121048,
1.3567627457812106,-1.1908389392193548,
1.190838939219355,-1.3567627457812104,
0.98176274578121059,-1.4632923872213652,
0.75000000000000011,-1.5,
0.51823725421878919,-1.4632923872213652,
0.3091610607806452,-1.3567627457812108,
0.14323725421878952,-1.190838939219355,
0.036707612778634879,-0.9817627457812107,
0,-0.75000000000000011,
0.036707612778634768,-0.51823725421878963,
0.1432372542187893,-0.30916106078064531,
0.309161060780645,-0.14323725421878952,
0.5182372542187893,-0.036707612778634879,
0*
4,1,3,
0.75,1.5,
0.75,0,
-0.75,0,
-0.75,1.5,
0*
4,1,3,
-1.5,0.75,
0,0.75,
0,-0.75,
-1.5,-0.75,
0*
4,1,3,
-0.75,-1.5,
-0.75,0,
0.75,0,
0.75,-1.5,
0*
4,1,3,
1.5,-0.75,
0,-0.75,
0,0.75,
1.5,0.75,
0*%
%ADD14COMP12,0.75X0.75X0.75X-0.75X0.75X-0.75X-0.75X0.75X-0.75X0*%
%ADD15C,5*%
G04 APERTURE END LIST*
D10*
X0031664285Y0032797714D02*
X0031264285Y0032797714D01*
X0031092857Y0032169143D02*
X0031664285Y0032169143D01*
X0031664285Y0033369143D01*
X0031092857Y0033369143D01*
X0030578571Y0032969143D02*
X0030578571Y0032169143D01*
X0030578571Y0032854858D02*
X0030521428Y0032912000D01*
X0030407142Y0032969143D01*
X0030235714Y0032969143D01*
X0030121428Y0032912000D01*
X0030064285Y0032797714D01*
X0030064285Y0032169143D01*
X0029035714Y0032226286D02*
X0029150000Y0032169143D01*
X0029378571Y0032169143D01*
X0029492857Y0032226286D01*
X0029550000Y0032340572D01*
X0029550000Y0032797714D01*
X0029492857Y0032912000D01*
X0029378571Y0032969143D01*
X0029150000Y0032969143D01*
X0029035714Y0032912000D01*
X0028978571Y0032797714D01*
X0028978571Y0032683428D01*
X0029550000Y0032569142D01*
X0028464285Y0032169143D02*
X0028464285Y0032969143D01*
X0028464285Y0032740572D02*
X0028407142Y0032854858D01*
X0028350000Y0032912000D01*
X0028235714Y0032969143D01*
X0028121428Y0032969143D01*
X0027207142Y0032969143D02*
X0027207142Y0031997715D01*
X0027264285Y0031883429D01*
X0027321428Y0031826286D01*
X0027435714Y0031769143D01*
X0027607142Y0031769143D01*
X0027721428Y0031826286D01*
X0027207142Y0032226286D02*
X0027321428Y0032169143D01*
X0027550000Y0032169143D01*
X0027664285Y0032226286D01*
X0027721428Y0032283429D01*
X0027778571Y0032397714D01*
X0027778571Y0032740572D01*
X0027721428Y0032854858D01*
X0027664285Y0032912000D01*
X0027550000Y0032969143D01*
X0027321428Y0032969143D01*
X0027207142Y0032912000D01*
X0026750000Y0032969143D02*
X0026464285Y0032169143D01*
X0026178571Y0032969143D02*
X0026464285Y0032169143D01*
X0026578571Y0031883429D01*
X0026635714Y0031826286D01*
X0026750000Y0031769143D01*
X0024807142Y0032169143D02*
X0024807142Y0033369143D01*
X0024807142Y0032797714D02*
X0024121428Y0032797714D01*
X0024121428Y0032169143D02*
X0024121428Y0033369143D01*
X0023035714Y0032169143D02*
X0023035714Y0032797714D01*
X0023092857Y0032912000D01*
X0023207142Y0032969143D01*
X0023435714Y0032969143D01*
X0023550000Y0032912000D01*
X0023035714Y0032226286D02*
X0023150000Y0032169143D01*
X0023435714Y0032169143D01*
X0023550000Y0032226286D01*
X0023607142Y0032340572D01*
X0023607142Y0032454858D01*
X0023550000Y0032569142D01*
X0023435714Y0032626286D01*
X0023150000Y0032626286D01*
X0023035714Y0032683428D01*
X0022464285Y0032169143D02*
X0022464285Y0032969143D01*
X0022464285Y0032740572D02*
X0022407142Y0032854858D01*
X0022350000Y0032912000D01*
X0022235714Y0032969143D01*
X0022121428Y0032969143D01*
X0021835714Y0032969143D02*
X0021550000Y0032169143D01*
X0021264285Y0032969143D01*
X0020350000Y0032226286D02*
X0020464285Y0032169143D01*
X0020692857Y0032169143D01*
X0020807142Y0032226286D01*
X0020864285Y0032340572D01*
X0020864285Y0032797714D01*
X0020807142Y0032912000D01*
X0020692857Y0032969143D01*
X0020464285Y0032969143D01*
X0020350000Y0032912000D01*
X0020292857Y0032797714D01*
X0020292857Y0032683428D01*
X0020864285Y0032569142D01*
X0019835714Y0032226286D02*
X0019721428Y0032169143D01*
X0019492857Y0032169143D01*
X0019378571Y0032226286D01*
X0019321428Y0032340572D01*
X0019321428Y0032397714D01*
X0019378571Y0032512000D01*
X0019492857Y0032569142D01*
X0019664285Y0032569142D01*
X0019778571Y0032626286D01*
X0019835714Y0032740572D01*
X0019835714Y0032797714D01*
X0019778571Y0032912000D01*
X0019664285Y0032969143D01*
X0019492857Y0032969143D01*
X0019378571Y0032912000D01*
X0018978571Y0032969143D02*
X0018521428Y0032969143D01*
X0018807142Y0033369143D02*
X0018807142Y0032340572D01*
X0018750000Y0032226286D01*
X0018635714Y0032169143D01*
X0018521428Y0032169143D01*
X0018121428Y0032169143D02*
X0018121428Y0032969143D01*
X0018121428Y0033369143D02*
X0018178571Y0033311999D01*
X0018121428Y0033254858D01*
X0018064285Y0033311999D01*
X0018121428Y0033369143D01*
X0018121428Y0033254858D01*
X0017550000Y0032969143D02*
X0017550000Y0032169143D01*
X0017550000Y0032854858D02*
X0017492857Y0032912000D01*
X0017378571Y0032969143D01*
X0017207142Y0032969143D01*
X0017092857Y0032912000D01*
X0017035714Y0032797714D01*
X0017035714Y0032169143D01*
X0015950000Y0032969143D02*
X0015950000Y0031997715D01*
X0016007142Y0031883429D01*
X0016064285Y0031826286D01*
X0016178571Y0031769143D01*
X0016350000Y0031769143D01*
X0016464285Y0031826286D01*
X0015950000Y0032226286D02*
X0016064285Y0032169143D01*
X0016292857Y0032169143D01*
X0016407142Y0032226286D01*
X0016464285Y0032283429D01*
X0016521428Y0032397714D01*
X0016521428Y0032740572D01*
X0016464285Y0032854858D01*
X0016407142Y0032912000D01*
X0016292857Y0032969143D01*
X0016064285Y0032969143D01*
X0015950000Y0032912000D01*
X0031664285Y0030865715D02*
X0031264285Y0030865715D01*
X0031092857Y0030237143D02*
X0031664285Y0030237143D01*
X0031664285Y0031437143D01*
X0031092857Y0031437143D01*
X0030578571Y0030237143D02*
X0030578571Y0031437143D01*
X0030178571Y0030580000D01*
X0029778571Y0031437143D01*
X0029778571Y0030237143D01*
X0029035714Y0030922858D02*
X0029150000Y0030980000D01*
X0029207142Y0031037143D01*
X0029264285Y0031151429D01*
X0029264285Y0031208572D01*
X0029207142Y0031322858D01*
X0029150000Y0031380000D01*
X0029035714Y0031437143D01*
X0028807142Y0031437143D01*
X0028692857Y0031380000D01*
X0028635714Y0031322858D01*
X0028578571Y0031208572D01*
X0028578571Y0031151429D01*
X0028635714Y0031037143D01*
X0028692857Y0030980000D01*
X0028807142Y0030922858D01*
X0029035714Y0030922858D01*
X0029150000Y0030865715D01*
X0029207142Y0030808572D01*
X0029264285Y0030694286D01*
X0029264285Y0030465715D01*
X0029207142Y0030351429D01*
X0029150000Y0030294286D01*
X0029035714Y0030237143D01*
X0028807142Y0030237143D01*
X0028692857Y0030294286D01*
X0028635714Y0030351429D01*
X0028578571Y0030465715D01*
X0028578571Y0030694286D01*
X0028635714Y0030808572D01*
X0028692857Y0030865715D01*
X0028807142Y0030922858D01*
X0028007142Y0030237143D02*
X0027778571Y0030237143D01*
X0027664285Y0030294286D01*
X0027607142Y0030351429D01*
X0027492857Y0030522858D01*
X0027435714Y0030751429D01*
X0027435714Y0031208572D01*
X0027492857Y0031322858D01*
X0027550000Y0031380000D01*
X0027664285Y0031437143D01*
X0027892857Y0031437143D01*
X0028007142Y0031380000D01*
X0028064285Y0031322858D01*
X0028121428Y0031208572D01*
X0028121428Y0030922858D01*
X0028064285Y0030808572D01*
X0028007142Y0030751429D01*
X0027892857Y0030694286D01*
X0027664285Y0030694286D01*
X0027550000Y0030751429D01*
X0027492857Y0030808572D01*
X0027435714Y0030922858D01*
X0026692857Y0031437143D02*
X0026578571Y0031437143D01*
X0026464285Y0031380000D01*
X0026407142Y0031322858D01*
X0026350000Y0031208572D01*
X0026292857Y0030980000D01*
X0026292857Y0030694286D01*
X0026350000Y0030465715D01*
X0026407142Y0030351429D01*
X0026464285Y0030294286D01*
X0026578571Y0030237143D01*
X0026692857Y0030237143D01*
X0026807142Y0030294286D01*
X0026864285Y0030351429D01*
X0026921428Y0030465715D01*
X0026978571Y0030694286D01*
X0026978571Y0030980000D01*
X0026921428Y0031208572D01*
X0026864285Y0031322858D01*
X0026807142Y0031380000D01*
X0026692857Y0031437143D01*
X0025550000Y0031437143D02*
X0025435714Y0031437143D01*
X0025321428Y0031380000D01*
X0025264285Y0031322858D01*
X0025207142Y0031208572D01*
X0025150000Y0030980000D01*
X0025150000Y0030694286D01*
X0025207142Y0030465715D01*
X0025264285Y0030351429D01*
X0025321428Y0030294286D01*
X0025435714Y0030237143D01*
X0025550000Y0030237143D01*
X0025664285Y0030294286D01*
X0025721428Y0030351429D01*
X0025778571Y0030465715D01*
X0025835714Y0030694286D01*
X0025835714Y0030980000D01*
X0025778571Y0031208572D01*
X0025721428Y0031322858D01*
X0025664285Y0031380000D01*
X0025550000Y0031437143D01*
X0031835714Y0029505143D02*
X0031150000Y0029505143D01*
X0031492857Y0028305143D02*
X0031492857Y0029505143D01*
X0030750000Y0028933715D02*
X0030350000Y0028933715D01*
X0030178571Y0028305143D02*
X0030750000Y0028305143D01*
X0030750000Y0029505143D01*
X0030178571Y0029505143D01*
X0029035714Y0029448000D02*
X0029150000Y0029505143D01*
X0029321428Y0029505143D01*
X0029492857Y0029448000D01*
X0029607142Y0029333715D01*
X0029664285Y0029219429D01*
X0029721428Y0028990858D01*
X0029721428Y0028819429D01*
X0029664285Y0028590858D01*
X0029607142Y0028476572D01*
X0029492857Y0028362286D01*
X0029321428Y0028305143D01*
X0029207142Y0028305143D01*
X0029035714Y0028362286D01*
X0028978571Y0028419429D01*
X0028978571Y0028819429D01*
X0029207142Y0028819429D01*
%LPC*%
D11*
X0006426000Y0022525000D03*
X0006426000Y0017525000D03*
D12*
X0014808000Y0021255000D03*
X0014808000Y0018715000D03*
X0025476000Y0021255000D03*
X0025476000Y0018715000D03*
D13*
X0033604000Y0017445000D03*
X0033604000Y0022445000D03*
D14*
X0022428000Y0009825000D03*
X0017428000Y0009825000D03*
D15*
X0003048000Y0003048000D03*
X0037084000Y0037084000D03*
X0003048000Y0037084000D03*
X0037084000Y0003048000D03*
M02*