%TF.GenerationSoftware,KiCad,Pcbnew,(6.0.2)*%
%TF.CreationDate,2022-04-05T13:44:54-03:00*%
%TF.ProjectId,EM8900,454d3839-3030-42e6-9b69-6361645f7063,rev?*%
%TF.SameCoordinates,PX5f5e100PY8583b00*%
%TF.FileFunction,Copper,L1,Top*%
%TF.FilePolarity,Positive*%
%FSLAX46Y46*%
G04 Gerber Fmt 4.6, Leading zero omitted, Abs format (unit mm)*
G04 Created by KiCad (PCBNEW (6.0.2)) date 2022-04-05 13:44:54*
%MOMM*%
%LPD*%
G01*
G04 APERTURE LIST*
G04 Aperture macros list*
%AMRoundRect*
4,1,4,2,3,4,5,6,7,8,9,2,3,0*
1,1,$1,$2,$3*
1,1,$1,$2,$3*
1,1,$1,$2,$3*
1,1,$1,$2,$3*
20,1,$1,$2,$3,$4,$5,0*
20,1,$1,$2,$3,$4,$5,0*
20,1,$1,$2,$3,$4,$5,0*
20,1,$1,$2,$3,$4,$5,0*%
G04 Aperture macros list end*
%TA.AperFunction,SMDPad,CuDef*%
%AMCOMP13*
4,1,3,
-0.25,-0.475,
0.25,-0.475,
0.25,0.475,
-0.25,0.475,
0*
4,1,19,
-0.25,-0.22499999999999998,
-0.17274575140626314,-0.2372358709262116,
-0.10305368692688172,-0.27274575140626311,
-0.047745751406263137,-0.32805368692688169,
-0.012235870926211617,-0.39774575140626311,
0,-0.475,
-0.012235870926211589,-0.55225424859373684,
-0.047745751406263137,-0.62194631307311821,
-0.10305368692688169,-0.67725424859373684,
-0.17274575140626314,-0.71276412907378839,
-0.24999999999999997,-0.725,
-0.32725424859373692,-0.71276412907378839,
-0.39694631307311823,-0.67725424859373684,
-0.45225424859373686,-0.62194631307311832,
-0.48776412907378841,-0.55225424859373684,
-0.5,-0.47500000000000003,
-0.48776412907378841,-0.39774575140626317,
-0.45225424859373686,-0.32805368692688175,
-0.39694631307311834,-0.27274575140626311,
-0.32725424859373692,-0.2372358709262116,
0*
4,1,19,
0.25,-0.22499999999999998,
0.32725424859373686,-0.2372358709262116,
0.39694631307311828,-0.27274575140626311,
0.45225424859373686,-0.32805368692688169,
0.48776412907378841,-0.39774575140626311,
0.5,-0.475,
0.48776412907378841,-0.55225424859373684,
0.45225424859373686,-0.62194631307311821,
0.39694631307311834,-0.67725424859373684,
0.32725424859373686,-0.71276412907378839,
0.25000000000000006,-0.725,
0.17274575140626308,-0.71276412907378839,
0.10305368692688174,-0.67725424859373684,
0.047745751406263165,-0.62194631307311832,
0.012235870926211617,-0.55225424859373684,
0,-0.47500000000000003,
0.012235870926211589,-0.39774575140626317,
0.047745751406263109,-0.32805368692688175,
0.10305368692688166,-0.27274575140626311,
0.17274575140626308,-0.2372358709262116,
0*
4,1,19,
0.25,0.725,
0.32725424859373686,0.71276412907378839,
0.39694631307311828,0.67725424859373684,
0.45225424859373686,0.62194631307311821,
0.48776412907378841,0.55225424859373684,
0.5,0.475,
0.48776412907378841,0.39774575140626311,
0.45225424859373686,0.32805368692688175,
0.39694631307311834,0.27274575140626311,
0.32725424859373686,0.2372358709262116,
0.25000000000000006,0.22499999999999998,
0.17274575140626308,0.2372358709262116,
0.10305368692688174,0.27274575140626311,
0.047745751406263165,0.32805368692688164,
0.012235870926211617,0.39774575140626311,
0,0.47499999999999992,
0.012235870926211589,0.55225424859373673,
0.047745751406263109,0.62194631307311821,
0.10305368692688166,0.67725424859373684,
0.17274575140626308,0.71276412907378839,
0*
4,1,19,
-0.25,0.725,
-0.17274575140626314,0.71276412907378839,
-0.10305368692688172,0.67725424859373684,
-0.047745751406263137,0.62194631307311821,
-0.012235870926211617,0.55225424859373684,
0,0.475,
-0.012235870926211589,0.39774575140626311,
-0.047745751406263137,0.32805368692688175,
-0.10305368692688169,0.27274575140626311,
-0.17274575140626314,0.2372358709262116,
-0.24999999999999997,0.22499999999999998,
-0.32725424859373692,0.2372358709262116,
-0.39694631307311823,0.27274575140626311,
-0.45225424859373686,0.32805368692688164,
-0.48776412907378841,0.39774575140626311,
-0.5,0.47499999999999992,
-0.48776412907378841,0.55225424859373673,
-0.45225424859373686,0.62194631307311821,
-0.39694631307311834,0.67725424859373684,
-0.32725424859373692,0.71276412907378839,
0*
4,1,3,
-0.25,-0.725,
-0.24999999999999997,-0.22499999999999998,
0.25,-0.22499999999999998,
0.24999999999999997,-0.725,
0*
4,1,3,
0.5,-0.475,
0,-0.475,
0,0.475,
0.5,0.475,
0*
4,1,3,
0.25,0.725,
0.24999999999999997,0.22499999999999998,
-0.25,0.22499999999999998,
-0.24999999999999997,0.725,
0*
4,1,3,
-0.5,0.475,
0,0.475,
0,-0.475,
-0.5,-0.475,
0*%
%ADD10COMP13,0.25X-0.25X-0.475X0.25X-0.475X0.25X0.475X-0.25X0.475X0*%
%TD*%
%TA.AperFunction,SMDPad,CuDef*%
%AMCOMP14*
4,1,3,
0.475,-0.25,
0.475,0.25,
-0.475,0.25,
-0.475,-0.25,
0*
4,1,19,
0.475,0,
0.55225424859373684,-0.012235870926211617,
0.62194631307311821,-0.047745751406263137,
0.67725424859373684,-0.10305368692688172,
0.71276412907378839,-0.17274575140626314,
0.725,-0.24999999999999997,
0.71276412907378839,-0.32725424859373686,
0.67725424859373684,-0.39694631307311823,
0.62194631307311832,-0.45225424859373686,
0.55225424859373684,-0.48776412907378841,
0.47500000000000003,-0.5,
0.39774575140626306,-0.48776412907378841,
0.32805368692688175,-0.45225424859373686,
0.27274575140626311,-0.39694631307311834,
0.2372358709262116,-0.32725424859373686,
0.22499999999999998,-0.25000000000000006,
0.23723587092621157,-0.17274575140626319,
0.27274575140626311,-0.10305368692688177,
0.32805368692688164,-0.047745751406263165,
0.39774575140626306,-0.012235870926211617,
0*
4,1,19,
0.475,0.5,
0.55225424859373684,0.48776412907378841,
0.62194631307311821,0.45225424859373686,
0.67725424859373684,0.39694631307311828,
0.71276412907378839,0.32725424859373686,
0.725,0.25,
0.71276412907378839,0.17274575140626316,
0.67725424859373684,0.10305368692688174,
0.62194631307311832,0.047745751406263165,
0.55225424859373684,0.012235870926211617,
0.47500000000000003,0,
0.39774575140626306,0.012235870926211617,
0.32805368692688175,0.047745751406263109,
0.27274575140626311,0.10305368692688169,
0.2372358709262116,0.17274575140626311,
0.22499999999999998,0.24999999999999994,
0.23723587092621157,0.32725424859373681,
0.27274575140626311,0.39694631307311823,
0.32805368692688164,0.45225424859373686,
0.39774575140626306,0.48776412907378841,
0*
4,1,19,
-0.475,0.5,
-0.39774575140626311,0.48776412907378841,
-0.32805368692688169,0.45225424859373686,
-0.27274575140626311,0.39694631307311828,
-0.2372358709262116,0.32725424859373686,
-0.22499999999999998,0.25,
-0.23723587092621157,0.17274575140626316,
-0.27274575140626311,0.10305368692688174,
-0.32805368692688164,0.047745751406263165,
-0.39774575140626311,0.012235870926211617,
-0.47499999999999992,0,
-0.552254248593737,0.012235870926211617,
-0.62194631307311821,0.047745751406263109,
-0.67725424859373684,0.10305368692688169,
-0.71276412907378839,0.17274575140626311,
-0.725,0.24999999999999994,
-0.71276412907378839,0.32725424859373681,
-0.67725424859373684,0.39694631307311823,
-0.62194631307311832,0.45225424859373686,
-0.55225424859373684,0.48776412907378841,
0*
4,1,19,
-0.475,0,
-0.39774575140626311,-0.012235870926211617,
-0.32805368692688169,-0.047745751406263137,
-0.27274575140626311,-0.10305368692688172,
-0.2372358709262116,-0.17274575140626314,
-0.22499999999999998,-0.24999999999999997,
-0.23723587092621157,-0.32725424859373686,
-0.27274575140626311,-0.39694631307311823,
-0.32805368692688164,-0.45225424859373686,
-0.39774575140626311,-0.48776412907378841,
-0.47499999999999992,-0.5,
-0.552254248593737,-0.48776412907378841,
-0.62194631307311821,-0.45225424859373686,
-0.67725424859373684,-0.39694631307311834,
-0.71276412907378839,-0.32725424859373686,
-0.725,-0.25000000000000006,
-0.71276412907378839,-0.17274575140626319,
-0.67725424859373684,-0.10305368692688177,
-0.62194631307311832,-0.047745751406263165,
-0.55225424859373684,-0.012235870926211617,
0*
4,1,3,
0.725,-0.25,
0.22499999999999998,-0.24999999999999997,
0.22499999999999998,0.25,
0.725,0.24999999999999997,
0*
4,1,3,
0.475,0.5,
0.475,0,
-0.475,0,
-0.475,0.5,
0*
4,1,3,
-0.725,0.25,
-0.22499999999999998,0.24999999999999997,
-0.22499999999999998,-0.25,
-0.725,-0.24999999999999997,
0*
4,1,3,
-0.475,-0.5,
-0.475,0,
0.475,0,
0.475,-0.5,
0*%
%ADD11COMP14,0.25X0.475X-0.25X0.475X0.25X-0.475X0.25X-0.475X-0.25X0*%
%TD*%
%TA.AperFunction,SMDPad,CuDef*%
%ADD12R,0.8X0.3*%
%TD*%
%TA.AperFunction,SMDPad,CuDef*%
%ADD13R,1.8X2.5*%
%TD*%
%TA.AperFunction,ComponentPad*%
%AMCOMP15*
4,1,3,
-0.75,0.75,
-0.75,-0.75,
0.75,-0.75,
0.75,0.75,
0*
4,1,19,
-0.75,1.5,
-0.51823725421878941,1.4632923872213652,
-0.30916106078064515,1.3567627457812106,
-0.14323725421878941,1.1908389392193548,
-0.036707612778634879,0.98176274578121059,
0,0.75,
-0.036707612778634768,0.51823725421878952,
-0.14323725421878941,0.3091610607806452,
-0.30916106078064509,0.14323725421878952,
-0.51823725421878941,0.036707612778634879,
-0.74999999999999989,0,
-0.98176274578121081,0.036707612778634879,
-1.1908389392193548,0.1432372542187893,
-1.3567627457812104,0.30916106078064509,
-1.4632923872213652,0.5182372542187893,
-1.5,0.74999999999999989,
-1.4632923872213652,0.98176274578121037,
-1.3567627457812108,1.1908389392193546,
-1.190838939219355,1.3567627457812104,
-0.9817627457812107,1.4632923872213652,
0*
4,1,19,
-0.75,0,
-0.51823725421878941,-0.036707612778634879,
-0.30916106078064515,-0.14323725421878941,
-0.14323725421878941,-0.30916106078064515,
-0.036707612778634879,-0.51823725421878941,
0,-0.75,
-0.036707612778634768,-0.98176274578121048,
-0.14323725421878941,-1.1908389392193548,
-0.30916106078064509,-1.3567627457812104,
-0.51823725421878941,-1.4632923872213652,
-0.74999999999999989,-1.5,
-0.98176274578121081,-1.4632923872213652,
-1.1908389392193548,-1.3567627457812108,
-1.3567627457812104,-1.190838939219355,
-1.4632923872213652,-0.9817627457812107,
-1.5,-0.75000000000000011,
-1.4632923872213652,-0.51823725421878963,
-1.3567627457812108,-0.30916106078064531,
-1.190838939219355,-0.14323725421878952,
-0.9817627457812107,-0.036707612778634879,
0*
4,1,19,
0.75,0,
0.98176274578121059,-0.036707612778634879,
1.1908389392193548,-0.14323725421878941,
1.3567627457812106,-0.30916106078064515,
1.4632923872213652,-0.51823725421878941,
1.5,-0.75,
1.4632923872213652,-0.98176274578121048,
1.3567627457812106,-1.1908389392193548,
1.190838939219355,-1.3567627457812104,
0.98176274578121059,-1.4632923872213652,
0.75000000000000011,-1.5,
0.51823725421878919,-1.4632923872213652,
0.3091610607806452,-1.3567627457812108,
0.14323725421878952,-1.190838939219355,
0.036707612778634879,-0.9817627457812107,
0,-0.75000000000000011,
0.036707612778634768,-0.51823725421878963,
0.1432372542187893,-0.30916106078064531,
0.309161060780645,-0.14323725421878952,
0.5182372542187893,-0.036707612778634879,
0*
4,1,19,
0.75,1.5,
0.98176274578121059,1.4632923872213652,
1.1908389392193548,1.3567627457812106,
1.3567627457812106,1.1908389392193548,
1.4632923872213652,0.98176274578121059,
1.5,0.75,
1.4632923872213652,0.51823725421878952,
1.3567627457812106,0.3091610607806452,
1.190838939219355,0.14323725421878952,
0.98176274578121059,0.036707612778634879,
0.75000000000000011,0,
0.51823725421878919,0.036707612778634879,
0.3091610607806452,0.1432372542187893,
0.14323725421878952,0.30916106078064509,
0.036707612778634879,0.5182372542187893,
0,0.74999999999999989,
0.036707612778634768,0.98176274578121037,
0.1432372542187893,1.1908389392193546,
0.309161060780645,1.3567627457812104,
0.5182372542187893,1.4632923872213652,
0*
4,1,3,
-1.5,0.75,
0,0.75,
0,-0.75,
-1.5,-0.75,
0*
4,1,3,
-0.75,-1.5,
-0.75,0,
0.75,0,
0.75,-1.5,
0*
4,1,3,
1.5,-0.75,
0,-0.75,
0,0.75,
1.5,0.75,
0*
4,1,3,
0.75,1.5,
0.75,0,
-0.75,0,
-0.75,1.5,
0*%
%ADD14COMP15,0.75X-0.75X0.75X-0.75X-0.75X0.75X-0.75X0.75X0.75X0*%
%TD*%
%TA.AperFunction,ComponentPad*%
%AMCOMP16*
4,1,3,
-1.075,-0.425,
1.075,-0.425,
1.075,0.425,
-1.075,0.425,
0*
4,1,19,
-1.075,0,
-0.94366777739064733,-0.020800980574559758,
-0.82519126777569884,-0.081167777390647344,
-0.73116777739064731,-0.17519126777569891,
-0.67080098057455972,-0.29366777739064731,
-0.64999999999999991,-0.425,
-0.67080098057455961,-0.55633222260935256,
-0.73116777739064731,-0.674808732224301,
-0.82519126777569884,-0.76883222260935258,
-0.94366777739064722,-0.82919901942544016,
-1.075,-0.85,
-1.2063322226093527,-0.82919901942544016,
-1.324808732224301,-0.76883222260935269,
-1.4188322226093526,-0.674808732224301,
-1.4791990194254403,-0.55633222260935267,
-1.5,-0.42500000000000004,
-1.4791990194254403,-0.29366777739064742,
-1.4188322226093526,-0.17519126777569902,
-1.3248087322243012,-0.0811677773906474,
-1.2063322226093527,-0.020800980574559758,
0*
4,1,19,
1.075,0,
1.2063322226093527,-0.020800980574559758,
1.324808732224301,-0.081167777390647344,
1.4188322226093526,-0.17519126777569891,
1.4791990194254403,-0.29366777739064731,
1.5,-0.425,
1.4791990194254403,-0.55633222260935256,
1.4188322226093526,-0.674808732224301,
1.3248087322243012,-0.76883222260935258,
1.2063322226093527,-0.82919901942544016,
1.075,-0.85,
0.94366777739064722,-0.82919901942544016,
0.825191267775699,-0.76883222260935269,
0.73116777739064731,-0.674808732224301,
0.67080098057455972,-0.55633222260935267,
0.64999999999999991,-0.42500000000000004,
0.67080098057455961,-0.29366777739064742,
0.73116777739064731,-0.17519126777569902,
0.82519126777569873,-0.0811677773906474,
0.94366777739064722,-0.020800980574559758,
0*
4,1,19,
1.075,0.85,
1.2063322226093527,0.82919901942544016,
1.324808732224301,0.76883222260935269,
1.4188322226093526,0.674808732224301,
1.4791990194254403,0.55633222260935267,
1.5,0.425,
1.4791990194254403,0.29366777739064737,
1.4188322226093526,0.17519126777569896,
1.3248087322243012,0.0811677773906474,
1.2063322226093527,0.020800980574559758,
1.075,0,
0.94366777739064722,0.020800980574559758,
0.825191267775699,0.081167777390647289,
0.73116777739064731,0.17519126777569888,
0.67080098057455972,0.29366777739064731,
0.64999999999999991,0.42499999999999993,
0.67080098057455961,0.55633222260935256,
0.73116777739064731,0.67480873222430093,
0.82519126777569873,0.76883222260935258,
0.94366777739064722,0.82919901942544016,
0*
4,1,19,
-1.075,0.85,
-0.94366777739064733,0.82919901942544016,
-0.82519126777569884,0.76883222260935269,
-0.73116777739064731,0.674808732224301,
-0.67080098057455972,0.55633222260935267,
-0.64999999999999991,0.425,
-0.67080098057455961,0.29366777739064737,
-0.73116777739064731,0.17519126777569896,
-0.82519126777569884,0.0811677773906474,
-0.94366777739064722,0.020800980574559758,
-1.075,0,
-1.2063322226093527,0.020800980574559758,
-1.324808732224301,0.081167777390647289,
-1.4188322226093526,0.17519126777569888,
-1.4791990194254403,0.29366777739064731,
-1.5,0.42499999999999993,
-1.4791990194254403,0.55633222260935256,
-1.4188322226093526,0.67480873222430093,
-1.3248087322243012,0.76883222260935258,
-1.2063322226093527,0.82919901942544016,
0*
4,1,3,
-1.075,-0.85,
-1.075,0,
1.075,0,
1.075,-0.85,
0*
4,1,3,
1.5,-0.425,
0.64999999999999991,-0.425,
0.64999999999999991,0.425,
1.5,0.425,
0*
4,1,3,
1.075,0.85,
1.075,0,
-1.075,0,
-1.075,0.85,
0*
4,1,3,
-1.5,0.425,
-0.64999999999999991,0.425,
-0.64999999999999991,-0.425,
-1.5,-0.425,
0*%
%ADD15COMP16,0.425X-1.075X-0.425X1.075X-0.425X1.075X0.425X-1.075X0.425X0*%
%TD*%
%TA.AperFunction,SMDPad,CuDef*%
%ADD16R,1.4X2.6*%
%TD*%
%TA.AperFunction,SMDPad,CuDef*%
%ADD17R,2.6X1.4*%
%TD*%
%TA.AperFunction,ComponentPad*%
%AMCOMP17*
4,1,3,
0.75,-0.75,
0.75,0.75,
-0.75,0.75,
-0.75,-0.75,
0*
4,1,19,
0.75,0,
0.98176274578121059,-0.036707612778634879,
1.1908389392193548,-0.14323725421878941,
1.3567627457812106,-0.30916106078064515,
1.4632923872213652,-0.51823725421878941,
1.5,-0.75,
1.4632923872213652,-0.98176274578121048,
1.3567627457812106,-1.1908389392193548,
1.190838939219355,-1.3567627457812104,
0.98176274578121059,-1.4632923872213652,
0.75000000000000011,-1.5,
0.51823725421878919,-1.4632923872213652,
0.3091610607806452,-1.3567627457812108,
0.14323725421878952,-1.190838939219355,
0.036707612778634879,-0.9817627457812107,
0,-0.75000000000000011,
0.036707612778634768,-0.51823725421878963,
0.1432372542187893,-0.30916106078064531,
0.309161060780645,-0.14323725421878952,
0.5182372542187893,-0.036707612778634879,
0*
4,1,19,
0.75,1.5,
0.98176274578121059,1.4632923872213652,
1.1908389392193548,1.3567627457812106,
1.3567627457812106,1.1908389392193548,
1.4632923872213652,0.98176274578121059,
1.5,0.75,
1.4632923872213652,0.51823725421878952,
1.3567627457812106,0.3091610607806452,
1.190838939219355,0.14323725421878952,
0.98176274578121059,0.036707612778634879,
0.75000000000000011,0,
0.51823725421878919,0.036707612778634879,
0.3091610607806452,0.1432372542187893,
0.14323725421878952,0.30916106078064509,
0.036707612778634879,0.5182372542187893,
0,0.74999999999999989,
0.036707612778634768,0.98176274578121037,
0.1432372542187893,1.1908389392193546,
0.309161060780645,1.3567627457812104,
0.5182372542187893,1.4632923872213652,
0*
4,1,19,
-0.75,1.5,
-0.51823725421878941,1.4632923872213652,
-0.30916106078064515,1.3567627457812106,
-0.14323725421878941,1.1908389392193548,
-0.036707612778634879,0.98176274578121059,
0,0.75,
-0.036707612778634768,0.51823725421878952,
-0.14323725421878941,0.3091610607806452,
-0.30916106078064509,0.14323725421878952,
-0.51823725421878941,0.036707612778634879,
-0.74999999999999989,0,
-0.98176274578121081,0.036707612778634879,
-1.1908389392193548,0.1432372542187893,
-1.3567627457812104,0.30916106078064509,
-1.4632923872213652,0.5182372542187893,
-1.5,0.74999999999999989,
-1.4632923872213652,0.98176274578121037,
-1.3567627457812108,1.1908389392193546,
-1.190838939219355,1.3567627457812104,
-0.9817627457812107,1.4632923872213652,
0*
4,1,19,
-0.75,0,
-0.51823725421878941,-0.036707612778634879,
-0.30916106078064515,-0.14323725421878941,
-0.14323725421878941,-0.30916106078064515,
-0.036707612778634879,-0.51823725421878941,
0,-0.75,
-0.036707612778634768,-0.98176274578121048,
-0.14323725421878941,-1.1908389392193548,
-0.30916106078064509,-1.3567627457812104,
-0.51823725421878941,-1.4632923872213652,
-0.74999999999999989,-1.5,
-0.98176274578121081,-1.4632923872213652,
-1.1908389392193548,-1.3567627457812108,
-1.3567627457812104,-1.190838939219355,
-1.4632923872213652,-0.9817627457812107,
-1.5,-0.75000000000000011,
-1.4632923872213652,-0.51823725421878963,
-1.3567627457812108,-0.30916106078064531,
-1.190838939219355,-0.14323725421878952,
-0.9817627457812107,-0.036707612778634879,
0*
4,1,3,
1.5,-0.75,
0,-0.75,
0,0.75,
1.5,0.75,
0*
4,1,3,
0.75,1.5,
0.75,0,
-0.75,0,
-0.75,1.5,
0*
4,1,3,
-1.5,0.75,
0,0.75,
0,-0.75,
-1.5,-0.75,
0*
4,1,3,
-0.75,-1.5,
-0.75,0,
0.75,0,
0.75,-1.5,
0*%
%ADD18COMP17,0.75X0.75X-0.75X0.75X0.75X-0.75X0.75X-0.75X-0.75X0*%
%TD*%
%TA.AperFunction,SMDPad,CuDef*%
%AMCOMP18*
4,1,3,
0.25,0.475,
-0.25,0.475,
-0.25,-0.475,
0.25,-0.475,
0*
4,1,19,
0.25,0.725,
0.32725424859373686,0.71276412907378839,
0.39694631307311828,0.67725424859373684,
0.45225424859373686,0.62194631307311821,
0.48776412907378841,0.55225424859373684,
0.5,0.475,
0.48776412907378841,0.39774575140626311,
0.45225424859373686,0.32805368692688175,
0.39694631307311834,0.27274575140626311,
0.32725424859373686,0.2372358709262116,
0.25000000000000006,0.22499999999999998,
0.17274575140626308,0.2372358709262116,
0.10305368692688174,0.27274575140626311,
0.047745751406263165,0.32805368692688164,
0.012235870926211617,0.39774575140626311,
0,0.47499999999999992,
0.012235870926211589,0.55225424859373673,
0.047745751406263109,0.62194631307311821,
0.10305368692688166,0.67725424859373684,
0.17274575140626308,0.71276412907378839,
0*
4,1,19,
-0.25,0.725,
-0.17274575140626314,0.71276412907378839,
-0.10305368692688172,0.67725424859373684,
-0.047745751406263137,0.62194631307311821,
-0.012235870926211617,0.55225424859373684,
0,0.475,
-0.012235870926211589,0.39774575140626311,
-0.047745751406263137,0.32805368692688175,
-0.10305368692688169,0.27274575140626311,
-0.17274575140626314,0.2372358709262116,
-0.24999999999999997,0.22499999999999998,
-0.32725424859373692,0.2372358709262116,
-0.39694631307311823,0.27274575140626311,
-0.45225424859373686,0.32805368692688164,
-0.48776412907378841,0.39774575140626311,
-0.5,0.47499999999999992,
-0.48776412907378841,0.55225424859373673,
-0.45225424859373686,0.62194631307311821,
-0.39694631307311834,0.67725424859373684,
-0.32725424859373692,0.71276412907378839,
0*
4,1,19,
-0.25,-0.22499999999999998,
-0.17274575140626314,-0.2372358709262116,
-0.10305368692688172,-0.27274575140626311,
-0.047745751406263137,-0.32805368692688169,
-0.012235870926211617,-0.39774575140626311,
0,-0.475,
-0.012235870926211589,-0.55225424859373684,
-0.047745751406263137,-0.62194631307311821,
-0.10305368692688169,-0.67725424859373684,
-0.17274575140626314,-0.71276412907378839,
-0.24999999999999997,-0.725,
-0.32725424859373692,-0.71276412907378839,
-0.39694631307311823,-0.67725424859373684,
-0.45225424859373686,-0.62194631307311832,
-0.48776412907378841,-0.55225424859373684,
-0.5,-0.47500000000000003,
-0.48776412907378841,-0.39774575140626317,
-0.45225424859373686,-0.32805368692688175,
-0.39694631307311834,-0.27274575140626311,
-0.32725424859373692,-0.2372358709262116,
0*
4,1,19,
0.25,-0.22499999999999998,
0.32725424859373686,-0.2372358709262116,
0.39694631307311828,-0.27274575140626311,
0.45225424859373686,-0.32805368692688169,
0.48776412907378841,-0.39774575140626311,
0.5,-0.475,
0.48776412907378841,-0.55225424859373684,
0.45225424859373686,-0.62194631307311821,
0.39694631307311834,-0.67725424859373684,
0.32725424859373686,-0.71276412907378839,
0.25000000000000006,-0.725,
0.17274575140626308,-0.71276412907378839,
0.10305368692688174,-0.67725424859373684,
0.047745751406263165,-0.62194631307311832,
0.012235870926211617,-0.55225424859373684,
0,-0.47500000000000003,
0.012235870926211589,-0.39774575140626317,
0.047745751406263109,-0.32805368692688175,
0.10305368692688166,-0.27274575140626311,
0.17274575140626308,-0.2372358709262116,
0*
4,1,3,
0.25,0.725,
0.24999999999999997,0.22499999999999998,
-0.25,0.22499999999999998,
-0.24999999999999997,0.725,
0*
4,1,3,
-0.5,0.475,
0,0.475,
0,-0.475,
-0.5,-0.475,
0*
4,1,3,
-0.25,-0.725,
-0.24999999999999997,-0.22499999999999998,
0.25,-0.22499999999999998,
0.24999999999999997,-0.725,
0*
4,1,3,
0.5,-0.475,
0,-0.475,
0,0.475,
0.5,0.475,
0*%
%ADD19COMP18,0.25X0.25X0.475X-0.25X0.475X-0.25X-0.475X0.25X-0.475X0*%
%TD*%
%TA.AperFunction,ComponentPad*%
%AMCOMP19*
4,1,3,
0.75,0.75,
-0.75,0.75,
-0.75,-0.75,
0.75,-0.75,
0*
4,1,19,
0.75,1.5,
0.98176274578121059,1.4632923872213652,
1.1908389392193548,1.3567627457812106,
1.3567627457812106,1.1908389392193548,
1.4632923872213652,0.98176274578121059,
1.5,0.75,
1.4632923872213652,0.51823725421878952,
1.3567627457812106,0.3091610607806452,
1.190838939219355,0.14323725421878952,
0.98176274578121059,0.036707612778634879,
0.75000000000000011,0,
0.51823725421878919,0.036707612778634879,
0.3091610607806452,0.1432372542187893,
0.14323725421878952,0.30916106078064509,
0.036707612778634879,0.5182372542187893,
0,0.74999999999999989,
0.036707612778634768,0.98176274578121037,
0.1432372542187893,1.1908389392193546,
0.309161060780645,1.3567627457812104,
0.5182372542187893,1.4632923872213652,
0*
4,1,19,
-0.75,1.5,
-0.51823725421878941,1.4632923872213652,
-0.30916106078064515,1.3567627457812106,
-0.14323725421878941,1.1908389392193548,
-0.036707612778634879,0.98176274578121059,
0,0.75,
-0.036707612778634768,0.51823725421878952,
-0.14323725421878941,0.3091610607806452,
-0.30916106078064509,0.14323725421878952,
-0.51823725421878941,0.036707612778634879,
-0.74999999999999989,0,
-0.98176274578121081,0.036707612778634879,
-1.1908389392193548,0.1432372542187893,
-1.3567627457812104,0.30916106078064509,
-1.4632923872213652,0.5182372542187893,
-1.5,0.74999999999999989,
-1.4632923872213652,0.98176274578121037,
-1.3567627457812108,1.1908389392193546,
-1.190838939219355,1.3567627457812104,
-0.9817627457812107,1.4632923872213652,
0*
4,1,19,
-0.75,0,
-0.51823725421878941,-0.036707612778634879,
-0.30916106078064515,-0.14323725421878941,
-0.14323725421878941,-0.30916106078064515,
-0.036707612778634879,-0.51823725421878941,
0,-0.75,
-0.036707612778634768,-0.98176274578121048,
-0.14323725421878941,-1.1908389392193548,
-0.30916106078064509,-1.3567627457812104,
-0.51823725421878941,-1.4632923872213652,
-0.74999999999999989,-1.5,
-0.98176274578121081,-1.4632923872213652,
-1.1908389392193548,-1.3567627457812108,
-1.3567627457812104,-1.190838939219355,
-1.4632923872213652,-0.9817627457812107,
-1.5,-0.75000000000000011,
-1.4632923872213652,-0.51823725421878963,
-1.3567627457812108,-0.30916106078064531,
-1.190838939219355,-0.14323725421878952,
-0.9817627457812107,-0.036707612778634879,
0*
4,1,19,
0.75,0,
0.98176274578121059,-0.036707612778634879,
1.1908389392193548,-0.14323725421878941,
1.3567627457812106,-0.30916106078064515,
1.4632923872213652,-0.51823725421878941,
1.5,-0.75,
1.4632923872213652,-0.98176274578121048,
1.3567627457812106,-1.1908389392193548,
1.190838939219355,-1.3567627457812104,
0.98176274578121059,-1.4632923872213652,
0.75000000000000011,-1.5,
0.51823725421878919,-1.4632923872213652,
0.3091610607806452,-1.3567627457812108,
0.14323725421878952,-1.190838939219355,
0.036707612778634879,-0.9817627457812107,
0,-0.75000000000000011,
0.036707612778634768,-0.51823725421878963,
0.1432372542187893,-0.30916106078064531,
0.309161060780645,-0.14323725421878952,
0.5182372542187893,-0.036707612778634879,
0*
4,1,3,
0.75,1.5,
0.75,0,
-0.75,0,
-0.75,1.5,
0*
4,1,3,
-1.5,0.75,
0,0.75,
0,-0.75,
-1.5,-0.75,
0*
4,1,3,
-0.75,-1.5,
-0.75,0,
0.75,0,
0.75,-1.5,
0*
4,1,3,
1.5,-0.75,
0,-0.75,
0,0.75,
1.5,0.75,
0*%
%ADD20COMP19,0.75X0.75X0.75X-0.75X0.75X-0.75X-0.75X0.75X-0.75X0*%
%TD*%
%TA.AperFunction,ComponentPad*%
%ADD21C,5*%
%TD*%
%TA.AperFunction,Conductor*%
%ADD22C,0.4*%
%TD*%
%TA.AperFunction,Conductor*%
%ADD23C,0.3*%
%TD*%
G04 APERTURE END LIST*
D10*
X0000000000Y0000000000D02*
X0018938000Y0023033000D03*
X0020838000Y0023033000D03*
X0018938000Y0025192000D03*
X0020838000Y0025192000D03*
D11*
X0023063000Y0019035000D03*
X0023063000Y0020935000D03*
D12*
X0018500000Y0021000000D03*
X0018500000Y0020500000D03*
X0018500000Y0020000000D03*
X0018500000Y0019500000D03*
X0018500000Y0019000000D03*
X0021500000Y0019000000D03*
X0021500000Y0019500000D03*
X0021500000Y0020000000D03*
X0021500000Y0020500000D03*
X0021500000Y0021000000D03*
D13*
X0020000000Y0020000000D03*
D14*
X0006426000Y0022525000D03*
X0006426000Y0017525000D03*
D15*
X0014808000Y0021255000D03*
X0014808000Y0018715000D03*
X0025476000Y0021255000D03*
X0025476000Y0018715000D03*
D16*
X0022150000Y0028621000D03*
D17*
X0021550000Y0033701000D03*
D16*
X0017150000Y0033701000D03*
D17*
X0017750000Y0028621000D03*
D18*
X0033604000Y0017445000D03*
X0033604000Y0022445000D03*
D19*
X0020965000Y0017064000D03*
X0019065000Y0017064000D03*
D20*
X0022428000Y0009825000D03*
X0017428000Y0009825000D03*
D21*
X0003048000Y0003048000D03*
X0037084000Y0037084000D03*
X0003048000Y0037084000D03*
X0037084000Y0003048000D03*
D22*
X0015062000Y0021255000D02*
X0014808000Y0021255000D01*
X0019065000Y0017064000D02*
X0019065000Y0017252000D01*
X0017094000Y0028621000D02*
X0017750000Y0028621000D01*
X0007696000Y0021255000D02*
X0006426000Y0022525000D01*
X0014808000Y0026335000D02*
X0017094000Y0028621000D01*
X0019065000Y0017252000D02*
X0015062000Y0021255000D01*
X0014808000Y0021255000D02*
X0007696000Y0021255000D01*
X0014808000Y0021255000D02*
X0014808000Y0026335000D01*
X0032334000Y0018715000D02*
X0033604000Y0017445000D01*
X0005076000Y0017525000D02*
X0006426000Y0017525000D01*
X0023190000Y0019035000D02*
X0025029000Y0019035000D01*
X0007616000Y0018715000D02*
X0006426000Y0017525000D01*
X0021500000Y0017599000D02*
X0021500000Y0019000000D01*
X0021550000Y0034833000D02*
X0019634000Y0036749000D01*
X0003124000Y0027351000D02*
X0003124000Y0019477000D01*
X0014808000Y0012492000D02*
X0017475000Y0009825000D01*
X0003124000Y0019477000D02*
X0005076000Y0017525000D01*
X0023155000Y0019000000D02*
X0023190000Y0019035000D01*
D23*
X0021500000Y0020500000D02*
X0021500000Y0019000000D01*
D22*
X0012522000Y0036749000D02*
X0003124000Y0027351000D01*
X0020965000Y0017064000D02*
X0020965000Y0013315000D01*
X0020965000Y0017064000D02*
X0021500000Y0017599000D01*
X0020965000Y0013315000D02*
X0017475000Y0009825000D01*
X0021550000Y0033701000D02*
X0021550000Y0034833000D01*
X0025349000Y0018715000D02*
X0032334000Y0018715000D01*
X0025029000Y0019035000D02*
X0025349000Y0018715000D01*
X0019634000Y0036749000D02*
X0012522000Y0036749000D01*
X0014808000Y0018715000D02*
X0014808000Y0012492000D01*
X0014808000Y0018715000D02*
X0007616000Y0018715000D01*
X0020838000Y0025192000D02*
X0020838000Y0026777000D01*
X0022150000Y0028089000D02*
X0022150000Y0028621000D01*
X0020838000Y0026777000D02*
X0022150000Y0028089000D01*
X0020838000Y0023033000D02*
X0020838000Y0025192000D01*
X0018500000Y0022595000D02*
X0018500000Y0021050001D01*
X0018938000Y0023033000D02*
X0018500000Y0022595000D01*
D23*
X0017475000Y0023729000D02*
X0018938000Y0025192000D01*
X0017800000Y0020500000D02*
X0017475000Y0020825000D01*
X0017475000Y0020825000D02*
X0017475000Y0023729000D01*
X0018500000Y0020500000D02*
X0017800000Y0020500000D01*
D22*
X0022475000Y0009825000D02*
X0031191000Y0009825000D01*
X0037287000Y0019350000D02*
X0034192000Y0022445000D01*
D23*
X0021500000Y0021000000D02*
X0023125000Y0021000000D01*
D22*
X0023190000Y0020935000D02*
X0025029000Y0020935000D01*
X0037287000Y0015921000D02*
X0037287000Y0019350000D01*
X0034192000Y0022445000D02*
X0033604000Y0022445000D01*
X0028524000Y0021255000D02*
X0029667000Y0022398000D01*
X0029667000Y0022398000D02*
X0033557000Y0022398000D01*
X0033557000Y0022398000D02*
X0033604000Y0022445000D01*
X0025029000Y0020935000D02*
X0025349000Y0021255000D01*
X0025349000Y0021255000D02*
X0028524000Y0021255000D01*
D23*
X0023125000Y0021000000D02*
X0023190000Y0020935000D01*
D22*
X0031191000Y0009825000D02*
X0037287000Y0015921000D01*
D23*
X0018500000Y0020000000D02*
X0018500000Y0019000000D01*
X0018500000Y0020000000D02*
X0017592880Y0020000000D01*
X0016840000Y0020752880D02*
X0016840000Y0025065000D01*
X0019634000Y0027859000D02*
X0019634000Y0030526000D01*
X0017150000Y0033009999D02*
X0017150000Y0033701000D01*
X0019634000Y0030526000D02*
X0017150000Y0033009999D01*
X0016840000Y0025065000D02*
X0019634000Y0027859000D01*
X0017592880Y0020000000D02*
X0016840000Y0020752880D01*
%TA.AperFunction,Conductor*%
G36*
X0035000381Y0039471998D02*
G01*
X0035046874Y0039418342D01*
X0035056978Y0039348068D01*
X0035027484Y0039283488D01*
X0035021822Y0039277373D01*
X0034823466Y0039076929D01*
X0034821225Y0039074071D01*
X0034764732Y0039002022D01*
X0034609386Y0038803902D01*
X0034607493Y0038800813D01*
X0034607491Y0038800810D01*
X0034561233Y0038725324D01*
X0034428105Y0038508079D01*
X0034426580Y0038504794D01*
X0034426578Y0038504790D01*
X0034387505Y0038420614D01*
X0034282027Y0038193380D01*
X0034173087Y0037863977D01*
X0034102730Y0037524236D01*
X0034071888Y0037178659D01*
X0034071983Y0037175029D01*
X0034071983Y0037175028D01*
X0034074367Y0037084000D01*
X0034080970Y0036831829D01*
X0034129856Y0036488340D01*
X0034217897Y0036152747D01*
X0034343927Y0035829497D01*
X0034345624Y0035826292D01*
X0034479113Y0035574175D01*
X0034506275Y0035522874D01*
X0034508325Y0035519891D01*
X0034508327Y0035519888D01*
X0034700733Y0035239936D01*
X0034700739Y0035239929D01*
X0034702790Y0035236944D01*
X0034705178Y0035234207D01*
X0034908597Y0035001023D01*
X0034930866Y0034975495D01*
X0034933551Y0034973052D01*
X0035143268Y0034782225D01*
X0035187481Y0034741994D01*
X0035469233Y0034539534D01*
X0035772388Y0034370800D01*
X0036092928Y0034238028D01*
X0036096422Y0034237033D01*
X0036096424Y0034237032D01*
X0036423103Y0034143975D01*
X0036423108Y0034143974D01*
X0036426604Y0034142978D01*
X0036623304Y0034110767D01*
X0036765412Y0034087496D01*
X0036765419Y0034087495D01*
X0036768993Y0034086910D01*
X0036942275Y0034078738D01*
X0037111931Y0034070737D01*
X0037111932Y0034070737D01*
X0037115558Y0034070566D01*
X0037124415Y0034071170D01*
X0037458073Y0034093916D01*
X0037458081Y0034093917D01*
X0037461704Y0034094164D01*
X0037465279Y0034094827D01*
X0037465282Y0034094827D01*
X0037799279Y0034156730D01*
X0037799283Y0034156731D01*
X0037802844Y0034157391D01*
X0038134456Y0034259408D01*
X0038452145Y0034398864D01*
X0038543909Y0034452486D01*
X0038748560Y0034572074D01*
X0038748562Y0034572075D01*
X0038751700Y0034573909D01*
X0038859236Y0034654649D01*
X0039026244Y0034780042D01*
X0039026248Y0034780045D01*
X0039029151Y0034782225D01*
X0039259715Y0035001023D01*
X0039279267Y0035019577D01*
X0039342449Y0035051959D01*
X0039413108Y0035045043D01*
X0039468810Y0035001023D01*
X0039492000Y0034928180D01*
X0039492000Y0005197102D01*
X0039471998Y0005128981D01*
X0039418342Y0005082488D01*
X0039348068Y0005072384D01*
X0039283488Y0005101878D01*
X0039273712Y0005111319D01*
X0039169842Y0005223096D01*
X0038906019Y0005448422D01*
X0038618047Y0005641931D01*
X0038309741Y0005801060D01*
X0037985189Y0005923698D01*
X0037981668Y0005924582D01*
X0037981663Y0005924584D01*
X0037820378Y0005965096D01*
X0037648692Y0006008220D01*
X0037626476Y0006011145D01*
X0037308315Y0006053032D01*
X0037308307Y0006053033D01*
X0037304711Y0006053506D01*
X0037160045Y0006055779D01*
X0036961446Y0006058899D01*
X0036961442Y0006058899D01*
X0036957804Y0006058956D01*
X0036954190Y0006058595D01*
X0036954184Y0006058595D01*
X0036710843Y0006034306D01*
X0036612569Y0006024497D01*
X0036273583Y0005950586D01*
X0036270156Y0005949413D01*
X0036270150Y0005949411D01*
X0036191296Y0005922413D01*
X0035945339Y0005838203D01*
X0035632188Y0005688837D01*
X0035338279Y0005504468D01*
X0035335443Y0005502196D01*
X0035335436Y0005502191D01*
X0035091384Y0005306668D01*
X0035067509Y0005287541D01*
X0034823466Y0005040929D01*
X0034821225Y0005038071D01*
X0034764732Y0004966022D01*
X0034609386Y0004767902D01*
X0034607493Y0004764813D01*
X0034607491Y0004764810D01*
X0034561233Y0004689324D01*
X0034428105Y0004472079D01*
X0034426580Y0004468794D01*
X0034426578Y0004468790D01*
X0034387505Y0004384614D01*
X0034282027Y0004157380D01*
X0034173087Y0003827977D01*
X0034102730Y0003488236D01*
X0034071888Y0003142659D01*
X0034071983Y0003139029D01*
X0034071983Y0003139028D01*
X0034074367Y0003048000D01*
X0034080970Y0002795829D01*
X0034129856Y0002452340D01*
X0034217897Y0002116747D01*
X0034343927Y0001793497D01*
X0034345624Y0001790292D01*
X0034479113Y0001538175D01*
X0034506275Y0001486874D01*
X0034508325Y0001483891D01*
X0034508327Y0001483888D01*
X0034700733Y0001203936D01*
X0034700739Y0001203929D01*
X0034702790Y0001200944D01*
X0034705178Y0001198207D01*
X0034908597Y0000965023D01*
X0034930866Y0000939495D01*
X0035164184Y0000727193D01*
X0035201105Y0000666553D01*
X0035199382Y0000595578D01*
X0035159560Y0000536801D01*
X0035094282Y0000508884D01*
X0035079383Y0000508000D01*
X0005053534Y0000508000D01*
X0004985413Y0000528002D01*
X0004938920Y0000581658D01*
X0004928816Y0000651932D01*
X0004958310Y0000716512D01*
X0004977881Y0000734760D01*
X0004990244Y0000744042D01*
X0004990248Y0000744045D01*
X0004993151Y0000746225D01*
X0005244819Y0000985050D01*
X0005467370Y0001251217D01*
X0005657853Y0001541201D01*
X0005786446Y0001796879D01*
X0005812117Y0001847920D01*
X0005812120Y0001847928D01*
X0005813744Y0001851156D01*
X0005932977Y0002176974D01*
X0005933822Y0002180496D01*
X0005933825Y0002180504D01*
X0006013124Y0002510809D01*
X0006013125Y0002510813D01*
X0006013971Y0002514338D01*
X0006048035Y0002795829D01*
X0006055316Y0002855996D01*
X0006055316Y0002856003D01*
X0006055652Y0002858775D01*
X0006061599Y0003048000D01*
X0006061438Y0003050796D01*
X0006041836Y0003390754D01*
X0006041835Y0003390759D01*
X0006041627Y0003394374D01*
X0005981976Y0003736158D01*
X0005883437Y0004068819D01*
X0005747316Y0004387952D01*
X0005697569Y0004475169D01*
X0005577208Y0004686184D01*
X0005575417Y0004689324D01*
X0005370018Y0004968940D01*
X0005133842Y0005223096D01*
X0004870019Y0005448422D01*
X0004582047Y0005641931D01*
X0004273741Y0005801060D01*
X0003949189Y0005923698D01*
X0003945668Y0005924582D01*
X0003945663Y0005924584D01*
X0003784378Y0005965096D01*
X0003612692Y0006008220D01*
X0003590476Y0006011145D01*
X0003272315Y0006053032D01*
X0003272307Y0006053033D01*
X0003268711Y0006053506D01*
X0003124045Y0006055779D01*
X0002925446Y0006058899D01*
X0002925442Y0006058899D01*
X0002921804Y0006058956D01*
X0002918190Y0006058595D01*
X0002918184Y0006058595D01*
X0002674843Y0006034306D01*
X0002576569Y0006024497D01*
X0002237583Y0005950586D01*
X0002234156Y0005949413D01*
X0002234150Y0005949411D01*
X0002155296Y0005922413D01*
X0001909339Y0005838203D01*
X0001596188Y0005688837D01*
X0001302279Y0005504468D01*
X0001299443Y0005502196D01*
X0001299436Y0005502191D01*
X0001055384Y0005306668D01*
X0001031509Y0005287541D01*
X0000787466Y0005040929D01*
X0000785225Y0005038071D01*
X0000733154Y0004971662D01*
X0000675381Y0004930397D01*
X0000604470Y0004926917D01*
X0000542934Y0004962328D01*
X0000510310Y0005025385D01*
X0000508000Y0005049408D01*
X0000508000Y0009015039D01*
X0015420001Y0009015039D01*
X0015420209Y0009009929D01*
X0015431082Y0008876233D01*
X0015432852Y0008865680D01*
X0015485967Y0008658815D01*
X0015489701Y0008648269D01*
X0015578510Y0008454295D01*
X0015584046Y0008444588D01*
X0015705803Y0008269403D01*
X0015712976Y0008260823D01*
X0015863824Y0008109976D01*
X0015872403Y0008102803D01*
X0016047588Y0007981046D01*
X0016057295Y0007975510D01*
X0016251269Y0007886701D01*
X0016261814Y0007882967D01*
X0016468679Y0007829853D01*
X0016479234Y0007828082D01*
X0016612929Y0007817207D01*
X0016618036Y0007817000D01*
X0017155885Y0007817000D01*
X0017171124Y0007821475D01*
X0017172329Y0007822865D01*
X0017174000Y0007830548D01*
X0017174000Y0007835116D01*
X0017682000Y0007835116D01*
X0017686475Y0007819877D01*
X0017687865Y0007818672D01*
X0017695548Y0007817001D01*
X0018237961Y0007817001D01*
X0018243071Y0007817209D01*
X0018376767Y0007828082D01*
X0018387320Y0007829852D01*
X0018594185Y0007882967D01*
X0018604731Y0007886701D01*
X0018798705Y0007975510D01*
X0018808412Y0007981046D01*
X0018983597Y0008102803D01*
X0018992176Y0008109976D01*
X0019143024Y0008260823D01*
X0019150197Y0008269403D01*
X0019271954Y0008444588D01*
X0019277490Y0008454295D01*
X0019366299Y0008648269D01*
X0019370033Y0008658815D01*
X0019423147Y0008865679D01*
X0019424918Y0008876234D01*
X0019435793Y0009009930D01*
X0019436000Y0009015036D01*
X0019436000Y0009552885D01*
X0019431525Y0009568124D01*
X0019430135Y0009569329D01*
X0019422452Y0009571000D01*
X0017700115Y0009571000D01*
X0017684876Y0009566525D01*
X0017683671Y0009565135D01*
X0017682000Y0009557452D01*
X0017682000Y0007835116D01*
X0017174000Y0007835116D01*
X0017174000Y0009552885D01*
X0017169525Y0009568124D01*
X0017168135Y0009569329D01*
X0017160452Y0009571000D01*
X0015438116Y0009571000D01*
X0015422877Y0009566525D01*
X0015421672Y0009565135D01*
X0015420001Y0009557452D01*
X0015420001Y0009015039D01*
X0000508000Y0009015039D01*
X0000508000Y0010097115D01*
X0015420000Y0010097115D01*
X0015424475Y0010081876D01*
X0015425865Y0010080671D01*
X0015433548Y0010079000D01*
X0017155885Y0010079000D01*
X0017171124Y0010083475D01*
X0017172329Y0010084865D01*
X0017174000Y0010092548D01*
X0017174000Y0010097115D01*
X0017682000Y0010097115D01*
X0017686475Y0010081876D01*
X0017687865Y0010080671D01*
X0017695548Y0010079000D01*
X0019417884Y0010079000D01*
X0019433123Y0010083475D01*
X0019434328Y0010084865D01*
X0019435999Y0010092548D01*
X0019435999Y0010634961D01*
X0019435791Y0010640071D01*
X0019424918Y0010773767D01*
X0019423148Y0010784320D01*
X0019370033Y0010991185D01*
X0019366299Y0011001731D01*
X0019277490Y0011195705D01*
X0019271954Y0011205412D01*
X0019150197Y0011380597D01*
X0019143024Y0011389176D01*
X0018992176Y0011540024D01*
X0018983597Y0011547197D01*
X0018808412Y0011668954D01*
X0018798705Y0011674490D01*
X0018604731Y0011763299D01*
X0018594185Y0011767033D01*
X0018387321Y0011820147D01*
X0018376766Y0011821918D01*
X0018243070Y0011832793D01*
X0018237964Y0011833000D01*
X0017700115Y0011833000D01*
X0017684876Y0011828525D01*
X0017683671Y0011827135D01*
X0017682000Y0011819452D01*
X0017682000Y0010097115D01*
X0017174000Y0010097115D01*
X0017174000Y0011814884D01*
X0017169525Y0011830123D01*
X0017168135Y0011831328D01*
X0017160452Y0011832999D01*
X0016618039Y0011832999D01*
X0016612929Y0011832791D01*
X0016479233Y0011821918D01*
X0016468680Y0011820148D01*
X0016261814Y0011767033D01*
X0016251269Y0011763299D01*
X0016057295Y0011674490D01*
X0016047588Y0011668954D01*
X0015872403Y0011547197D01*
X0015863824Y0011540024D01*
X0015712976Y0011389176D01*
X0015705803Y0011380597D01*
X0015584046Y0011205412D01*
X0015578510Y0011195705D01*
X0015489701Y0011001731D01*
X0015485967Y0010991185D01*
X0015432853Y0010784321D01*
X0015431082Y0010773766D01*
X0015420207Y0010640070D01*
X0015420000Y0010634964D01*
X0015420000Y0010097115D01*
X0000508000Y0010097115D01*
X0000508000Y0016715039D01*
X0004418001Y0016715039D01*
X0004418209Y0016709928D01*
X0004429082Y0016576232D01*
X0004430852Y0016565680D01*
X0004483967Y0016358815D01*
X0004487701Y0016348268D01*
X0004576510Y0016154295D01*
X0004582046Y0016144587D01*
X0004703803Y0015969403D01*
X0004710976Y0015960824D01*
X0004861824Y0015809976D01*
X0004870403Y0015802803D01*
X0005045588Y0015681046D01*
X0005055295Y0015675510D01*
X0005249269Y0015586701D01*
X0005259815Y0015582967D01*
X0005466679Y0015529853D01*
X0005477234Y0015528082D01*
X0005610930Y0015517207D01*
X0005616036Y0015517000D01*
X0006153885Y0015517000D01*
X0006169124Y0015521475D01*
X0006170329Y0015522865D01*
X0006172000Y0015530548D01*
X0006172000Y0015535116D01*
X0006680000Y0015535116D01*
X0006684475Y0015519877D01*
X0006685865Y0015518672D01*
X0006693548Y0015517001D01*
X0007235961Y0015517001D01*
X0007241071Y0015517209D01*
X0007374767Y0015528082D01*
X0007385320Y0015529852D01*
X0007592185Y0015582967D01*
X0007602731Y0015586701D01*
X0007796705Y0015675510D01*
X0007806412Y0015681046D01*
X0007981597Y0015802803D01*
X0007990176Y0015809976D01*
X0008141024Y0015960824D01*
X0008148197Y0015969403D01*
X0008269954Y0016144587D01*
X0008275490Y0016154295D01*
X0008364299Y0016348268D01*
X0008368033Y0016358815D01*
X0008421147Y0016565679D01*
X0008422918Y0016576234D01*
X0008433793Y0016709930D01*
X0008434000Y0016715036D01*
X0008434000Y0017252885D01*
X0008429525Y0017268124D01*
X0008428135Y0017269329D01*
X0008420452Y0017271000D01*
X0006698115Y0017271000D01*
X0006682876Y0017266525D01*
X0006681671Y0017265135D01*
X0006680000Y0017257452D01*
X0006680000Y0015535116D01*
X0006172000Y0015535116D01*
X0006172000Y0017252885D01*
X0006167525Y0017268124D01*
X0006166135Y0017269329D01*
X0006158452Y0017271000D01*
X0004436116Y0017271000D01*
X0004420877Y0017266525D01*
X0004419672Y0017265135D01*
X0004418001Y0017257452D01*
X0004418001Y0016715039D01*
X0000508000Y0016715039D01*
X0000508000Y0017797115D01*
X0004418000Y0017797115D01*
X0004422475Y0017781876D01*
X0004423865Y0017780671D01*
X0004431548Y0017779000D01*
X0006153885Y0017779000D01*
X0006169124Y0017783475D01*
X0006170329Y0017784865D01*
X0006172000Y0017792548D01*
X0006172000Y0017797115D01*
X0006680000Y0017797115D01*
X0006684475Y0017781876D01*
X0006685865Y0017780671D01*
X0006693548Y0017779000D01*
X0008415884Y0017779000D01*
X0008431123Y0017783475D01*
X0008432328Y0017784865D01*
X0008433999Y0017792548D01*
X0008433999Y0018227175D01*
X0012800001Y0018227175D01*
X0012800195Y0018222244D01*
X0012805958Y0018148997D01*
X0012807905Y0018137668D01*
X0012855464Y0017960175D01*
X0012860168Y0017947921D01*
X0012943214Y0017784934D01*
X0012950364Y0017773923D01*
X0013065485Y0017631762D01*
X0013074762Y0017622485D01*
X0013216923Y0017507364D01*
X0013227934Y0017500214D01*
X0013390921Y0017417168D01*
X0013403175Y0017412464D01*
X0013580666Y0017364905D01*
X0013591999Y0017362958D01*
X0013665246Y0017357193D01*
X0013670172Y0017357000D01*
X0014535885Y0017357000D01*
X0014551124Y0017361475D01*
X0014552329Y0017362865D01*
X0014554000Y0017370548D01*
X0014554000Y0018442885D01*
X0014549525Y0018458124D01*
X0014548135Y0018459329D01*
X0014540452Y0018461000D01*
X0012818116Y0018461000D01*
X0012802877Y0018456525D01*
X0012801672Y0018455135D01*
X0012800001Y0018447452D01*
X0012800001Y0018227175D01*
X0008433999Y0018227175D01*
X0008433999Y0018334961D01*
X0008433791Y0018340071D01*
X0008422918Y0018473767D01*
X0008421148Y0018484320D01*
X0008368033Y0018691185D01*
X0008364299Y0018701731D01*
X0008275490Y0018895705D01*
X0008269954Y0018905412D01*
X0008148197Y0019080597D01*
X0008141024Y0019089176D01*
X0007990176Y0019240024D01*
X0007981597Y0019247197D01*
X0007806412Y0019368954D01*
X0007796705Y0019374490D01*
X0007602731Y0019463299D01*
X0007592185Y0019467033D01*
X0007385321Y0019520147D01*
X0007374766Y0019521918D01*
X0007241070Y0019532793D01*
X0007235964Y0019533000D01*
X0006698115Y0019533000D01*
X0006682876Y0019528525D01*
X0006681671Y0019527135D01*
X0006680000Y0019519452D01*
X0006680000Y0017797115D01*
X0006172000Y0017797115D01*
X0006172000Y0019514884D01*
X0006167525Y0019530123D01*
X0006166135Y0019531328D01*
X0006158452Y0019532999D01*
X0005616039Y0019532999D01*
X0005610929Y0019532791D01*
X0005477233Y0019521918D01*
X0005466680Y0019520148D01*
X0005259815Y0019467033D01*
X0005249269Y0019463299D01*
X0005055295Y0019374490D01*
X0005045588Y0019368954D01*
X0004870403Y0019247197D01*
X0004861824Y0019240024D01*
X0004710976Y0019089176D01*
X0004703803Y0019080597D01*
X0004582046Y0018905412D01*
X0004576510Y0018895705D01*
X0004487701Y0018701731D01*
X0004483967Y0018691185D01*
X0004430853Y0018484321D01*
X0004429082Y0018473766D01*
X0004418207Y0018340070D01*
X0004418000Y0018334964D01*
X0004418000Y0017797115D01*
X0000508000Y0017797115D01*
X0000508000Y0021712458D01*
X0004417500Y0021712458D01*
X0004417707Y0021709918D01*
X0004417707Y0021709908D01*
X0004421889Y0021658500D01*
X0004429022Y0021570800D01*
X0004484890Y0021353206D01*
X0004578409Y0021148945D01*
X0004706620Y0020964473D01*
X0004865473Y0020805620D01*
X0004974865Y0020729591D01*
X0005043931Y0020681589D01*
X0005049945Y0020677409D01*
X0005254206Y0020583890D01*
X0005259638Y0020582495D01*
X0005259639Y0020582495D01*
X0005416288Y0020542275D01*
X0005471800Y0020528022D01*
X0005525705Y0020523638D01*
X0005610908Y0020516707D01*
X0005610918Y0020516707D01*
X0005613458Y0020516500D01*
X0007238542Y0020516500D01*
X0007241082Y0020516707D01*
X0007241092Y0020516707D01*
X0007301197Y0020521596D01*
X0007380200Y0020528022D01*
X0007385396Y0020529356D01*
X0007495376Y0020557593D01*
X0007543154Y0020560473D01*
X0007581859Y0020555378D01*
X0007588377Y0020554346D01*
X0007626770Y0020547230D01*
X0007651186Y0020542705D01*
X0007658766Y0020543142D01*
X0007658767Y0020543142D01*
X0007713380Y0020546291D01*
X0007720633Y0020546500D01*
X0012752546Y0020546500D01*
X0012820667Y0020526498D01*
X0012864812Y0020477704D01*
X0012945789Y0020318779D01*
X0013069280Y0020166280D01*
X0013172620Y0020082597D01*
X0013212970Y0020024185D01*
X0013215336Y0019953228D01*
X0013178963Y0019892256D01*
X0013172619Y0019886759D01*
X0013074762Y0019807515D01*
X0013065485Y0019798238D01*
X0012950364Y0019656077D01*
X0012943214Y0019645066D01*
X0012860168Y0019482079D01*
X0012855464Y0019469825D01*
X0012807905Y0019292334D01*
X0012805958Y0019281001D01*
X0012800193Y0019207754D01*
X0012800000Y0019202827D01*
X0012800000Y0018987115D01*
X0012804475Y0018971876D01*
X0012805865Y0018970671D01*
X0012813548Y0018969000D01*
X0014936000Y0018969000D01*
X0015004121Y0018948998D01*
X0015050614Y0018895342D01*
X0015062000Y0018843000D01*
X0015062000Y0017375116D01*
X0015066475Y0017359877D01*
X0015067865Y0017358672D01*
X0015075548Y0017357001D01*
X0015945825Y0017357001D01*
X0015950756Y0017357195D01*
X0016024003Y0017362958D01*
X0016035332Y0017364905D01*
X0016212824Y0017412464D01*
X0016225079Y0017417168D01*
X0016388065Y0017500214D01*
X0016399076Y0017507364D01*
X0016541238Y0017622485D01*
X0016550515Y0017631762D01*
X0016665636Y0017773923D01*
X0016672785Y0017784934D01*
X0016755832Y0017947921D01*
X0016760535Y0017960175D01*
X0016808095Y0018137666D01*
X0016810042Y0018148999D01*
X0016814571Y0018206543D01*
X0016839857Y0018272885D01*
X0016896995Y0018315024D01*
X0016967845Y0018319583D01*
X0017029278Y0018285752D01*
X0018019595Y0017295435D01*
X0018053621Y0017233123D01*
X0018056500Y0017206340D01*
X0018056500Y0016538599D01*
X0018056837Y0016535354D01*
X0018056837Y0016535350D01*
X0018066618Y0016441085D01*
X0018067474Y0016432834D01*
X0018123450Y0016265054D01*
X0018216522Y0016114652D01*
X0018341697Y0015989695D01*
X0018347927Y0015985855D01*
X0018347928Y0015985854D01*
X0018485288Y0015901184D01*
X0018492262Y0015896885D01*
X0018514820Y0015889403D01*
X0018653611Y0015843368D01*
X0018653613Y0015843368D01*
X0018660139Y0015841203D01*
X0018666975Y0015840503D01*
X0018666978Y0015840502D01*
X0018710031Y0015836091D01*
X0018764600Y0015830500D01*
X0019365400Y0015830500D01*
X0019368646Y0015830837D01*
X0019368650Y0015830837D01*
X0019464308Y0015840762D01*
X0019464312Y0015840763D01*
X0019471166Y0015841474D01*
X0019477702Y0015843655D01*
X0019477704Y0015843655D01*
X0019614826Y0015889403D01*
X0019638946Y0015897450D01*
X0019789348Y0015990522D01*
X0019914305Y0016115697D01*
X0019917102Y0016120235D01*
X0019974353Y0016160824D01*
X0020045276Y0016164054D01*
X0020106687Y0016128428D01*
X0020114062Y0016119931D01*
X0020122098Y0016109793D01*
X0020236829Y0015995261D01*
X0020248240Y0015986249D01*
X0020386243Y0015901184D01*
X0020399424Y0015895037D01*
X0020553710Y0015843862D01*
X0020567086Y0015840995D01*
X0020661438Y0015831328D01*
X0020667854Y0015831000D01*
X0020692885Y0015831000D01*
X0020708124Y0015835475D01*
X0020709329Y0015836865D01*
X0020711000Y0015844548D01*
X0020711000Y0015849116D01*
X0021219000Y0015849116D01*
X0021223475Y0015833877D01*
X0021224865Y0015832672D01*
X0021232548Y0015831001D01*
X0021262095Y0015831001D01*
X0021268614Y0015831338D01*
X0021364206Y0015841257D01*
X0021377600Y0015844149D01*
X0021531784Y0015895588D01*
X0021544962Y0015901761D01*
X0021682807Y0015987063D01*
X0021694208Y0015996099D01*
X0021808739Y0016110828D01*
X0021817751Y0016122240D01*
X0021902816Y0016260243D01*
X0021908963Y0016273423D01*
X0021960138Y0016427710D01*
X0021963005Y0016441085D01*
X0021972672Y0016535438D01*
X0021973000Y0016541854D01*
X0021973000Y0016635038D01*
X0031596001Y0016635038D01*
X0031596209Y0016629929D01*
X0031607082Y0016496233D01*
X0031608852Y0016485679D01*
X0031661967Y0016278815D01*
X0031665701Y0016268269D01*
X0031754510Y0016074295D01*
X0031760046Y0016064588D01*
X0031881803Y0015889403D01*
X0031888976Y0015880824D01*
X0032039824Y0015729976D01*
X0032048403Y0015722803D01*
X0032223588Y0015601046D01*
X0032233295Y0015595510D01*
X0032427269Y0015506701D01*
X0032437815Y0015502967D01*
X0032644678Y0015449853D01*
X0032655234Y0015448082D01*
X0032788930Y0015437207D01*
X0032794036Y0015437000D01*
X0033331885Y0015437000D01*
X0033347124Y0015441475D01*
X0033348329Y0015442865D01*
X0033350000Y0015450548D01*
X0033350000Y0015455116D01*
X0033858000Y0015455116D01*
X0033862475Y0015439877D01*
X0033863865Y0015438672D01*
X0033871548Y0015437001D01*
X0034413961Y0015437001D01*
X0034419071Y0015437209D01*
X0034552767Y0015448082D01*
X0034563320Y0015449852D01*
X0034770185Y0015502967D01*
X0034780731Y0015506701D01*
X0034974705Y0015595510D01*
X0034984412Y0015601046D01*
X0035159597Y0015722803D01*
X0035168176Y0015729976D01*
X0035319024Y0015880824D01*
X0035326197Y0015889403D01*
X0035447954Y0016064588D01*
X0035453490Y0016074295D01*
X0035542299Y0016268269D01*
X0035546033Y0016278815D01*
X0035599147Y0016485679D01*
X0035600918Y0016496234D01*
X0035611793Y0016629930D01*
X0035612000Y0016635036D01*
X0035612000Y0017172885D01*
X0035607525Y0017188124D01*
X0035606135Y0017189329D01*
X0035598452Y0017191000D01*
X0033876115Y0017191000D01*
X0033860876Y0017186525D01*
X0033859671Y0017185135D01*
X0033858000Y0017177452D01*
X0033858000Y0015455116D01*
X0033350000Y0015455116D01*
X0033350000Y0017172885D01*
X0033345525Y0017188124D01*
X0033344135Y0017189329D01*
X0033336452Y0017191000D01*
X0031614116Y0017191000D01*
X0031598877Y0017186525D01*
X0031597672Y0017185135D01*
X0031596001Y0017177452D01*
X0031596001Y0016635038D01*
X0021973000Y0016635038D01*
X0021973000Y0016791885D01*
X0021968525Y0016807124D01*
X0021967135Y0016808329D01*
X0021959452Y0016810000D01*
X0021237115Y0016810000D01*
X0021221876Y0016805525D01*
X0021220671Y0016804135D01*
X0021219000Y0016796452D01*
X0021219000Y0015849116D01*
X0020711000Y0015849116D01*
X0020711000Y0017192000D01*
X0020731002Y0017260121D01*
X0020784658Y0017306614D01*
X0020837000Y0017318000D01*
X0021954884Y0017318000D01*
X0021970123Y0017322475D01*
X0021971328Y0017323865D01*
X0021972999Y0017331548D01*
X0021972999Y0017586095D01*
X0021972662Y0017592614D01*
X0021962743Y0017688206D01*
X0021959851Y0017701600D01*
X0021908412Y0017855784D01*
X0021902239Y0017868962D01*
X0021816937Y0018006807D01*
X0021807901Y0018018208D01*
X0021699092Y0018126828D01*
X0021665013Y0018189111D01*
X0021670016Y0018259931D01*
X0021712513Y0018316804D01*
X0021779012Y0018341672D01*
X0021788110Y0018342001D01*
X0021906700Y0018342001D01*
X0021974821Y0018321999D01*
X0021995718Y0018305174D01*
X0022109829Y0018191261D01*
X0022121240Y0018182249D01*
X0022259243Y0018097184D01*
X0022272424Y0018091037D01*
X0022426710Y0018039862D01*
X0022440086Y0018036995D01*
X0022534438Y0018027328D01*
X0022540854Y0018027000D01*
X0022790885Y0018027000D01*
X0022806124Y0018031475D01*
X0022807329Y0018032865D01*
X0022809000Y0018040548D01*
X0022809000Y0018762885D01*
X0022804525Y0018778124D01*
X0022803135Y0018779329D01*
X0022795452Y0018781000D01*
X0021899263Y0018781000D01*
X0021831142Y0018801002D01*
X0021808208Y0018827470D01*
X0021784135Y0018848329D01*
X0021776452Y0018850000D01*
X0021668115Y0018850000D01*
X0021652877Y0018845526D01*
X0021652844Y0018845488D01*
X0021593118Y0018807104D01*
X0021557619Y0018802000D01*
X0021534500Y0018802000D01*
X0021466379Y0018822002D01*
X0021419886Y0018875658D01*
X0021408500Y0018928000D01*
X0021408500Y0019114240D01*
X0021428502Y0019182361D01*
X0021482158Y0019228854D01*
X0021552432Y0019238958D01*
X0021617012Y0019209464D01*
X0021652003Y0019155018D01*
X0021655865Y0019151671D01*
X0021663548Y0019150000D01*
X0021771885Y0019150000D01*
X0021787124Y0019154475D01*
X0021788329Y0019155865D01*
X0021792879Y0019176783D01*
X0021793977Y0019176544D01*
X0021810002Y0019231121D01*
X0021863658Y0019277614D01*
X0021916000Y0019289000D01*
X0023191000Y0019289000D01*
X0023259121Y0019268998D01*
X0023305614Y0019215342D01*
X0023317000Y0019163000D01*
X0023317000Y0018045116D01*
X0023321475Y0018029877D01*
X0023322865Y0018028672D01*
X0023330548Y0018027001D01*
X0023411215Y0018027001D01*
X0023479336Y0018006999D01*
X0023525829Y0017953343D01*
X0023527812Y0017948620D01*
X0023611214Y0017784934D01*
X0023618364Y0017773923D01*
X0023733485Y0017631762D01*
X0023742762Y0017622485D01*
X0023884923Y0017507364D01*
X0023895934Y0017500214D01*
X0024058921Y0017417168D01*
X0024071175Y0017412464D01*
X0024248666Y0017364905D01*
X0024259999Y0017362958D01*
X0024333246Y0017357193D01*
X0024338172Y0017357000D01*
X0025203885Y0017357000D01*
X0025219124Y0017361475D01*
X0025220329Y0017362865D01*
X0025222000Y0017370548D01*
X0025222000Y0017375116D01*
X0025730000Y0017375116D01*
X0025734475Y0017359877D01*
X0025735865Y0017358672D01*
X0025743548Y0017357001D01*
X0026613825Y0017357001D01*
X0026618756Y0017357195D01*
X0026692003Y0017362958D01*
X0026703332Y0017364905D01*
X0026880825Y0017412464D01*
X0026893079Y0017417168D01*
X0027056066Y0017500214D01*
X0027067077Y0017507364D01*
X0027209238Y0017622485D01*
X0027218515Y0017631762D01*
X0027287633Y0017717115D01*
X0031596000Y0017717115D01*
X0031600475Y0017701876D01*
X0031601865Y0017700671D01*
X0031609548Y0017699000D01*
X0033331885Y0017699000D01*
X0033347124Y0017703475D01*
X0033348329Y0017704865D01*
X0033350000Y0017712548D01*
X0033350000Y0017717115D01*
X0033858000Y0017717115D01*
X0033862475Y0017701876D01*
X0033863865Y0017700671D01*
X0033871548Y0017699000D01*
X0035593884Y0017699000D01*
X0035609123Y0017703475D01*
X0035610328Y0017704865D01*
X0035611999Y0017712548D01*
X0035611999Y0018254961D01*
X0035611791Y0018260071D01*
X0035600918Y0018393767D01*
X0035599148Y0018404320D01*
X0035546033Y0018611185D01*
X0035542299Y0018621731D01*
X0035453490Y0018815705D01*
X0035447954Y0018825412D01*
X0035326197Y0019000597D01*
X0035319024Y0019009176D01*
X0035168176Y0019160024D01*
X0035159597Y0019167197D01*
X0034984412Y0019288954D01*
X0034974705Y0019294490D01*
X0034780731Y0019383299D01*
X0034770185Y0019387033D01*
X0034563321Y0019440147D01*
X0034552766Y0019441918D01*
X0034419070Y0019452793D01*
X0034413964Y0019453000D01*
X0033876115Y0019453000D01*
X0033860876Y0019448525D01*
X0033859671Y0019447135D01*
X0033858000Y0019439452D01*
X0033858000Y0017717115D01*
X0033350000Y0017717115D01*
X0033350000Y0019434884D01*
X0033345525Y0019450123D01*
X0033344135Y0019451328D01*
X0033336452Y0019452999D01*
X0032794038Y0019452999D01*
X0032788929Y0019452791D01*
X0032655233Y0019441918D01*
X0032644680Y0019440148D01*
X0032437815Y0019387033D01*
X0032427269Y0019383299D01*
X0032233295Y0019294490D01*
X0032223588Y0019288954D01*
X0032048403Y0019167197D01*
X0032039824Y0019160024D01*
X0031888976Y0019009176D01*
X0031881803Y0019000597D01*
X0031760046Y0018825412D01*
X0031754510Y0018815705D01*
X0031665701Y0018621731D01*
X0031661967Y0018611185D01*
X0031608853Y0018404321D01*
X0031607082Y0018393766D01*
X0031596207Y0018260070D01*
X0031596000Y0018254964D01*
X0031596000Y0017717115D01*
X0027287633Y0017717115D01*
X0027333636Y0017773923D01*
X0027340786Y0017784934D01*
X0027423832Y0017947921D01*
X0027428536Y0017960175D01*
X0027476095Y0018137666D01*
X0027478042Y0018148999D01*
X0027483807Y0018222246D01*
X0027484000Y0018227172D01*
X0027484000Y0018442885D01*
X0027479525Y0018458124D01*
X0027478135Y0018459329D01*
X0027470452Y0018461000D01*
X0025748115Y0018461000D01*
X0025732876Y0018456525D01*
X0025731671Y0018455135D01*
X0025730000Y0018447452D01*
X0025730000Y0017375116D01*
X0025222000Y0017375116D01*
X0025222000Y0018843000D01*
X0025242002Y0018911121D01*
X0025295658Y0018957614D01*
X0025348000Y0018969000D01*
X0027465884Y0018969000D01*
X0027481123Y0018973475D01*
X0027482328Y0018974865D01*
X0027483999Y0018982548D01*
X0027483999Y0019202825D01*
X0027483805Y0019207756D01*
X0027478042Y0019281003D01*
X0027476095Y0019292332D01*
X0027428536Y0019469825D01*
X0027423832Y0019482079D01*
X0027340786Y0019645066D01*
X0027333636Y0019656077D01*
X0027218515Y0019798238D01*
X0027209238Y0019807515D01*
X0027111381Y0019886759D01*
X0027071029Y0019945174D01*
X0027068665Y0020016131D01*
X0027105038Y0020077102D01*
X0027111359Y0020082580D01*
X0027214720Y0020166280D01*
X0027338211Y0020318779D01*
X0027419188Y0020477704D01*
X0027467935Y0020529318D01*
X0027531454Y0020546500D01*
X0028495088Y0020546500D01*
X0028503658Y0020546208D01*
X0028553776Y0020542791D01*
X0028553780Y0020542791D01*
X0028561352Y0020542275D01*
X0028568829Y0020543580D01*
X0028568830Y0020543580D01*
X0028595308Y0020548201D01*
X0028624303Y0020553262D01*
X0028630821Y0020554223D01*
X0028694242Y0020561898D01*
X0028701343Y0020564581D01*
X0028703952Y0020565222D01*
X0028720262Y0020569685D01*
X0028722798Y0020570450D01*
X0028730284Y0020571757D01*
X0028788800Y0020597444D01*
X0028794904Y0020599935D01*
X0028796691Y0020600610D01*
X0028854656Y0020622513D01*
X0028860919Y0020626817D01*
X0028863285Y0020628054D01*
X0028878097Y0020636299D01*
X0028880351Y0020637632D01*
X0028887305Y0020640685D01*
X0028938002Y0020679587D01*
X0028943332Y0020683459D01*
X0028989720Y0020715339D01*
X0028989725Y0020715344D01*
X0028995981Y0020719643D01*
X0029001307Y0020725620D01*
X0029037427Y0020766161D01*
X0029042408Y0020771438D01*
X0029923567Y0021652596D01*
X0029985879Y0021686621D01*
X0030012662Y0021689500D01*
X0031474693Y0021689500D01*
X0031542814Y0021669498D01*
X0031589307Y0021615842D01*
X0031600278Y0021573715D01*
X0031607022Y0021490800D01*
X0031662890Y0021273206D01*
X0031756409Y0021068945D01*
X0031884620Y0020884473D01*
X0032043473Y0020725620D01*
X0032109718Y0020679579D01*
X0032195690Y0020619827D01*
X0032227945Y0020597409D01*
X0032432206Y0020503890D01*
X0032437638Y0020502495D01*
X0032437638Y0020502495D01*
X0032472202Y0020493621D01*
X0032649800Y0020448022D01*
X0032703705Y0020443638D01*
X0032788908Y0020436707D01*
X0032788918Y0020436707D01*
X0032791458Y0020436500D01*
X0034416542Y0020436500D01*
X0034419082Y0020436707D01*
X0034419092Y0020436707D01*
X0034504295Y0020443638D01*
X0034558200Y0020448022D01*
X0034735799Y0020493621D01*
X0034770361Y0020502495D01*
X0034770362Y0020502495D01*
X0034775794Y0020503890D01*
X0034868861Y0020546500D01*
X0034939919Y0020579033D01*
X0035010183Y0020589204D01*
X0035074792Y0020559772D01*
X0035081466Y0020553564D01*
X0036541595Y0019093435D01*
X0036575621Y0019031123D01*
X0036578500Y0019004340D01*
X0036578500Y0016266660D01*
X0036558498Y0016198539D01*
X0036541595Y0016177565D01*
X0030934435Y0010570405D01*
X0030872123Y0010536379D01*
X0030845340Y0010533500D01*
X0024561130Y0010533500D01*
X0024493009Y0010553502D01*
X0024446516Y0010607158D01*
X0024435545Y0010649285D01*
X0024425413Y0010773849D01*
X0024424978Y0010779200D01*
X0024369110Y0010996794D01*
X0024275591Y0011201055D01*
X0024147380Y0011385527D01*
X0023988527Y0011544380D01*
X0023804055Y0011672591D01*
X0023599794Y0011766110D01*
X0023409830Y0011814884D01*
X0023387396Y0011820644D01*
X0023387395Y0011820644D01*
X0023382200Y0011821978D01*
X0023318797Y0011827135D01*
X0023243092Y0011833293D01*
X0023243082Y0011833293D01*
X0023240542Y0011833500D01*
X0021615458Y0011833500D01*
X0021612918Y0011833293D01*
X0021612908Y0011833293D01*
X0021537203Y0011827135D01*
X0021473800Y0011821978D01*
X0021468605Y0011820644D01*
X0021468604Y0011820644D01*
X0021446170Y0011814884D01*
X0021256206Y0011766110D01*
X0021051945Y0011672591D01*
X0020867473Y0011544380D01*
X0020708620Y0011385527D01*
X0020580409Y0011201055D01*
X0020486890Y0010996794D01*
X0020431022Y0010779200D01*
X0020419500Y0010637542D01*
X0020419500Y0009012458D01*
X0020431022Y0008870800D01*
X0020486890Y0008653206D01*
X0020580409Y0008448945D01*
X0020708620Y0008264473D01*
X0020867473Y0008105620D01*
X0021051945Y0007977409D01*
X0021256206Y0007883890D01*
X0021261638Y0007882495D01*
X0021261639Y0007882495D01*
X0021466673Y0007829852D01*
X0021473800Y0007828022D01*
X0021527705Y0007823638D01*
X0021612908Y0007816707D01*
X0021612918Y0007816707D01*
X0021615458Y0007816500D01*
X0023240542Y0007816500D01*
X0023243082Y0007816707D01*
X0023243092Y0007816707D01*
X0023328295Y0007823638D01*
X0023382200Y0007828022D01*
X0023389328Y0007829852D01*
X0023594361Y0007882495D01*
X0023594362Y0007882495D01*
X0023599794Y0007883890D01*
X0023804055Y0007977409D01*
X0023988527Y0008105620D01*
X0024147380Y0008264473D01*
X0024275591Y0008448945D01*
X0024369110Y0008653206D01*
X0024424978Y0008870800D01*
X0024435545Y0009000715D01*
X0024461004Y0009066990D01*
X0024518252Y0009108980D01*
X0024561130Y0009116500D01*
X0031162088Y0009116500D01*
X0031170658Y0009116208D01*
X0031220776Y0009112791D01*
X0031220780Y0009112791D01*
X0031228352Y0009112275D01*
X0031235829Y0009113580D01*
X0031235830Y0009113580D01*
X0031262308Y0009118201D01*
X0031291303Y0009123262D01*
X0031297821Y0009124223D01*
X0031361242Y0009131898D01*
X0031368343Y0009134581D01*
X0031370952Y0009135222D01*
X0031387262Y0009139685D01*
X0031389798Y0009140450D01*
X0031397284Y0009141757D01*
X0031455800Y0009167444D01*
X0031461904Y0009169935D01*
X0031514548Y0009189827D01*
X0031514549Y0009189828D01*
X0031521656Y0009192513D01*
X0031527919Y0009196817D01*
X0031530285Y0009198054D01*
X0031545097Y0009206299D01*
X0031547351Y0009207632D01*
X0031554305Y0009210685D01*
X0031605002Y0009249587D01*
X0031610332Y0009253459D01*
X0031656720Y0009285339D01*
X0031656725Y0009285344D01*
X0031662981Y0009289643D01*
X0031704436Y0009336171D01*
X0031709416Y0009341446D01*
X0037767520Y0015399550D01*
X0037773785Y0015405404D01*
X0037774238Y0015405799D01*
X0037817385Y0015443439D01*
X0037854129Y0015495720D01*
X0037858061Y0015501014D01*
X0037892791Y0015545307D01*
X0037897476Y0015551282D01*
X0037900599Y0015558198D01*
X0037901983Y0015560484D01*
X0037910357Y0015575165D01*
X0037911622Y0015577525D01*
X0037915990Y0015583739D01*
X0037920580Y0015595510D01*
X0037939202Y0015643275D01*
X0037941759Y0015649358D01*
X0037953568Y0015675510D01*
X0037968045Y0015707573D01*
X0037969429Y0015715040D01*
X0037970230Y0015717595D01*
X0037974859Y0015733848D01*
X0037975522Y0015736428D01*
X0037978282Y0015743509D01*
X0037986622Y0015806861D01*
X0037987653Y0015813368D01*
X0037990829Y0015830500D01*
X0037999296Y0015876186D01*
X0037998236Y0015894581D01*
X0037995709Y0015938392D01*
X0037995500Y0015945646D01*
X0037995500Y0019321088D01*
X0037995792Y0019329658D01*
X0037999209Y0019379776D01*
X0037999209Y0019379780D01*
X0037999725Y0019387352D01*
X0037988738Y0019450303D01*
X0037987776Y0019456825D01*
X0037981014Y0019512702D01*
X0037980102Y0019520242D01*
X0037977419Y0019527343D01*
X0037976778Y0019529952D01*
X0037972315Y0019546262D01*
X0037971550Y0019548798D01*
X0037970243Y0019556284D01*
X0037944556Y0019614800D01*
X0037942065Y0019620904D01*
X0037922173Y0019673548D01*
X0037922172Y0019673549D01*
X0037919487Y0019680656D01*
X0037915183Y0019686919D01*
X0037913946Y0019689285D01*
X0037905701Y0019704097D01*
X0037904368Y0019706351D01*
X0037901315Y0019713305D01*
X0037862413Y0019764002D01*
X0037858541Y0019769332D01*
X0037826661Y0019815720D01*
X0037826656Y0019815725D01*
X0037822357Y0019821981D01*
X0037775829Y0019863436D01*
X0037770554Y0019868416D01*
X0035649405Y0021989565D01*
X0035615379Y0022051877D01*
X0035612500Y0022078660D01*
X0035612500Y0023257542D01*
X0035600978Y0023399200D01*
X0035545110Y0023616794D01*
X0035451591Y0023821055D01*
X0035323380Y0024005527D01*
X0035164527Y0024164380D01*
X0034980055Y0024292591D01*
X0034775794Y0024386110D01*
X0034716987Y0024401209D01*
X0034563396Y0024440644D01*
X0034563395Y0024440644D01*
X0034558200Y0024441978D01*
X0034504295Y0024446362D01*
X0034419092Y0024453293D01*
X0034419082Y0024453293D01*
X0034416542Y0024453500D01*
X0032791458Y0024453500D01*
X0032788918Y0024453293D01*
X0032788908Y0024453293D01*
X0032703705Y0024446362D01*
X0032649800Y0024441978D01*
X0032644605Y0024440644D01*
X0032644604Y0024440644D01*
X0032491013Y0024401209D01*
X0032432206Y0024386110D01*
X0032227945Y0024292591D01*
X0032043473Y0024164380D01*
X0031884620Y0024005527D01*
X0031756409Y0023821055D01*
X0031662890Y0023616794D01*
X0031607022Y0023399200D01*
X0031595500Y0023257542D01*
X0031595500Y0023232500D01*
X0031575498Y0023164379D01*
X0031521842Y0023117886D01*
X0031469500Y0023106500D01*
X0029695912Y0023106500D01*
X0029687342Y0023106792D01*
X0029637224Y0023110209D01*
X0029637220Y0023110209D01*
X0029629648Y0023110725D01*
X0029622171Y0023109420D01*
X0029622170Y0023109420D01*
X0029595692Y0023104799D01*
X0029566697Y0023099738D01*
X0029560179Y0023098777D01*
X0029496758Y0023091102D01*
X0029489657Y0023088419D01*
X0029487048Y0023087778D01*
X0029470738Y0023083315D01*
X0029468202Y0023082550D01*
X0029460716Y0023081243D01*
X0029453759Y0023078189D01*
X0029402205Y0023055558D01*
X0029396101Y0023053067D01*
X0029336344Y0023030487D01*
X0029330081Y0023026183D01*
X0029327715Y0023024946D01*
X0029312903Y0023016701D01*
X0029310649Y0023015368D01*
X0029303695Y0023012315D01*
X0029252998Y0022973413D01*
X0029247668Y0022969541D01*
X0029201280Y0022937661D01*
X0029201275Y0022937656D01*
X0029195019Y0022933357D01*
X0029189968Y0022927687D01*
X0029189966Y0022927686D01*
X0029153565Y0022886830D01*
X0029148584Y0022881554D01*
X0028267435Y0022000405D01*
X0028205123Y0021966379D01*
X0028178340Y0021963500D01*
X0027531454Y0021963500D01*
X0027463333Y0021983502D01*
X0027419187Y0022032297D01*
X0027416711Y0022037158D01*
X0027338211Y0022191221D01*
X0027214720Y0022343720D01*
X0027062221Y0022467211D01*
X0026887379Y0022556298D01*
X0026849499Y0022566448D01*
X0026703413Y0022605592D01*
X0026703409Y0022605593D01*
X0026697836Y0022607086D01*
X0026692080Y0022607539D01*
X0026618794Y0022613307D01*
X0026618785Y0022613307D01*
X0026616337Y0022613500D01*
X0025476462Y0022613500D01*
X0024335664Y0022613499D01*
X0024285780Y0022609574D01*
X0024259918Y0022607539D01*
X0024259915Y0022607539D01*
X0024254164Y0022607086D01*
X0024064621Y0022556298D01*
X0023889779Y0022467211D01*
X0023737280Y0022343720D01*
X0023613789Y0022191221D01*
X0023524702Y0022016379D01*
X0023523056Y0022017217D01*
X0023485412Y0021967916D01*
X0023418658Y0021943741D01*
X0023410868Y0021943500D01*
X0022537600Y0021943500D01*
X0022534354Y0021943163D01*
X0022534350Y0021943163D01*
X0022438692Y0021933238D01*
X0022438688Y0021933237D01*
X0022431834Y0021932526D01*
X0022425298Y0021930345D01*
X0022425296Y0021930345D01*
X0022309296Y0021891644D01*
X0022264054Y0021876550D01*
X0022113652Y0021783478D01*
X0022108479Y0021778296D01*
X0022025809Y0021695482D01*
X0021963526Y0021661403D01*
X0021936636Y0021658500D01*
X0021518962Y0021658500D01*
X0021450841Y0021678502D01*
X0021404348Y0021732158D01*
X0021394244Y0021802432D01*
X0021423738Y0021867012D01*
X0021452659Y0021891644D01*
X0021556120Y0021955668D01*
X0021562348Y0021959522D01*
X0021687305Y0022084697D01*
X0021780115Y0022235262D01*
X0021835797Y0022403139D01*
X0021846500Y0022507600D01*
X0021846500Y0023558400D01*
X0021841005Y0023611361D01*
X0021836238Y0023657308D01*
X0021836237Y0023657312D01*
X0021835526Y0023664166D01*
X0021824641Y0023696794D01*
X0021781868Y0023824998D01*
X0021779550Y0023831946D01*
X0021686478Y0023982348D01*
X0021681296Y0023987521D01*
X0021681292Y0023987526D01*
X0021645391Y0024023365D01*
X0021611312Y0024085647D01*
X0021616315Y0024156467D01*
X0021645236Y0024201555D01*
X0021682134Y0024238517D01*
X0021687305Y0024243697D01*
X0021766757Y0024372591D01*
X0021776275Y0024388032D01*
X0021776276Y0024388034D01*
X0021780115Y0024394262D01*
X0021835797Y0024562139D01*
X0021846500Y0024666600D01*
X0021846500Y0025717400D01*
X0021835526Y0025823166D01*
X0021779550Y0025990946D01*
X0021686478Y0026141348D01*
X0021583482Y0026244165D01*
X0021549403Y0026306448D01*
X0021546500Y0026333338D01*
X0021546500Y0026431340D01*
X0021566502Y0026499461D01*
X0021583405Y0026520435D01*
X0021838565Y0026775595D01*
X0021900877Y0026809621D01*
X0021927660Y0026812500D01*
X0022898134Y0026812500D01*
X0022960316Y0026819255D01*
X0023096705Y0026870385D01*
X0023213261Y0026957739D01*
X0023300615Y0027074295D01*
X0023351745Y0027210684D01*
X0023358500Y0027272866D01*
X0023358500Y0029969134D01*
X0023351745Y0030031316D01*
X0023300615Y0030167705D01*
X0023213261Y0030284261D01*
X0023096705Y0030371615D01*
X0022960316Y0030422745D01*
X0022898134Y0030429500D01*
X0021401866Y0030429500D01*
X0021339684Y0030422745D01*
X0021203295Y0030371615D01*
X0021086739Y0030284261D01*
X0020999385Y0030167705D01*
X0020948255Y0030031316D01*
X0020941500Y0029969134D01*
X0020941500Y0027934660D01*
X0020921498Y0027866539D01*
X0020904595Y0027845565D01*
X0020357480Y0027298450D01*
X0020351217Y0027292599D01*
X0020345809Y0027287881D01*
X0020303285Y0027268288D01*
X0020298869Y0027244394D01*
X0020289527Y0027228826D01*
X0020270873Y0027202283D01*
X0020266939Y0027196986D01*
X0020227524Y0027146718D01*
X0020224401Y0027139802D01*
X0020223017Y0027137516D01*
X0020214643Y0027122835D01*
X0020213378Y0027120475D01*
X0020209010Y0027114261D01*
X0020206250Y0027107182D01*
X0020206249Y0027107180D01*
X0020185798Y0027054725D01*
X0020183247Y0027048656D01*
X0020156955Y0026990427D01*
X0020155571Y0026982960D01*
X0020154770Y0026980405D01*
X0020150141Y0026964152D01*
X0020149478Y0026961572D01*
X0020146718Y0026954491D01*
X0020145727Y0026946960D01*
X0020145726Y0026946958D01*
X0020138379Y0026891148D01*
X0020137348Y0026884641D01*
X0020125704Y0026821814D01*
X0020126141Y0026814234D01*
X0020126141Y0026814233D01*
X0020129291Y0026759608D01*
X0020129500Y0026752354D01*
X0020129500Y0026333480D01*
X0020109498Y0026265359D01*
X0020092675Y0026244464D01*
X0019988695Y0026140303D01*
X0019986094Y0026136084D01*
X0019928970Y0026095583D01*
X0019858047Y0026092351D01*
X0019796635Y0026127976D01*
X0019790078Y0026135530D01*
X0019786478Y0026141348D01*
X0019661303Y0026266305D01*
X0019646500Y0026275430D01*
X0019516968Y0026355275D01*
X0019516966Y0026355276D01*
X0019510738Y0026359115D01*
X0019422087Y0026388519D01*
X0019370129Y0026405753D01*
X0019311769Y0026446184D01*
X0019284532Y0026511748D01*
X0019297065Y0026581629D01*
X0019320701Y0026614441D01*
X0020041605Y0027335345D01*
X0020050385Y0027343335D01*
X0020050387Y0027343337D01*
X0020057080Y0027347584D01*
X0020094590Y0027387528D01*
X0020147475Y0027418601D01*
X0020156751Y0027450591D01*
X0020161040Y0027456886D01*
X0020165549Y0027463092D01*
X0020170972Y0027468867D01*
X0020174788Y0027475809D01*
X0020174792Y0027475814D01*
X0020181303Y0027487658D01*
X0020192157Y0027504182D01*
X0020200445Y0027514868D01*
X0020205304Y0027521132D01*
X0020208452Y0027528406D01*
X0020223654Y0027563535D01*
X0020228876Y0027574195D01*
X0020247305Y0027607716D01*
X0020247306Y0027607718D01*
X0020251124Y0027614663D01*
X0020256459Y0027635441D01*
X0020262858Y0027654131D01*
X0020271380Y0027673824D01*
X0020278606Y0027719448D01*
X0020281013Y0027731071D01*
X0020290528Y0027768132D01*
X0020292500Y0027775812D01*
X0020292500Y0027797259D01*
X0020294051Y0027816969D01*
X0020296166Y0027830323D01*
X0020297406Y0027838152D01*
X0020293059Y0027884141D01*
X0020292500Y0027895996D01*
X0020292500Y0030443944D01*
X0020293059Y0030455800D01*
X0020293059Y0030455803D01*
X0020294788Y0030463537D01*
X0020292562Y0030534369D01*
X0020292500Y0030538327D01*
X0020292500Y0030567432D01*
X0020291944Y0030571832D01*
X0020291012Y0030583670D01*
X0020289811Y0030621906D01*
X0020289562Y0030629831D01*
X0020283580Y0030650421D01*
X0020279570Y0030669784D01*
X0020277875Y0030683204D01*
X0020277875Y0030683205D01*
X0020276882Y0030691064D01*
X0020273966Y0030698429D01*
X0020273965Y0030698433D01*
X0020259876Y0030734018D01*
X0020256031Y0030745247D01*
X0020245356Y0030781990D01*
X0020243145Y0030789601D01*
X0020232230Y0030808057D01*
X0020223531Y0030825813D01*
X0020223182Y0030826693D01*
X0020215635Y0030845756D01*
X0020188480Y0030883132D01*
X0020181965Y0030893051D01*
X0020162492Y0030925977D01*
X0020162489Y0030925981D01*
X0020158452Y0030932807D01*
X0020143291Y0030947968D01*
X0020130449Y0030963003D01*
X0020117841Y0030980357D01*
X0020082241Y0031009808D01*
X0020073462Y0031017797D01*
X0018395405Y0032695855D01*
X0018361379Y0032758167D01*
X0018358500Y0032784950D01*
X0018358500Y0032956331D01*
X0019742001Y0032956331D01*
X0019742371Y0032949509D01*
X0019747895Y0032898648D01*
X0019751521Y0032883395D01*
X0019796676Y0032762946D01*
X0019805214Y0032747351D01*
X0019881715Y0032645276D01*
X0019894276Y0032632714D01*
X0019996351Y0032556213D01*
X0020011946Y0032547676D01*
X0020132394Y0032502522D01*
X0020147649Y0032498894D01*
X0020198514Y0032493369D01*
X0020205328Y0032493000D01*
X0021277885Y0032493000D01*
X0021293124Y0032497475D01*
X0021294329Y0032498865D01*
X0021296000Y0032506548D01*
X0021296000Y0032511116D01*
X0021804000Y0032511116D01*
X0021808475Y0032495877D01*
X0021809865Y0032494672D01*
X0021817548Y0032493001D01*
X0022894669Y0032493001D01*
X0022901490Y0032493371D01*
X0022952352Y0032498894D01*
X0022967604Y0032502521D01*
X0023088054Y0032547676D01*
X0023103649Y0032556213D01*
X0023205724Y0032632714D01*
X0023218285Y0032645276D01*
X0023294786Y0032747351D01*
X0023303324Y0032762946D01*
X0023348478Y0032883394D01*
X0023352105Y0032898649D01*
X0023357631Y0032949514D01*
X0023358000Y0032956328D01*
X0023358000Y0033428885D01*
X0023353525Y0033444124D01*
X0023352135Y0033445329D01*
X0023344452Y0033447000D01*
X0021822115Y0033447000D01*
X0021806876Y0033442525D01*
X0021805671Y0033441135D01*
X0021804000Y0033433452D01*
X0021804000Y0032511116D01*
X0021296000Y0032511116D01*
X0021296000Y0033428885D01*
X0021291525Y0033444124D01*
X0021290135Y0033445329D01*
X0021282452Y0033447000D01*
X0019760116Y0033447000D01*
X0019744877Y0033442525D01*
X0019743672Y0033441135D01*
X0019742001Y0033433452D01*
X0019742001Y0032956331D01*
X0018358500Y0032956331D01*
X0018358500Y0033973115D01*
X0019742000Y0033973115D01*
X0019746475Y0033957876D01*
X0019747865Y0033956671D01*
X0019755548Y0033955000D01*
X0021277885Y0033955000D01*
X0021293124Y0033959475D01*
X0021294329Y0033960865D01*
X0021296000Y0033968548D01*
X0021296000Y0033973115D01*
X0021804000Y0033973115D01*
X0021808475Y0033957876D01*
X0021809865Y0033956671D01*
X0021817548Y0033955000D01*
X0023339884Y0033955000D01*
X0023355123Y0033959475D01*
X0023356328Y0033960865D01*
X0023357999Y0033968548D01*
X0023357999Y0034445669D01*
X0023357629Y0034452490D01*
X0023352105Y0034503352D01*
X0023348479Y0034518604D01*
X0023303324Y0034639054D01*
X0023294786Y0034654649D01*
X0023218285Y0034756724D01*
X0023205724Y0034769285D01*
X0023103649Y0034845786D01*
X0023088054Y0034854324D01*
X0022967606Y0034899478D01*
X0022952351Y0034903105D01*
X0022901486Y0034908631D01*
X0022894672Y0034909000D01*
X0021822115Y0034909000D01*
X0021806876Y0034904525D01*
X0021805671Y0034903135D01*
X0021804000Y0034895452D01*
X0021804000Y0033973115D01*
X0021296000Y0033973115D01*
X0021296000Y0034890884D01*
X0021291525Y0034906123D01*
X0021290135Y0034907328D01*
X0021282452Y0034908999D01*
X0020205331Y0034908999D01*
X0020198510Y0034908629D01*
X0020147648Y0034903105D01*
X0020132396Y0034899479D01*
X0020011946Y0034854324D01*
X0019996351Y0034845786D01*
X0019894276Y0034769285D01*
X0019881715Y0034756724D01*
X0019805214Y0034654649D01*
X0019796676Y0034639054D01*
X0019751522Y0034518606D01*
X0019747895Y0034503351D01*
X0019742369Y0034452486D01*
X0019742000Y0034445672D01*
X0019742000Y0033973115D01*
X0018358500Y0033973115D01*
X0018358500Y0035049134D01*
X0018351745Y0035111316D01*
X0018300615Y0035247705D01*
X0018213261Y0035364261D01*
X0018096705Y0035451615D01*
X0017960316Y0035502745D01*
X0017898134Y0035509500D01*
X0016401865Y0035509500D01*
X0016339683Y0035502745D01*
X0016203295Y0035451615D01*
X0016086739Y0035364261D01*
X0015999385Y0035247705D01*
X0015948255Y0035111316D01*
X0015941500Y0035049134D01*
X0015941500Y0032352866D01*
X0015948255Y0032290684D01*
X0015999385Y0032154294D01*
X0016086739Y0032037739D01*
X0016203295Y0031950385D01*
X0016339683Y0031899255D01*
X0016401865Y0031892500D01*
X0017284050Y0031892500D01*
X0017352171Y0031872498D01*
X0017373145Y0031855595D01*
X0018938595Y0030290146D01*
X0018972620Y0030227834D01*
X0018975500Y0030201051D01*
X0018975500Y0029955500D01*
X0018955498Y0029887379D01*
X0018901842Y0029840886D01*
X0018849500Y0029829500D01*
X0016401865Y0029829500D01*
X0016339683Y0029822745D01*
X0016203295Y0029771615D01*
X0016086739Y0029684261D01*
X0015999385Y0029567705D01*
X0015948255Y0029431316D01*
X0015941500Y0029369134D01*
X0015941500Y0028522660D01*
X0015921498Y0028454539D01*
X0015904595Y0028433565D01*
X0014327480Y0026856450D01*
X0014321215Y0026850596D01*
X0014277615Y0026812561D01*
X0014273248Y0026806347D01*
X0014240872Y0026760281D01*
X0014236939Y0026754986D01*
X0014197524Y0026704718D01*
X0014194401Y0026697802D01*
X0014193017Y0026695516D01*
X0014184643Y0026680835D01*
X0014183378Y0026678475D01*
X0014179010Y0026672261D01*
X0014176250Y0026665182D01*
X0014176249Y0026665180D01*
X0014155798Y0026612725D01*
X0014153247Y0026606656D01*
X0014126955Y0026548427D01*
X0014125571Y0026540960D01*
X0014124770Y0026538405D01*
X0014120141Y0026522152D01*
X0014119478Y0026519572D01*
X0014116718Y0026512491D01*
X0014115727Y0026504960D01*
X0014115726Y0026504958D01*
X0014108379Y0026449148D01*
X0014107348Y0026442641D01*
X0014095704Y0026379814D01*
X0014096141Y0026372234D01*
X0014096141Y0026372233D01*
X0014099291Y0026317608D01*
X0014099500Y0026310354D01*
X0014099500Y0022739499D01*
X0014079498Y0022671378D01*
X0014025842Y0022624885D01*
X0013973500Y0022613499D01*
X0013667664Y0022613499D01*
X0013617780Y0022609574D01*
X0013591918Y0022607539D01*
X0013591915Y0022607539D01*
X0013586164Y0022607086D01*
X0013396621Y0022556298D01*
X0013221779Y0022467211D01*
X0013069280Y0022343720D01*
X0012945789Y0022191221D01*
X0012867290Y0022037158D01*
X0012864813Y0022032297D01*
X0012816065Y0021980682D01*
X0012752546Y0021963500D01*
X0008560500Y0021963500D01*
X0008492379Y0021983502D01*
X0008445886Y0022037158D01*
X0008434500Y0022089500D01*
X0008434500Y0023337542D01*
X0008422978Y0023479200D01*
X0008367110Y0023696794D01*
X0008273591Y0023901055D01*
X0008248899Y0023936583D01*
X0008198221Y0024009498D01*
X0008145379Y0024085527D01*
X0007986527Y0024244380D01*
X0007802055Y0024372591D01*
X0007597794Y0024466110D01*
X0007380200Y0024521978D01*
X0007326295Y0024526362D01*
X0007241092Y0024533293D01*
X0007241082Y0024533293D01*
X0007238542Y0024533500D01*
X0005613458Y0024533500D01*
X0005610918Y0024533293D01*
X0005610908Y0024533293D01*
X0005525705Y0024526362D01*
X0005471800Y0024521978D01*
X0005254206Y0024466110D01*
X0005049945Y0024372591D01*
X0004865473Y0024244380D01*
X0004706620Y0024085527D01*
X0004653779Y0024009498D01*
X0004603102Y0023936583D01*
X0004578409Y0023901055D01*
X0004484890Y0023696794D01*
X0004429022Y0023479200D01*
X0004417500Y0023337542D01*
X0004417500Y0021712458D01*
X0000508000Y0021712458D01*
X0000508000Y0035082861D01*
X0000528002Y0035150982D01*
X0000581658Y0035197475D01*
X0000651932Y0035207579D01*
X0000716512Y0035178085D01*
X0000728947Y0035165692D01*
X0000769928Y0035118715D01*
X0000872597Y0035001023D01*
X0000894866Y0034975495D01*
X0000897551Y0034973052D01*
X0001107268Y0034782225D01*
X0001151481Y0034741994D01*
X0001433233Y0034539534D01*
X0001736388Y0034370800D01*
X0002056928Y0034238028D01*
X0002060422Y0034237033D01*
X0002060423Y0034237032D01*
X0002387103Y0034143975D01*
X0002387108Y0034143974D01*
X0002390604Y0034142978D01*
X0002587304Y0034110767D01*
X0002729412Y0034087496D01*
X0002729419Y0034087495D01*
X0002732993Y0034086910D01*
X0002906275Y0034078738D01*
X0003075931Y0034070737D01*
X0003075932Y0034070737D01*
X0003079558Y0034070566D01*
X0003088415Y0034071170D01*
X0003422073Y0034093916D01*
X0003422081Y0034093917D01*
X0003425704Y0034094164D01*
X0003429279Y0034094827D01*
X0003429282Y0034094827D01*
X0003763279Y0034156730D01*
X0003763283Y0034156731D01*
X0003766844Y0034157391D01*
X0004098455Y0034259408D01*
X0004416145Y0034398864D01*
X0004507909Y0034452486D01*
X0004712560Y0034572074D01*
X0004712562Y0034572075D01*
X0004715700Y0034573909D01*
X0004823236Y0034654649D01*
X0004990244Y0034780042D01*
X0004990248Y0034780045D01*
X0004993151Y0034782225D01*
X0005244819Y0035021050D01*
X0005467370Y0035287217D01*
X0005657853Y0035577201D01*
X0005786446Y0035832879D01*
X0005812117Y0035883920D01*
X0005812120Y0035883928D01*
X0005813744Y0035887156D01*
X0005932977Y0036212974D01*
X0005933822Y0036216496D01*
X0005933825Y0036216504D01*
X0006013124Y0036546809D01*
X0006013125Y0036546813D01*
X0006013971Y0036550338D01*
X0006048035Y0036831829D01*
X0006055316Y0036891996D01*
X0006055316Y0036892003D01*
X0006055652Y0036894775D01*
X0006061599Y0037084000D01*
X0006061438Y0037086796D01*
X0006041836Y0037426754D01*
X0006041835Y0037426759D01*
X0006041627Y0037430374D01*
X0005981976Y0037772158D01*
X0005883437Y0038104820D01*
X0005747316Y0038423952D01*
X0005697569Y0038511169D01*
X0005577208Y0038722184D01*
X0005575417Y0038725324D01*
X0005370018Y0039004940D01*
X0005133842Y0039259096D01*
X0005131089Y0039261448D01*
X0005131083Y0039261453D01*
X0005120853Y0039270190D01*
X0005082044Y0039329640D01*
X0005081538Y0039400635D01*
X0005119495Y0039460634D01*
X0005183863Y0039490586D01*
X0005202684Y0039492000D01*
X0034932260Y0039492000D01*
X0035000381Y0039471998D01*
G37*
%TD.AperFunction*%
M02*