%TF.GenerationSoftware,KiCad,Pcbnew,(6.0.2)*%
%TF.CreationDate,2022-04-05T13:44:54-03:00*%
%TF.ProjectId,EM8900,454d3839-3030-42e6-9b69-6361645f7063,rev?*%
%TF.SameCoordinates,PX5f5e100PY8583b00*%
%TF.FileFunction,Legend,Top*%
%TF.FilePolarity,Positive*%
%FSLAX46Y46*%
G04 Gerber Fmt 4.6, Leading zero omitted, Abs format (unit mm)*
G04 Created by KiCad (PCBNEW (6.0.2)) date 2022-04-05 13:44:54*
%MOMM*%
%LPD*%
G01*
G04 APERTURE LIST*
G04 Aperture macros list*
%AMRoundRect*
0 Rectangle with rounded corners*
0 $1 Rounding radius*
0 $2 $3 $4 $5 $6 $7 $8 $9 X,Y pos of 4 corners*
0 Add a 4 corners polygon primitive as box body*
4,1,4,$2,$3,$4,$5,$6,$7,$8,$9,$2,$3,0*
0 Add four circle primitives for the rounded corners*
1,1,$1+$1,$2,$3*
1,1,$1+$1,$4,$5*
1,1,$1+$1,$6,$7*
1,1,$1+$1,$8,$9*
0 Add four rect primitives between the rounded corners*
20,1,$1+$1,$2,$3,$4,$5,0*
20,1,$1+$1,$4,$5,$6,$7,0*
20,1,$1+$1,$6,$7,$8,$9,0*
20,1,$1+$1,$8,$9,$2,$3,0*%
G04 Aperture macros list end*
%ADD10C,0.150000*%
%ADD11C,0.254000*%
%ADD12C,0.120000*%
%ADD13C,0.100000*%
%ADD14C,0.200000*%
%ADD15RoundRect,0.250000X-0.250000X-0.475000X0.250000X-0.475000X0.250000X0.475000X-0.250000X0.475000X0*%
%ADD16RoundRect,0.250000X0.475000X-0.250000X0.475000X0.250000X-0.475000X0.250000X-0.475000X-0.250000X0*%
%ADD17R,0.800000X0.300000*%
%ADD18R,1.800000X2.500000*%
%ADD19RoundRect,0.750000X-0.750000X0.750000X-0.750000X-0.750000X0.750000X-0.750000X0.750000X0.750000X0*%
%ADD20RoundRect,0.425000X-1.075000X-0.425000X1.075000X-0.425000X1.075000X0.425000X-1.075000X0.425000X0*%
%ADD21R,1.400000X2.600000*%
%ADD22R,2.600000X1.400000*%
%ADD23RoundRect,0.750000X0.750000X-0.750000X0.750000X0.750000X-0.750000X0.750000X-0.750000X-0.750000X0*%
%ADD24RoundRect,0.250000X0.250000X0.475000X-0.250000X0.475000X-0.250000X-0.475000X0.250000X-0.475000X0*%
%ADD25RoundRect,0.750000X0.750000X0.750000X-0.750000X0.750000X-0.750000X-0.750000X0.750000X-0.750000X0*%
%ADD26C,5.000000*%
G04 APERTURE END LIST*
D10*
X31821466Y29397220D02*
X32154800Y28397220D01*
X32488133Y29397220D01*
X32773847Y28444839D02*
X32916704Y28397220D01*
X33154800Y28397220D01*
X33250038Y28444839D01*
X33297657Y28492458D01*
X33345276Y28587696D01*
X33345276Y28682934D01*
X33297657Y28778172D01*
X33250038Y28825791D01*
X33154800Y28873410D01*
X32964323Y28921029D01*
X32869085Y28968648D01*
X32821466Y29016267D01*
X32773847Y29111505D01*
X32773847Y29206743D01*
X32821466Y29301981D01*
X32869085Y29349600D01*
X32964323Y29397220D01*
X33202419Y29397220D01*
X33345276Y29349600D01*
X33773847Y29397220D02*
X33773847Y28587696D01*
X33821466Y28492458D01*
X33869085Y28444839D01*
X33964323Y28397220D01*
X34154800Y28397220D01*
X34250038Y28444839D01*
X34297657Y28492458D01*
X34345276Y28587696D01*
X34345276Y29397220D01*
X34821466Y28397220D02*
X34821466Y29397220D01*
X35202419Y29397220D01*
X35297657Y29349600D01*
X35345276Y29301981D01*
X35392895Y29206743D01*
X35392895Y29063886D01*
X35345276Y28968648D01*
X35297657Y28921029D01*
X35202419Y28873410D01*
X34821466Y28873410D01*
X16349923Y2232039D02*
X16492780Y2184420D01*
X16730876Y2184420D01*
X16826114Y2232039D01*
X16873733Y2279658D01*
X16921352Y2374896D01*
X16921352Y2470134D01*
X16873733Y2565372D01*
X16826114Y2612991D01*
X16730876Y2660610D01*
X16540400Y2708229D01*
X16445161Y2755848D01*
X16397542Y2803467D01*
X16349923Y2898705D01*
X16349923Y2993943D01*
X16397542Y3089181D01*
X16445161Y3136800D01*
X16540400Y3184420D01*
X16778495Y3184420D01*
X16921352Y3136800D01*
X17349923Y3184420D02*
X17349923Y2374896D01*
X17397542Y2279658D01*
X17445161Y2232039D01*
X17540400Y2184420D01*
X17730876Y2184420D01*
X17826114Y2232039D01*
X17873733Y2279658D01*
X17921352Y2374896D01*
X17921352Y3184420D01*
X18397542Y2184420D02*
X18397542Y3184420D01*
X18778495Y3184420D01*
X18873733Y3136800D01*
X18921352Y3089181D01*
X18968971Y2993943D01*
X18968971Y2851086D01*
X18921352Y2755848D01*
X18873733Y2708229D01*
X18778495Y2660610D01*
X18397542Y2660610D01*
X19397542Y2708229D02*
X19730876Y2708229D01*
X19873733Y2184420D02*
X19397542Y2184420D01*
X19397542Y3184420D01*
X19873733Y3184420D01*
X20873733Y2184420D02*
X20540399Y2660610D01*
X20302304Y2184420D02*
X20302304Y3184420D01*
X20683257Y3184420D01*
X20778495Y3136800D01*
X20826114Y3089181D01*
X20873733Y2993943D01*
X20873733Y2851086D01*
X20826114Y2755848D01*
X20778495Y2708229D01*
X20683257Y2660610D01*
X20302304Y2660610D01*
X21873733Y2279658D02*
X21826114Y2232039D01*
X21683257Y2184420D01*
X21588019Y2184420D01*
X21445161Y2232039D01*
X21349923Y2327277D01*
X21302304Y2422515D01*
X21254685Y2612991D01*
X21254685Y2755848D01*
X21302304Y2946324D01*
X21349923Y3041562D01*
X21445161Y3136800D01*
X21588019Y3184420D01*
X21683257Y3184420D01*
X21826114Y3136800D01*
X21873733Y3089181D01*
X22254685Y2470134D02*
X22730876Y2470134D01*
X22159447Y2184420D02*
X22492780Y3184420D01*
X22826114Y2184420D01*
X23159447Y2184420D02*
X23159447Y3184420D01*
X23540400Y3184420D01*
X23635638Y3136800D01*
X23683257Y3089181D01*
X23730876Y2993943D01*
X23730876Y2851086D01*
X23683257Y2755848D01*
X23635638Y2708229D01*
X23540400Y2660610D01*
X23159447Y2660610D01*
X5137104Y29397220D02*
X5708533Y29397220D01*
X5422819Y28397220D02*
X5422819Y29397220D01*
X6041866Y28921029D02*
X6375200Y28921029D01*
X6518057Y28397220D02*
X6041866Y28397220D01*
X6041866Y29397220D01*
X6518057Y29397220D01*
X7470438Y29349600D02*
X7375200Y29397220D01*
X7232342Y29397220D01*
X7089485Y29349600D01*
X6994247Y29254362D01*
X6946628Y29159124D01*
X6899009Y28968648D01*
X6899009Y28825791D01*
X6946628Y28635315D01*
X6994247Y28540077D01*
X7089485Y28444839D01*
X7232342Y28397220D01*
X7327580Y28397220D01*
X7470438Y28444839D01*
X7518057Y28492458D01*
X7518057Y28825791D01*
X7327580Y28825791D01*
X22769333Y22577858D02*
X22721714Y22530239D01*
X22578857Y22482620D01*
X22483619Y22482620D01*
X22340761Y22530239D01*
X22245523Y22625477D01*
X22197904Y22720715D01*
X22150285Y22911191D01*
X22150285Y23054048D01*
X22197904Y23244524D01*
X22245523Y23339762D01*
X22340761Y23435000D01*
X22483619Y23482620D01*
X22578857Y23482620D01*
X22721714Y23435000D01*
X22769333Y23387381D01*
X23150285Y23387381D02*
X23197904Y23435000D01*
X23293142Y23482620D01*
X23531238Y23482620D01*
X23626476Y23435000D01*
X23674095Y23387381D01*
X23721714Y23292143D01*
X23721714Y23196905D01*
X23674095Y23054048D01*
X23102666Y22482620D01*
X23721714Y22482620D01*
X22769333Y24736858D02*
X22721714Y24689239D01*
X22578857Y24641620D01*
X22483619Y24641620D01*
X22340761Y24689239D01*
X22245523Y24784477D01*
X22197904Y24879715D01*
X22150285Y25070191D01*
X22150285Y25213048D01*
X22197904Y25403524D01*
X22245523Y25498762D01*
X22340761Y25594000D01*
X22483619Y25641620D01*
X22578857Y25641620D01*
X22721714Y25594000D01*
X22769333Y25546381D01*
X23102666Y25641620D02*
X23721714Y25641620D01*
X23388380Y25260667D01*
X23531238Y25260667D01*
X23626476Y25213048D01*
X23674095Y25165429D01*
X23721714Y25070191D01*
X23721714Y24832096D01*
X23674095Y24736858D01*
X23626476Y24689239D01*
X23531238Y24641620D01*
X23245523Y24641620D01*
X23150285Y24689239D01*
X23102666Y24736858D01*
X22769333Y17214858D02*
X22721714Y17167239D01*
X22578857Y17119620D01*
X22483619Y17119620D01*
X22340761Y17167239D01*
X22245523Y17262477D01*
X22197904Y17357715D01*
X22150285Y17548191D01*
X22150285Y17691048D01*
X22197904Y17881524D01*
X22245523Y17976762D01*
X22340761Y18072000D01*
X22483619Y18119620D01*
X22578857Y18119620D01*
X22721714Y18072000D01*
X22769333Y18024381D01*
X23626476Y17786286D02*
X23626476Y17119620D01*
X23388380Y18167239D02*
X23150285Y17452953D01*
X23769333Y17452953D01*
D11*
X19032380Y20695477D02*
X19032380Y19667381D01*
X19092857Y19546429D01*
X19153333Y19485953D01*
X19274285Y19425477D01*
X19516190Y19425477D01*
X19637142Y19485953D01*
X19697619Y19546429D01*
X19758095Y19667381D01*
X19758095Y20695477D01*
X21028095Y19425477D02*
X20302380Y19425477D01*
X20665238Y19425477D02*
X20665238Y20695477D01*
X20544285Y20514048D01*
X20423333Y20393096D01*
X20302380Y20332620D01*
D10*
X6092666Y27466820D02*
X6092666Y26752534D01*
X6045047Y26609677D01*
X5949809Y26514439D01*
X5806952Y26466820D01*
X5711714Y26466820D01*
X7092666Y26466820D02*
X6521238Y26466820D01*
X6806952Y26466820D02*
X6806952Y27466820D01*
X6711714Y27323962D01*
X6616476Y27228724D01*
X6521238Y27181105D01*
X14474666Y24723620D02*
X14474666Y24009334D01*
X14427047Y23866477D01*
X14331809Y23771239D01*
X14188952Y23723620D01*
X14093714Y23723620D01*
X15379428Y24723620D02*
X15188952Y24723620D01*
X15093714Y24676000D01*
X15046095Y24628381D01*
X14950857Y24485524D01*
X14903238Y24295048D01*
X14903238Y23914096D01*
X14950857Y23818858D01*
X14998476Y23771239D01*
X15093714Y23723620D01*
X15284190Y23723620D01*
X15379428Y23771239D01*
X15427047Y23818858D01*
X15474666Y23914096D01*
X15474666Y24152191D01*
X15427047Y24247429D01*
X15379428Y24295048D01*
X15284190Y24342667D01*
X15093714Y24342667D01*
X14998476Y24295048D01*
X14950857Y24247429D01*
X14903238Y24152191D01*
X25142666Y24723620D02*
X25142666Y24009334D01*
X25095047Y23866477D01*
X24999809Y23771239D01*
X24856952Y23723620D01*
X24761714Y23723620D01*
X25523619Y24723620D02*
X26190285Y24723620D01*
X25761714Y23723620D01*
D11*
X20474523Y30949334D02*
X20474523Y30344572D01*
X19204523Y30344572D01*
X20474523Y32037905D02*
X20474523Y31312191D01*
X20474523Y31675048D02*
X19204523Y31675048D01*
X19385952Y31554096D01*
X19506904Y31433143D01*
X19567380Y31312191D01*
D10*
X33270666Y27466820D02*
X33270666Y26752534D01*
X33223047Y26609677D01*
X33127809Y26514439D01*
X32984952Y26466820D01*
X32889714Y26466820D01*
X33889714Y27038248D02*
X33794476Y27085867D01*
X33746857Y27133486D01*
X33699238Y27228724D01*
X33699238Y27276343D01*
X33746857Y27371581D01*
X33794476Y27419200D01*
X33889714Y27466820D01*
X34080190Y27466820D01*
X34175428Y27419200D01*
X34223047Y27371581D01*
X34270666Y27276343D01*
X34270666Y27228724D01*
X34223047Y27133486D01*
X34175428Y27085867D01*
X34080190Y27038248D01*
X33889714Y27038248D01*
X33794476Y26990629D01*
X33746857Y26943010D01*
X33699238Y26847772D01*
X33699238Y26657296D01*
X33746857Y26562058D01*
X33794476Y26514439D01*
X33889714Y26466820D01*
X34080190Y26466820D01*
X34175428Y26514439D01*
X34223047Y26562058D01*
X34270666Y26657296D01*
X34270666Y26847772D01*
X34223047Y26943010D01*
X34175428Y26990629D01*
X34080190Y27038248D01*
X19848333Y15026858D02*
X19800714Y14979239D01*
X19657857Y14931620D01*
X19562619Y14931620D01*
X19419761Y14979239D01*
X19324523Y15074477D01*
X19276904Y15169715D01*
X19229285Y15360191D01*
X19229285Y15503048D01*
X19276904Y15693524D01*
X19324523Y15788762D01*
X19419761Y15884000D01*
X19562619Y15931620D01*
X19657857Y15931620D01*
X19800714Y15884000D01*
X19848333Y15836381D01*
X20800714Y14931620D02*
X20229285Y14931620D01*
X20515000Y14931620D02*
X20515000Y15931620D01*
X20419761Y15788762D01*
X20324523Y15693524D01*
X20229285Y15645905D01*
X19761333Y4006858D02*
X19713714Y3959239D01*
X19570857Y3911620D01*
X19475619Y3911620D01*
X19332761Y3959239D01*
X19237523Y4054477D01*
X19189904Y4149715D01*
X19142285Y4340191D01*
X19142285Y4483048D01*
X19189904Y4673524D01*
X19237523Y4768762D01*
X19332761Y4864000D01*
X19475619Y4911620D01*
X19570857Y4911620D01*
X19713714Y4864000D01*
X19761333Y4816381D01*
X20666095Y4911620D02*
X20189904Y4911620D01*
X20142285Y4435429D01*
X20189904Y4483048D01*
X20285142Y4530667D01*
X20523238Y4530667D01*
X20618476Y4483048D01*
X20666095Y4435429D01*
X20713714Y4340191D01*
X20713714Y4102096D01*
X20666095Y4006858D01*
X20618476Y3959239D01*
X20523238Y3911620D01*
X20285142Y3911620D01*
X20189904Y3959239D01*
X20142285Y4006858D01*
D12*
X19626748Y23768000D02*
X20149252Y23768000D01*
X19626748Y22298000D02*
X20149252Y22298000D01*
X19626748Y24457000D02*
X20149252Y24457000D01*
X19626748Y25927000D02*
X20149252Y25927000D01*
X22328000Y19723748D02*
X22328000Y20246252D01*
X23798000Y19723748D02*
X23798000Y20246252D01*
D11*
X18225000Y21650000D02*
G75*
G03*
X18225000Y21650000I-125000J0D01*
G01*
D12*
X126000Y25175000D02*
X126000Y14825000D01*
X1076000Y14825000D02*
X826000Y14325000D01*
X7926000Y14825000D02*
X7626000Y14325000D01*
X2726000Y14325000D02*
X2776000Y14325000D01*
X12726000Y14325000D02*
X12726000Y25175000D01*
X826000Y14325000D02*
X2726000Y14325000D01*
X2526000Y14825000D02*
X7926000Y14825000D01*
X126000Y14825000D02*
X1076000Y14825000D01*
X2776000Y14325000D02*
X2526000Y14825000D01*
X12726000Y25175000D02*
X126000Y25175000D01*
X7626000Y14325000D02*
X12726000Y14325000D01*
X13478000Y17385000D02*
X16138000Y17385000D01*
X16138000Y19985000D02*
X16138000Y17385000D01*
X13478000Y19985000D02*
X16138000Y19985000D01*
X13478000Y21255000D02*
X13478000Y22585000D01*
X13478000Y19985000D02*
X13478000Y17385000D01*
X13478000Y22585000D02*
X14808000Y22585000D01*
X24146000Y22585000D02*
X25476000Y22585000D01*
X24146000Y17385000D02*
X26806000Y17385000D01*
X24146000Y21255000D02*
X24146000Y22585000D01*
X24146000Y19985000D02*
X26806000Y19985000D01*
X26806000Y19985000D02*
X26806000Y17385000D01*
X24146000Y19985000D02*
X24146000Y17385000D01*
D13*
X16650000Y30161000D02*
X16650000Y31661000D01*
X19650000Y34161000D02*
X18650000Y34161000D01*
D14*
X23250000Y28561000D02*
X23250000Y28561000D01*
D13*
X22650000Y30661000D02*
X22650000Y32161000D01*
D14*
X23250000Y28761000D02*
X23250000Y28761000D01*
D13*
X20650000Y28161000D02*
X19650000Y28161000D01*
D14*
X23250000Y28561000D02*
G75*
G03*
X23250000Y28761000I0J100000D01*
G01*
X23250000Y28761000D02*
G75*
G03*
X23250000Y28561000I0J-100000D01*
G01*
D12*
X39904000Y25145000D02*
X38954000Y25145000D01*
X37504000Y25145000D02*
X32104000Y25145000D01*
X39204000Y25645000D02*
X37304000Y25645000D01*
X38954000Y25145000D02*
X39204000Y25645000D01*
X37254000Y25645000D02*
X37504000Y25145000D01*
X37304000Y25645000D02*
X37254000Y25645000D01*
X39904000Y14795000D02*
X39904000Y25145000D01*
X32404000Y25645000D02*
X27304000Y25645000D01*
X27304000Y25645000D02*
X27304000Y14795000D01*
X27304000Y14795000D02*
X39904000Y14795000D01*
X32104000Y25145000D02*
X32404000Y25645000D01*
X20276252Y16329000D02*
X19753748Y16329000D01*
X20276252Y17799000D02*
X19753748Y17799000D01*
X19288000Y5795000D02*
X19288000Y13855000D01*
X16287000Y7935000D02*
X16287000Y11715000D01*
X17927000Y6263000D02*
X17927000Y8785000D01*
X16367000Y7791000D02*
X16367000Y11859000D01*
X19648000Y5754000D02*
X19648000Y13896000D01*
X17767000Y10865000D02*
X17767000Y13294000D01*
X17647000Y10865000D02*
X17647000Y13217000D01*
X19047000Y5840000D02*
X19047000Y13810000D01*
X16687000Y10865000D02*
X16687000Y12330000D01*
X17847000Y6308000D02*
X17847000Y8785000D01*
X16727000Y10865000D02*
X16727000Y12381000D01*
X17327000Y10865000D02*
X17327000Y12981000D01*
X18287000Y10865000D02*
X18287000Y13565000D01*
X17847000Y10865000D02*
X17847000Y13342000D01*
X17127000Y6842000D02*
X17127000Y8785000D01*
X18767000Y5911000D02*
X18767000Y13739000D01*
X19408000Y5777000D02*
X19408000Y13873000D01*
X16447000Y10865000D02*
X16447000Y11991000D01*
X18447000Y6020000D02*
X18447000Y8785000D01*
X18247000Y6103000D02*
X18247000Y8785000D01*
X17527000Y6516000D02*
X17527000Y8785000D01*
X16967000Y10865000D02*
X16967000Y12651000D01*
X18247000Y10865000D02*
X18247000Y13547000D01*
X24337698Y7510000D02*
X23537698Y7510000D01*
X17927000Y10865000D02*
X17927000Y13387000D01*
X16087000Y8372000D02*
X16087000Y11278000D01*
X18087000Y6178000D02*
X18087000Y8785000D01*
X16887000Y10865000D02*
X16887000Y12566000D01*
X16647000Y7371000D02*
X16647000Y8785000D01*
X16807000Y10865000D02*
X16807000Y12476000D01*
X17807000Y6332000D02*
X17807000Y8785000D01*
X18407000Y6035000D02*
X18407000Y8785000D01*
X16447000Y7659000D02*
X16447000Y8785000D01*
X16487000Y7597000D02*
X16487000Y8785000D01*
X17607000Y10865000D02*
X17607000Y13190000D01*
X17207000Y6770000D02*
X17207000Y8785000D01*
X18007000Y6219000D02*
X18007000Y8785000D01*
X16727000Y7269000D02*
X16727000Y8785000D01*
X17487000Y10865000D02*
X17487000Y13105000D01*
X16807000Y7174000D02*
X16807000Y8785000D01*
X17487000Y6545000D02*
X17487000Y8785000D01*
X16407000Y7723000D02*
X16407000Y8785000D01*
X17767000Y6356000D02*
X17767000Y8785000D01*
X19608000Y5757000D02*
X19608000Y13893000D01*
X19328000Y5788000D02*
X19328000Y13862000D01*
X19688000Y5751000D02*
X19688000Y13899000D01*
X18447000Y10865000D02*
X18447000Y13630000D01*
X16207000Y8094000D02*
X16207000Y11556000D01*
X18127000Y6159000D02*
X18127000Y8785000D01*
X17247000Y10865000D02*
X17247000Y12915000D01*
X18367000Y10865000D02*
X18367000Y13599000D01*
X18127000Y10865000D02*
X18127000Y13491000D01*
X16767000Y7221000D02*
X16767000Y8785000D01*
X15967000Y8727000D02*
X15967000Y10923000D01*
X19528000Y5764000D02*
X19528000Y13886000D01*
X17687000Y6407000D02*
X17687000Y8785000D01*
X17527000Y10865000D02*
X17527000Y13134000D01*
X17407000Y10865000D02*
X17407000Y13045000D01*
X18887000Y5878000D02*
X18887000Y13772000D01*
X18007000Y10865000D02*
X18007000Y13431000D01*
X17727000Y10865000D02*
X17727000Y13269000D01*
X17287000Y10865000D02*
X17287000Y12949000D01*
X18407000Y10865000D02*
X18407000Y13615000D01*
X18087000Y10865000D02*
X18087000Y13472000D01*
X19888000Y5745000D02*
X19888000Y13905000D01*
X23937698Y7110000D02*
X23937698Y7910000D01*
X18327000Y10865000D02*
X18327000Y13582000D01*
X16847000Y10865000D02*
X16847000Y12522000D01*
X19808000Y5746000D02*
X19808000Y13904000D01*
X16007000Y8596000D02*
X16007000Y11054000D01*
X19127000Y5823000D02*
X19127000Y13827000D01*
X19728000Y5749000D02*
X19728000Y13901000D01*
X18807000Y5900000D02*
X18807000Y13750000D01*
X18647000Y5948000D02*
X18647000Y13702000D01*
X16967000Y6999000D02*
X16967000Y8785000D01*
X16247000Y8012000D02*
X16247000Y11638000D01*
X18167000Y6139000D02*
X18167000Y8785000D01*
X19207000Y5808000D02*
X19207000Y13842000D01*
X16927000Y7041000D02*
X16927000Y8785000D01*
X17367000Y6636000D02*
X17367000Y8785000D01*
X17327000Y6669000D02*
X17327000Y8785000D01*
X17447000Y10865000D02*
X17447000Y13075000D01*
X17127000Y10865000D02*
X17127000Y12808000D01*
X15887000Y9057000D02*
X15887000Y10593000D01*
X17087000Y10865000D02*
X17087000Y12770000D01*
X17807000Y10865000D02*
X17807000Y13318000D01*
X18167000Y10865000D02*
X18167000Y13511000D01*
X19448000Y5773000D02*
X19448000Y13877000D01*
X17607000Y6460000D02*
X17607000Y8785000D01*
X16167000Y8180000D02*
X16167000Y11470000D01*
X19167000Y5815000D02*
X19167000Y13835000D01*
X16487000Y10865000D02*
X16487000Y12053000D01*
X16847000Y7128000D02*
X16847000Y8785000D01*
X17967000Y6241000D02*
X17967000Y8785000D01*
X19928000Y5745000D02*
X19928000Y13905000D01*
X16887000Y7084000D02*
X16887000Y8785000D01*
X16327000Y7861000D02*
X16327000Y11789000D01*
X19007000Y5849000D02*
X19007000Y13801000D01*
X17407000Y6605000D02*
X17407000Y8785000D01*
X17727000Y6381000D02*
X17727000Y8785000D01*
X17167000Y6806000D02*
X17167000Y8785000D01*
X18207000Y10865000D02*
X18207000Y13529000D01*
X17647000Y6433000D02*
X17647000Y8785000D01*
X18527000Y5990000D02*
X18527000Y13660000D01*
X15847000Y9292000D02*
X15847000Y10358000D01*
X19368000Y5783000D02*
X19368000Y13867000D01*
X16127000Y8273000D02*
X16127000Y11377000D01*
X17007000Y6958000D02*
X17007000Y8785000D01*
X17367000Y10865000D02*
X17367000Y13014000D01*
X17007000Y10865000D02*
X17007000Y12692000D01*
X17887000Y6285000D02*
X17887000Y8785000D01*
X19087000Y5831000D02*
X19087000Y13819000D01*
X16687000Y7320000D02*
X16687000Y8785000D01*
X18967000Y5858000D02*
X18967000Y13792000D01*
X18047000Y6198000D02*
X18047000Y8785000D01*
X18847000Y5889000D02*
X18847000Y13761000D01*
X18327000Y6068000D02*
X18327000Y8785000D01*
X16527000Y10865000D02*
X16527000Y12112000D01*
X16527000Y7538000D02*
X16527000Y8785000D01*
X17207000Y10865000D02*
X17207000Y12880000D01*
X16047000Y8479000D02*
X16047000Y11171000D01*
X19488000Y5768000D02*
X19488000Y13882000D01*
X17247000Y6735000D02*
X17247000Y8785000D01*
X18207000Y6121000D02*
X18207000Y8785000D01*
X17287000Y6701000D02*
X17287000Y8785000D01*
X16567000Y7480000D02*
X16567000Y8785000D01*
X17687000Y10865000D02*
X17687000Y13243000D01*
X19248000Y5801000D02*
X19248000Y13849000D01*
X16407000Y10865000D02*
X16407000Y11927000D01*
X18367000Y6051000D02*
X18367000Y8785000D01*
X18567000Y5975000D02*
X18567000Y13675000D01*
X18047000Y10865000D02*
X18047000Y13452000D01*
X16607000Y7425000D02*
X16607000Y8785000D01*
X17567000Y6487000D02*
X17567000Y8785000D01*
X16647000Y10865000D02*
X16647000Y12279000D01*
X19848000Y5745000D02*
X19848000Y13905000D01*
X16607000Y10865000D02*
X16607000Y12225000D01*
X16927000Y10865000D02*
X16927000Y12609000D01*
X17047000Y10865000D02*
X17047000Y12732000D01*
X18727000Y5923000D02*
X18727000Y13727000D01*
X19768000Y5748000D02*
X19768000Y13902000D01*
X17047000Y6918000D02*
X17047000Y8785000D01*
X17167000Y10865000D02*
X17167000Y12844000D01*
X18287000Y6085000D02*
X18287000Y8785000D01*
X17967000Y10865000D02*
X17967000Y13409000D01*
X18687000Y5936000D02*
X18687000Y13714000D01*
X17087000Y6880000D02*
X17087000Y8785000D01*
X18607000Y5962000D02*
X18607000Y13688000D01*
X16567000Y10865000D02*
X16567000Y12170000D01*
X19568000Y5760000D02*
X19568000Y13890000D01*
X15927000Y8877000D02*
X15927000Y10773000D01*
X17567000Y10865000D02*
X17567000Y13163000D01*
X18487000Y6004000D02*
X18487000Y13646000D01*
X18927000Y5868000D02*
X18927000Y13782000D01*
X17887000Y10865000D02*
X17887000Y13365000D01*
X17447000Y6575000D02*
X17447000Y8785000D01*
X16767000Y10865000D02*
X16767000Y12429000D01*
X24048000Y9825000D02*
G75*
G03*
X24048000Y9825000I-4120000J0D01*
G01*
X1718000Y1718000D02*
X4378000Y1718000D01*
X4378000Y1778000D02*
X4378000Y1718000D01*
X1718000Y1778000D02*
X4378000Y1778000D01*
X1718000Y4378000D02*
X3048000Y4378000D01*
X1718000Y1778000D02*
X1718000Y1718000D01*
X1718000Y3048000D02*
X1718000Y4378000D01*
X35754000Y35814000D02*
X35754000Y35754000D01*
X35754000Y37084000D02*
X35754000Y38414000D01*
X38414000Y35814000D02*
X38414000Y35754000D01*
X35754000Y35754000D02*
X38414000Y35754000D01*
X35754000Y35814000D02*
X38414000Y35814000D01*
X35754000Y38414000D02*
X37084000Y38414000D01*
X1718000Y38414000D02*
X3048000Y38414000D01*
X4378000Y35814000D02*
X4378000Y35754000D01*
X1718000Y35754000D02*
X4378000Y35754000D01*
X1718000Y35814000D02*
X1718000Y35754000D01*
X1718000Y35814000D02*
X4378000Y35814000D01*
X1718000Y37084000D02*
X1718000Y38414000D01*
X35754000Y3048000D02*
X35754000Y4378000D01*
X35754000Y1778000D02*
X35754000Y1718000D01*
X38414000Y1778000D02*
X38414000Y1718000D01*
X35754000Y1718000D02*
X38414000Y1718000D01*
X35754000Y1778000D02*
X38414000Y1778000D01*
X35754000Y4378000D02*
X37084000Y4378000D01*
%LPC*%
D15*
X18938000Y23033000D03*
X20838000Y23033000D03*
X18938000Y25192000D03*
X20838000Y25192000D03*
D16*
X23063000Y19035000D03*
X23063000Y20935000D03*
D17*
X18500000Y21000000D03*
X18500000Y20500000D03*
X18500000Y20000000D03*
X18500000Y19500000D03*
X18500000Y19000000D03*
X21500000Y19000000D03*
X21500000Y19500000D03*
X21500000Y20000000D03*
X21500000Y20500000D03*
X21500000Y21000000D03*
D18*
X20000000Y20000000D03*
D19*
X6426000Y22525000D03*
X6426000Y17525000D03*
D20*
X14808000Y21255000D03*
X14808000Y18715000D03*
X25476000Y21255000D03*
X25476000Y18715000D03*
D21*
X22150000Y28621000D03*
D22*
X21550000Y33701000D03*
D21*
X17150000Y33701000D03*
D22*
X17750000Y28621000D03*
D23*
X33604000Y17445000D03*
X33604000Y22445000D03*
D24*
X20965000Y17064000D03*
X19065000Y17064000D03*
D25*
X22428000Y9825000D03*
X17428000Y9825000D03*
D26*
X3048000Y3048000D03*
X37084000Y37084000D03*
X3048000Y37084000D03*
X37084000Y3048000D03*
M02*
